M48
; DRILL file {KiCad 9.0.7} date 2026-02-10T17:00:28-0800
; FORMAT={-:-/ absolute / inch / decimal}
; #@! TF.CreationDate,2026-02-10T17:00:28-08:00
; #@! TF.GenerationSoftware,Kicad,Pcbnew,9.0.7
; #@! TF.FileFunction,Plated,1,4,PTH
FMAT,2
INCH
; #@! TA.AperFunction,Plated,PTH,ViaDrill
T1C0.0100
; #@! TA.AperFunction,Plated,PTH,ViaDrill
T2C0.0139
; #@! TA.AperFunction,Plated,PTH,ComponentDrill
T3C0.0315
; #@! TA.AperFunction,Plated,PTH,ComponentDrill
T4C0.0394
; #@! TA.AperFunction,Plated,PTH,ComponentDrill
T5C0.0420
; #@! TA.AperFunction,Plated,PTH,ComponentDrill
T6C0.0630
; #@! TA.AperFunction,Plated,PTH,ComponentDrill
T7C0.1260
%
G90
G05
T1
X1.16Y-2.415
X1.16Y-2.78
X1.2Y-2.94
X1.2Y-3.37
X1.375Y-3.07
X1.4601Y-3.085
X1.52Y-2.22
X1.53Y-2.94
X1.53Y-3.37
X1.55Y-2.455
X1.57Y-2.13
X1.63Y-2.31
X1.666Y-4.4508
X1.68Y-2.405
X1.68Y-3.2083
X1.72Y-3.68
X1.74Y-2.105
X1.74Y-2.218
X1.795Y-3.81
X1.805Y-3.2894
X1.805Y-3.635
X1.8063Y-3.74
X1.845Y-2.865
X1.8466Y-3.3866
X1.85Y-3.5
X1.855Y-3.2674
X1.89Y-3.1643
X1.915Y-3.39
X1.915Y-3.495
X1.915Y-3.705
X1.915Y-3.85
X1.925Y-3.1447
X1.925Y-3.29
X1.975Y-2.615
X1.98Y-2.235
X1.99Y-2.89
X1.995Y-2.96
X2.026Y-2.228
X2.045Y-3.521
X2.06Y-2.31
X2.08Y-1.95
X2.0858Y-2.92
X2.13Y-4.07
X2.155Y-2.305
X2.163Y-2.89
X2.165Y-2.65
X2.17Y-2.175
X2.175Y-1.955
X2.22Y-3.93
X2.2592Y-2.89
X2.2592Y-2.955
X2.27Y-4.07
X2.29Y-2.73
X2.29Y-3.735
X2.295Y-3.095
X2.31Y-2.28
X2.32Y-4.2
X2.325Y-4.495
X2.33Y-2.405
X2.33Y-2.47
X2.3477Y-2.8623
X2.365Y-3.8
X2.37Y-2.895
X2.4Y-2.935
X2.4Y-4.07
X2.418Y-2.97
X2.45Y-3.95
X2.4818Y-2.9855
X2.5051Y-2.923
X2.525Y-3.2
X2.555Y-2.41
X2.555Y-3.1701
X2.5756Y-3.724
X2.5925Y-3.1586
X2.6Y-2.8891
X2.6169Y-2.405
X2.625Y-2.975
X2.63Y-4.495
X2.635Y-2.37
X2.6369Y-3.1719
X2.645Y-4.06
X2.655Y-3.985
X2.66Y-3.37
X2.66Y-3.795
X2.675Y-2.49
X2.675Y-2.965
X2.68Y-4.16
X2.7Y-3.4
X2.71Y-4.065
X2.735Y-2.1794
X2.76Y-3.715
X2.76Y-3.775
X2.76Y-3.81
X2.76Y-4.07
X2.7625Y-2.9636
X2.78Y-3.325
X2.78Y-3.52
X2.79Y-3.8719
X2.825Y-3.915
X2.84Y-4.08
X2.894Y-3.198
X2.9Y-4.2
X2.9Y-4.36
X2.905Y-3.71
X2.9066Y-3.3158
X2.935Y-3.035
X2.94Y-3.2
X2.96Y-3.575
X2.97Y-3.04
X2.97Y-3.225
X2.975Y-2.4294
X2.975Y-3.315
X2.975Y-3.705
X3.04Y-3.53
X3.045Y-3.145
X3.05Y-3.47
X3.0527Y-2.96
X3.055Y-2.99
X3.06Y-3.215
X3.0875Y-3.4525
X3.09Y-2.3694
X3.09Y-2.635
X3.1Y-3.74
X3.1Y-3.82
X3.115Y-3.325
X3.125Y-2.0764
X3.13Y-2.4294
X3.14Y-3.395
X3.155Y-2.1494
X3.19Y-2.99
X3.19Y-3.04
X3.19Y-3.09
X3.19Y-3.1737
X3.24Y-2.99
X3.24Y-3.04
X3.24Y-3.09
X3.265Y-4.47
X3.28Y-3.38
X3.29Y-2.99
X3.29Y-3.04
X3.29Y-3.09
X3.31Y-4.03
X3.3173Y-2.325
X3.37Y-2.555
X3.37Y-3.25
X3.41Y-4.03
X3.42Y-3.61
X3.45Y-3.75
X3.45Y-3.85
X3.49Y-2.81
X3.51Y-2.15
X3.51Y-2.675
X3.52Y-2.965
X3.56Y-3.93
X3.575Y-4.3
X3.605Y-3.25
X3.69Y-3.62
X3.7Y-3.5
X3.7074Y-2.4457
X3.7074Y-2.5677
X3.715Y-3.45
X3.745Y-3.095
X3.755Y-2.205
X3.755Y-2.86
X3.757Y-2.235
X3.78Y-3.3
X3.87Y-3.65
X3.91Y-3.38
X3.9125Y-2.8175
X3.915Y-3.465
X3.945Y-2.9074
X3.96Y-2.945
X4.0Y-2.21
X4.005Y-3.09
X4.035Y-2.765
X4.041Y-3.554
X4.11Y-3.25
X4.155Y-2.315
X4.1733Y-3.0517
X4.2Y-3.685
X4.205Y-2.82
X4.267Y-3.677
X4.27Y-2.09
X4.35Y-3.399
X4.375Y-3.75
X4.38Y-4.37
X4.41Y-2.21
X4.42Y-2.14
X4.51Y-4.37
X4.55Y-3.955
X4.6Y-3.92
X4.6401Y-3.21
X4.65Y-3.78
X4.68Y-3.34
X4.69Y-3.28
X4.7Y-3.47
X4.72Y-3.94
X4.73Y-3.43
X4.735Y-2.665
X4.785Y-2.65
X4.825Y-4.145
X4.84Y-2.64
X4.88Y-3.43
X4.89Y-3.82
X4.91Y-3.61
X4.95Y-3.26
X4.99Y-4.22
X5.065Y-2.69
X5.11Y-4.22
X5.115Y-2.505
X5.1273Y-2.535
X5.13Y-3.68
X5.15Y-3.25
X5.165Y-2.46
X5.17Y-3.41
X5.175Y-2.57
X5.205Y-2.135
X5.29Y-3.75
X5.292Y-3.095
X5.35Y-3.26
X5.355Y-2.79
X5.37Y-3.74
X5.37Y-3.9
X5.385Y-2.79
X5.41Y-3.53
X5.415Y-2.79
X5.445Y-2.79
X5.521Y-3.569
X5.62Y-1.675
X5.66Y-2.8
X5.66Y-2.92
X5.66Y-3.04
X5.7Y-2.86
X5.7Y-2.98
X5.74Y-2.8
X5.74Y-2.92
X5.74Y-3.04
X5.74Y-3.25
X5.78Y-2.86
X5.78Y-2.98
X5.78Y-3.39
X5.82Y-2.8
X5.82Y-2.92
X5.82Y-3.04
X5.84Y-3.4
X5.86Y-2.86
X5.86Y-2.98
X5.885Y-3.27
X5.9Y-2.8
X5.9Y-2.92
X5.94Y-2.86
X5.94Y-2.98
X6.06Y-2.13
X6.06Y-2.21
X6.065Y-3.45
X6.109Y-2.844
X6.11Y-3.04
X6.125Y-3.685
X6.152Y-2.211
X6.16Y-3.707
X6.2Y-3.035
X6.23Y-2.05
X6.23Y-3.335
X6.2325Y-3.2425
X6.27Y-3.515
X6.29Y-3.43
X6.3Y-2.98
X6.3Y-3.11
X6.32Y-3.03
X6.35Y-2.98
X6.35Y-3.08
X6.38Y-3.03
X6.4Y-2.98
X6.41Y-3.08
X6.44Y-3.03
X6.45Y-2.98
X6.465Y-3.43
X6.465Y-3.5
X6.48Y-3.06
X6.48Y-3.11
X6.5Y-2.98
X6.51Y-3.02
X6.52Y-3.11
X6.54Y-3.06
X6.55Y-2.98
X6.56Y-3.11
X6.57Y-3.02
X6.6Y-2.98
X6.6Y-3.06
X6.6Y-3.11
X6.62Y-2.26
X6.63Y-3.02
X6.63Y-3.11
X6.65Y-2.98
X6.675Y-3.11
X6.6975Y-3.2675
X6.7Y-3.34
X6.75Y-3.036
X6.78Y-2.25
X6.839Y-3.037
X6.84Y-3.41
X6.85Y-2.37
X6.98Y-3.25
X6.984Y-3.321
X7.074Y-3.555
X7.265Y-2.895
X7.275Y-4.165
X7.37Y-1.375
X7.38Y-2.82
X7.38Y-2.94
X7.38Y-3.06
X7.42Y-2.88
X7.42Y-3.0
X7.46Y-2.82
X7.46Y-2.94
X7.46Y-3.06
X7.5Y-2.88
X7.5Y-3.0
X7.515Y-3.51
X7.54Y-2.82
X7.54Y-2.94
X7.54Y-3.06
X7.58Y-2.88
X7.58Y-3.0
X7.62Y-2.82
X7.62Y-2.94
X7.66Y-2.88
X7.79Y-3.925
X7.89Y-3.085
X7.96Y-2.38
X7.975Y-3.925
X8.015Y-2.756
X8.08Y-2.36
X8.165Y-3.925
X8.2Y-1.62
X8.2Y-1.65
X8.2Y-1.68
X8.2Y-1.71
X8.3Y-2.68
X8.32Y-2.36
X8.355Y-3.925
X8.3581Y-2.065
X8.3919Y-2.065
X8.44Y-2.54
X8.44Y-2.58
X8.44Y-2.62
X8.48Y-2.48
X8.48Y-2.52
X8.48Y-2.56
X8.48Y-2.6
X8.48Y-2.64
X8.483Y-1.967
X8.507Y-1.943
X8.535Y-2.0831
X8.535Y-2.1169
X8.54Y-3.925
X8.615Y-2.0031
X8.615Y-2.0369
X8.66Y-2.52
X8.685Y-1.805
X8.72Y-2.38
X9.013Y-1.6068
X9.1575Y-2.4425
X9.2Y-2.525
X9.335Y-3.5982
X9.36Y-2.73
X9.375Y-3.6382
X9.395Y-2.355
X9.4114Y-2.28
X9.415Y-3.5982
X9.42Y-2.725
X9.455Y-2.25
X9.455Y-3.6382
X9.465Y-2.485
X9.495Y-3.5982
X9.565Y-2.48
X9.585Y-3.2682
X9.585Y-3.4282
X9.625Y-3.2682
X9.625Y-3.4282
X9.665Y-3.2682
X9.665Y-3.4282
X9.725Y-3.7482
X9.725Y-3.8282
X9.735Y-3.5482
X9.74Y-2.2364
X9.745Y-3.7882
X9.755Y-3.5982
X9.775Y-3.4982
X9.775Y-3.7482
X9.775Y-3.8282
X9.795Y-3.5482
X9.795Y-3.7882
X9.815Y-3.4382
X9.815Y-3.5982
X9.825Y-3.7482
X9.825Y-3.8282
X9.835Y-3.4982
X9.845Y-3.7882
X9.855Y-3.5482
X9.875Y-3.4382
X9.895Y-3.4982
X9.935Y-3.4382
X9.955Y-3.4982
X9.96Y-2.44
X9.995Y-3.4382
X10.015Y-3.4982
X10.22Y-2.59
X10.33Y-2.73
X10.36Y-2.78
X10.39Y-2.73
X10.394Y-3.81
X10.42Y-2.5
X10.43Y-2.78
X10.45Y-2.73
X10.45Y-3.906
X10.451Y-4.038
X10.48Y-2.205
X10.49Y-2.78
X10.52Y-2.73
X10.54Y-2.36
X10.56Y-2.78
X10.563Y-4.016
X10.59Y-2.73
X10.63Y-2.78
X10.653Y-3.332
X10.653Y-3.392
X10.653Y-3.452
X10.653Y-3.512
X10.653Y-3.572
X10.653Y-3.632
X10.653Y-3.692
X10.693Y-3.362
X10.693Y-3.422
X10.693Y-3.482
X10.693Y-3.542
X10.693Y-3.602
X10.693Y-3.662
X10.693Y-3.722
X10.74Y-2.38
X10.78Y-2.525
X10.84Y-3.54
T2
X1.2511Y-1.3725
X1.2511Y-1.8862
X1.3538Y-1.3725
X1.3538Y-1.7835
X1.3538Y-1.8862
X1.3538Y-2.2972
X1.4565Y-1.3725
X1.4565Y-1.4753
X1.4565Y-1.578
X1.4565Y-1.6807
X1.4565Y-1.7835
X1.4565Y-1.8862
X1.4565Y-3.6328
X1.4565Y-3.7355
X1.4565Y-3.8383
X1.4565Y-3.941
X1.4565Y-4.0438
X1.4565Y-4.1465
X1.4565Y-4.2493
X1.5593Y-1.3725
X1.5593Y-1.4753
X1.5593Y-1.578
X1.5593Y-1.6807
X1.5593Y-1.7835
X1.5593Y-1.8862
X1.5593Y-3.6328
X1.5593Y-3.7355
X1.5593Y-3.8383
X1.5593Y-3.941
X1.5593Y-4.0438
X1.5593Y-4.1465
X1.5593Y-4.2493
X1.662Y-1.3725
X1.662Y-1.4753
X1.662Y-1.578
X1.662Y-1.6807
X1.662Y-1.7835
X1.662Y-1.8862
X1.662Y-3.4273
X1.662Y-3.5301
X1.662Y-3.8383
X1.662Y-3.941
X1.662Y-4.0438
X1.662Y-4.1465
X1.662Y-4.2493
X1.7648Y-1.3725
X1.7648Y-1.4753
X1.7648Y-1.578
X1.7648Y-1.6807
X1.7648Y-1.7835
X1.7648Y-3.941
X1.7648Y-4.0438
X1.7648Y-4.1465
X1.7648Y-4.2493
X1.8675Y-4.0438
X1.8675Y-4.1465
X1.8675Y-4.2493
X1.8675Y-4.352
X1.8675Y-4.4547
X1.9702Y-4.0438
X1.9702Y-4.1465
X1.9702Y-4.2493
X1.9702Y-4.352
X1.9702Y-4.4547
X2.073Y-4.2493
X2.073Y-4.352
X2.073Y-4.4547
X2.1757Y-4.2493
X2.1757Y-4.352
X2.1757Y-4.4547
X2.2785Y-4.352
X2.3812Y-4.352
X2.4839Y-4.352
X2.5867Y-4.352
X3.7168Y-1.4753
X3.7168Y-1.578
X3.7168Y-1.6807
X3.7168Y-1.7835
X3.7168Y-4.352
X3.8196Y-1.4753
X3.8196Y-1.578
X3.8196Y-1.6807
X3.8196Y-1.7835
X3.8196Y-4.0438
X3.8196Y-4.352
X3.9223Y-1.4753
X3.9223Y-1.578
X3.9223Y-1.6807
X3.9223Y-1.7835
X3.9223Y-3.941
X3.9223Y-4.0438
X3.9223Y-4.352
X4.025Y-1.4753
X4.025Y-1.578
X4.025Y-1.6807
X4.025Y-1.7835
X4.025Y-3.8383
X4.025Y-3.941
X4.025Y-4.0438
X4.025Y-4.352
X4.1278Y-3.8383
X4.1278Y-3.941
X4.1278Y-4.0438
X4.1278Y-4.352
X4.2305Y-3.8383
X4.2305Y-3.941
X4.2305Y-4.0438
X4.2305Y-4.352
X4.5387Y-2.5027
X4.6415Y-2.0917
X4.6415Y-2.3999
X4.6415Y-2.5027
X4.6415Y-2.9136
X4.6415Y-4.352
X4.9497Y-1.7835
X4.9497Y-1.8862
X4.9497Y-1.989
X4.9497Y-2.0917
X4.9497Y-2.3999
X4.9497Y-2.5027
X5.0524Y-1.6807
X5.0524Y-1.7835
X5.0524Y-1.8862
X5.0524Y-1.989
X5.1552Y-1.8862
X5.2579Y-2.2972
X5.2579Y-4.1465
X5.3607Y-2.1944
X5.3607Y-2.2972
X5.4634Y-2.0917
X5.4634Y-2.1944
X5.4634Y-2.9136
X5.5661Y-1.989
X5.5661Y-2.0917
X5.6689Y-3.8383
X5.6689Y-3.941
X5.6689Y-4.0438
X5.6689Y-4.1465
X5.7716Y-3.8383
X5.7716Y-3.941
X5.7716Y-4.0438
X5.7716Y-4.1465
X5.8744Y-3.8383
X5.8744Y-3.941
X5.8744Y-4.0438
X5.8744Y-4.1465
X5.9771Y-2.5027
X5.9771Y-3.8383
X5.9771Y-3.941
X5.9771Y-4.0438
X6.0798Y-3.8383
X6.0798Y-4.4547
X6.1826Y-3.8383
X6.1826Y-4.4547
X6.2853Y-3.8383
X6.2853Y-3.941
X6.2853Y-4.0438
X6.2853Y-4.1465
X6.2853Y-4.4547
X6.3881Y-3.8383
X6.3881Y-3.941
X6.3881Y-4.0438
X6.3881Y-4.1465
X6.3881Y-4.4547
X6.4908Y-3.8383
X6.4908Y-3.941
X6.4908Y-4.0438
X6.4908Y-4.1465
X6.4908Y-4.4547
X6.5935Y-3.8383
X6.5935Y-3.941
X6.5935Y-4.0438
X6.5935Y-4.1465
X6.5935Y-4.4547
X6.6963Y-3.8383
X6.6963Y-3.941
X6.6963Y-4.0438
X6.6963Y-4.4547
X6.799Y-3.8383
X6.799Y-3.941
X6.799Y-4.4547
X6.9018Y-2.5027
X6.9018Y-3.8383
X6.9018Y-4.4547
X7.0045Y-3.0164
X7.0045Y-3.1191
X7.0045Y-4.352
X7.0045Y-4.4547
X7.1072Y-3.0164
X7.1072Y-3.1191
X7.1072Y-3.2218
X7.1072Y-3.3246
X7.1072Y-4.2493
X7.1072Y-4.352
X7.1072Y-4.4547
X7.21Y-3.0164
X7.21Y-3.1191
X7.21Y-3.2218
X7.21Y-4.352
X7.21Y-4.4547
X7.3127Y-4.352
X7.3127Y-4.4547
X7.4155Y-2.2972
X7.4155Y-2.3999
X7.4155Y-2.5027
X7.4155Y-2.6054
X7.4155Y-4.2493
X7.4155Y-4.352
X7.4155Y-4.4547
X7.5182Y-2.2972
X7.5182Y-2.3999
X7.5182Y-3.8383
X7.5182Y-3.941
X7.5182Y-4.0438
X7.5182Y-4.1465
X7.5182Y-4.2493
X7.5182Y-4.352
X7.5182Y-4.4547
X7.6209Y-2.2972
X7.6209Y-2.3999
X7.6209Y-3.8383
X7.6209Y-3.941
X7.6209Y-4.0438
X7.6209Y-4.1465
X7.6209Y-4.2493
X7.6209Y-4.352
X7.6209Y-4.4547
X7.7237Y-1.989
X7.7237Y-2.2972
X7.7237Y-2.3999
X7.7237Y-4.2493
X7.7237Y-4.352
X7.7237Y-4.4547
X7.8264Y-4.2493
X7.8264Y-4.352
X7.8264Y-4.4547
X7.9292Y-2.5027
X7.9292Y-4.2493
X7.9292Y-4.352
X7.9292Y-4.4547
X8.0319Y-4.2493
X8.0319Y-4.352
X8.0319Y-4.4547
X8.1347Y-1.989
X8.1347Y-4.2493
X8.1347Y-4.352
X8.1347Y-4.4547
X8.2374Y-1.8862
X8.2374Y-1.989
X8.2374Y-3.5301
X8.2374Y-4.2493
X8.2374Y-4.352
X8.2374Y-4.4547
X8.3401Y-3.4273
X8.3401Y-4.2493
X8.3401Y-4.352
X8.3401Y-4.4547
X8.4429Y-3.3246
X8.4429Y-4.2493
X8.4429Y-4.352
X8.4429Y-4.4547
X8.5456Y-3.7355
X8.5456Y-4.2493
X8.5456Y-4.352
X8.5456Y-4.4547
X8.6484Y-4.2493
X8.6484Y-4.352
X8.6484Y-4.4547
X8.7511Y-2.0917
X8.7511Y-3.941
X8.7511Y-4.0438
X8.7511Y-4.1465
X8.7511Y-4.2493
X8.7511Y-4.352
X8.7511Y-4.4547
X8.8538Y-2.9136
X8.8538Y-3.4273
X8.8538Y-4.0438
X8.8538Y-4.1465
X8.8538Y-4.2493
X8.8538Y-4.352
X8.8538Y-4.4547
X8.9566Y-3.3246
X8.9566Y-3.4273
X8.9566Y-3.5301
X8.9566Y-4.1465
X8.9566Y-4.2493
X8.9566Y-4.352
X8.9566Y-4.4547
X9.0593Y-3.5301
X9.0593Y-3.6328
X9.0593Y-4.2493
X9.0593Y-4.352
X9.0593Y-4.4547
X9.1621Y-3.5301
X9.1621Y-4.352
X9.1621Y-4.4547
X9.2648Y-3.8383
X9.2648Y-4.352
X9.2648Y-4.4547
X9.3675Y-3.8383
X9.3675Y-3.941
X9.3675Y-4.4547
X9.4703Y-3.8383
X9.4703Y-3.941
X9.573Y-1.989
X9.573Y-3.941
X9.6758Y-1.989
X9.6758Y-2.0917
X9.6758Y-3.0164
X9.7785Y-2.0917
X9.7785Y-2.3999
X9.7785Y-2.5027
X9.7785Y-3.0164
X9.7785Y-4.4547
X9.8812Y-2.1944
X9.8812Y-2.2972
X9.8812Y-2.9136
X9.8812Y-3.0164
X9.8812Y-4.0438
X9.8812Y-4.1465
X9.8812Y-4.2493
X9.8812Y-4.352
X9.8812Y-4.4547
X9.984Y-2.8109
X9.984Y-4.1465
X9.984Y-4.2493
X9.984Y-4.352
X9.984Y-4.4547
X10.0867Y-2.8109
X10.0867Y-4.1465
X10.0867Y-4.2493
X10.0867Y-4.352
X10.0867Y-4.4547
X10.1895Y-3.6328
X10.1895Y-3.7355
X10.1895Y-4.1465
X10.1895Y-4.2493
X10.1895Y-4.352
X10.1895Y-4.4547
X10.2922Y-1.3725
X10.2922Y-4.2493
X10.2922Y-4.352
X10.2922Y-4.4547
X10.3949Y-1.3725
X10.3949Y-1.4753
X10.3949Y-1.578
X10.3949Y-1.6807
X10.3949Y-4.2493
X10.3949Y-4.352
X10.3949Y-4.4547
X10.4977Y-1.3725
X10.4977Y-1.4753
X10.4977Y-1.578
X10.4977Y-1.6807
X10.4977Y-1.7835
X10.4977Y-4.2493
X10.4977Y-4.352
X10.4977Y-4.4547
X10.6004Y-1.3725
X10.6004Y-1.4753
X10.6004Y-1.578
X10.6004Y-1.6807
X10.6004Y-1.7835
X10.6004Y-1.8862
X10.6004Y-4.1465
X10.6004Y-4.2493
X10.6004Y-4.352
X10.7032Y-1.3725
X10.7032Y-1.7835
X10.7032Y-1.8862
X10.7032Y-3.8383
X10.7032Y-3.941
X10.7032Y-4.0438
X10.7032Y-4.1465
X10.7032Y-4.2493
X10.8059Y-1.3725
X10.8059Y-1.8862
X10.8059Y-2.7081
X10.8059Y-2.8109
X10.8059Y-2.9136
X10.8059Y-3.0164
X10.8059Y-3.1191
X10.8059Y-3.8383
X10.8059Y-3.941
X10.8059Y-4.0438
X10.8059Y-4.1465
X10.8059Y-4.2493
X10.9086Y-1.3725
X10.9086Y-1.8862
X10.9086Y-2.6054
X10.9086Y-2.7081
X10.9086Y-2.8109
X10.9086Y-2.9136
X10.9086Y-3.0164
X10.9086Y-3.1191
X10.9086Y-3.7355
X10.9086Y-3.8383
X10.9086Y-3.941
X10.9086Y-4.0438
X10.9086Y-4.1465
X10.9086Y-4.2493
T3
X9.2048Y-3.7022
X9.3426Y-3.7022
X10.1026Y-3.2871
X10.1026Y-3.4249
T4
X1.1573Y-2.6871
X1.159Y-2.5057
X1.2573Y-2.6871
X1.259Y-2.5057
X1.3573Y-2.6871
X1.359Y-2.5057
X1.4573Y-2.6871
X4.03Y-2.4
X4.03Y-2.5
X4.03Y-2.6
X4.2797Y-2.8752
X4.2797Y-2.9752
X4.2797Y-3.0752
X6.1524Y-2.5124
X6.3492Y-2.5124
X6.5692Y-2.5124
X6.7661Y-2.5124
X7.5989Y-2.5729
X7.7958Y-2.5729
X7.9312Y-2.0833
X7.9312Y-2.2801
X8.9437Y-2.5742
X8.9437Y-2.7711
X8.9494Y-2.1552
X8.9494Y-2.3521
X9.6526Y-3.6054
X9.6526Y-3.8022
T5
X9.4691Y-4.1459
X9.4691Y-4.264
X9.5872Y-4.1459
X9.5872Y-4.264
X9.7053Y-4.1459
X9.7053Y-4.264
T6
X1.9036Y-1.4931
X1.9036Y-1.7231
X2.1336Y-1.4931
X2.1336Y-1.7231
X2.3636Y-1.4931
X2.3636Y-1.7231
X2.5936Y-1.4931
X2.5936Y-1.7231
X2.8236Y-1.4931
X2.8236Y-1.7231
X3.0536Y-1.4931
X3.0536Y-1.7231
X3.2836Y-1.4931
X3.2836Y-1.7231
X3.5136Y-1.4931
X3.5136Y-1.7231
X5.2276Y-1.4931
X5.2276Y-1.7231
X5.4576Y-1.4931
X5.4576Y-1.7231
X5.6876Y-1.4931
X5.6876Y-1.7231
X5.9176Y-1.4931
X5.9176Y-1.7231
X6.1476Y-1.4931
X6.1476Y-1.7231
X6.3776Y-1.4931
X6.3776Y-1.7231
X6.6076Y-1.4931
X6.6076Y-1.7231
X6.8376Y-1.4931
X6.8376Y-1.7231
X8.5526Y-1.4931
X8.5526Y-1.7231
X8.7826Y-1.4931
X8.7826Y-1.7231
X9.0126Y-1.4931
X9.0126Y-1.7231
X9.2426Y-1.4931
X9.2426Y-1.7231
X9.4726Y-1.4931
X9.4726Y-1.7231
X9.7026Y-1.4931
X9.7026Y-1.7231
X9.9326Y-1.4931
X9.9326Y-1.7231
X10.1626Y-1.4931
X10.1626Y-1.7231
T7
X1.2206Y-2.1
X1.2206Y-4.5
X10.8Y-2.1
X10.8Y-4.5
M30
