%TF.GenerationSoftware,KiCad,Pcbnew,9.0.7*%
%TF.CreationDate,2026-02-10T04:26:10-08:00*%
%TF.ProjectId,VCU_v2,5643555f-7632-42e6-9b69-6361645f7063,rev?*%
%TF.SameCoordinates,Original*%
%TF.FileFunction,Soldermask,Top*%
%TF.FilePolarity,Negative*%
%FSLAX46Y46*%
G04 Gerber Fmt 4.6, Leading zero omitted, Abs format (unit mm)*
G04 Created by KiCad (PCBNEW 9.0.7) date 2026-02-10 04:26:10*
%MOMM*%
%LPD*%
G01*
G04 APERTURE LIST*
G04 Aperture macros list*
%AMRoundRect*
0 Rectangle with rounded corners*
0 $1 Rounding radius*
0 $2 $3 $4 $5 $6 $7 $8 $9 X,Y pos of 4 corners*
0 Add a 4 corners polygon primitive as box body*
4,1,4,$2,$3,$4,$5,$6,$7,$8,$9,$2,$3,0*
0 Add four circle primitives for the rounded corners*
1,1,$1+$1,$2,$3*
1,1,$1+$1,$4,$5*
1,1,$1+$1,$6,$7*
1,1,$1+$1,$8,$9*
0 Add four rect primitives between the rounded corners*
20,1,$1+$1,$2,$3,$4,$5,0*
20,1,$1+$1,$4,$5,$6,$7,0*
20,1,$1+$1,$6,$7,$8,$9,0*
20,1,$1+$1,$8,$9,$2,$3,0*%
G04 Aperture macros list end*
%ADD10C,0.100000*%
%ADD11RoundRect,0.237500X0.250000X0.237500X-0.250000X0.237500X-0.250000X-0.237500X0.250000X-0.237500X0*%
%ADD12RoundRect,0.250000X1.000000X0.650000X-1.000000X0.650000X-1.000000X-0.650000X1.000000X-0.650000X0*%
%ADD13RoundRect,0.390000X-0.910000X-1.360000X0.910000X-1.360000X0.910000X1.360000X-0.910000X1.360000X0*%
%ADD14R,1.500000X1.500000*%
%ADD15RoundRect,0.237500X0.237500X-0.250000X0.237500X0.250000X-0.237500X0.250000X-0.237500X-0.250000X0*%
%ADD16RoundRect,0.250000X-1.450000X-0.650000X1.450000X-0.650000X1.450000X0.650000X-1.450000X0.650000X0*%
%ADD17RoundRect,0.375000X-0.625000X-0.375000X0.625000X-0.375000X0.625000X0.375000X-0.625000X0.375000X0*%
%ADD18RoundRect,0.500000X-0.500000X-1.400000X0.500000X-1.400000X0.500000X1.400000X-0.500000X1.400000X0*%
%ADD19RoundRect,0.250000X0.450000X-0.350000X0.450000X0.350000X-0.450000X0.350000X-0.450000X-0.350000X0*%
%ADD20RoundRect,0.237500X-0.250000X-0.237500X0.250000X-0.237500X0.250000X0.237500X-0.250000X0.237500X0*%
%ADD21C,3.600000*%
%ADD22C,5.700000*%
%ADD23RoundRect,0.250000X-0.337500X-0.475000X0.337500X-0.475000X0.337500X0.475000X-0.337500X0.475000X0*%
%ADD24RoundRect,0.237500X0.300000X0.237500X-0.300000X0.237500X-0.300000X-0.237500X0.300000X-0.237500X0*%
%ADD25RoundRect,0.150000X-0.512500X-0.150000X0.512500X-0.150000X0.512500X0.150000X-0.512500X0.150000X0*%
%ADD26RoundRect,0.250000X0.337500X0.475000X-0.337500X0.475000X-0.337500X-0.475000X0.337500X-0.475000X0*%
%ADD27RoundRect,0.250000X0.650000X-1.450000X0.650000X1.450000X-0.650000X1.450000X-0.650000X-1.450000X0*%
%ADD28RoundRect,0.067500X0.157500X-0.682500X0.157500X0.682500X-0.157500X0.682500X-0.157500X-0.682500X0*%
%ADD29RoundRect,0.067500X-0.157500X0.682500X-0.157500X-0.682500X0.157500X-0.682500X0.157500X0.682500X0*%
%ADD30RoundRect,0.150000X0.150000X-0.512500X0.150000X0.512500X-0.150000X0.512500X-0.150000X-0.512500X0*%
%ADD31RoundRect,0.237500X-0.237500X0.300000X-0.237500X-0.300000X0.237500X-0.300000X0.237500X0.300000X0*%
%ADD32RoundRect,0.162500X0.162500X-0.825000X0.162500X0.825000X-0.162500X0.825000X-0.162500X-0.825000X0*%
%ADD33RoundRect,0.250000X0.750000X0.750000X-0.750000X0.750000X-0.750000X-0.750000X0.750000X-0.750000X0*%
%ADD34C,2.000000*%
%ADD35RoundRect,0.100000X-0.637500X-0.100000X0.637500X-0.100000X0.637500X0.100000X-0.637500X0.100000X0*%
%ADD36C,2.108200*%
%ADD37RoundRect,0.250000X-0.550000X-0.550000X0.550000X-0.550000X0.550000X0.550000X-0.550000X0.550000X0*%
%ADD38C,1.600000*%
%ADD39RoundRect,0.250000X-0.550000X0.550000X-0.550000X-0.550000X0.550000X-0.550000X0.550000X0.550000X0*%
%ADD40R,1.000000X0.900000*%
%ADD41RoundRect,0.237500X-0.237500X0.250000X-0.237500X-0.250000X0.237500X-0.250000X0.237500X0.250000X0*%
%ADD42RoundRect,0.225000X-0.225000X-0.375000X0.225000X-0.375000X0.225000X0.375000X-0.225000X0.375000X0*%
%ADD43RoundRect,0.250000X0.900000X-1.000000X0.900000X1.000000X-0.900000X1.000000X-0.900000X-1.000000X0*%
%ADD44R,1.700000X1.700000*%
%ADD45C,1.700000*%
%ADD46RoundRect,0.155000X-0.155000X0.212500X-0.155000X-0.212500X0.155000X-0.212500X0.155000X0.212500X0*%
%ADD47RoundRect,0.250000X2.500000X-1.750000X2.500000X1.750000X-2.500000X1.750000X-2.500000X-1.750000X0*%
%ADD48R,1.200000X1.200000*%
%ADD49R,1.500000X1.600000*%
%ADD50RoundRect,0.237500X0.237500X-0.300000X0.237500X0.300000X-0.237500X0.300000X-0.237500X-0.300000X0*%
%ADD51RoundRect,0.237500X-0.300000X-0.237500X0.300000X-0.237500X0.300000X0.237500X-0.300000X0.237500X0*%
%ADD52RoundRect,0.250000X1.450000X0.650000X-1.450000X0.650000X-1.450000X-0.650000X1.450000X-0.650000X0*%
%ADD53RoundRect,0.162500X0.825000X0.162500X-0.825000X0.162500X-0.825000X-0.162500X0.825000X-0.162500X0*%
%ADD54C,1.574800*%
%ADD55RoundRect,0.237500X0.287500X0.237500X-0.287500X0.237500X-0.287500X-0.237500X0.287500X-0.237500X0*%
%ADD56RoundRect,0.090000X-0.685000X-0.210000X0.685000X-0.210000X0.685000X0.210000X-0.685000X0.210000X0*%
%ADD57RoundRect,0.155000X0.155000X-0.212500X0.155000X0.212500X-0.155000X0.212500X-0.155000X-0.212500X0*%
%ADD58RoundRect,0.250000X-0.750000X-0.750000X0.750000X-0.750000X0.750000X0.750000X-0.750000X0.750000X0*%
%ADD59RoundRect,0.250000X1.500000X0.650000X-1.500000X0.650000X-1.500000X-0.650000X1.500000X-0.650000X0*%
%ADD60RoundRect,0.330000X-0.770000X0.820000X-0.770000X-0.820000X0.770000X-0.820000X0.770000X0.820000X0*%
%ADD61RoundRect,0.243750X0.456250X-0.243750X0.456250X0.243750X-0.456250X0.243750X-0.456250X-0.243750X0*%
%ADD62RoundRect,0.250000X0.750000X-0.750000X0.750000X0.750000X-0.750000X0.750000X-0.750000X-0.750000X0*%
%ADD63RoundRect,0.155000X-0.212500X-0.155000X0.212500X-0.155000X0.212500X0.155000X-0.212500X0.155000X0*%
%ADD64RoundRect,0.250000X0.250000X-0.250000X0.250000X0.250000X-0.250000X0.250000X-0.250000X-0.250000X0*%
%ADD65RoundRect,0.150000X0.512500X0.150000X-0.512500X0.150000X-0.512500X-0.150000X0.512500X-0.150000X0*%
%ADD66RoundRect,0.495000X-1.755000X-1.155000X1.755000X-1.155000X1.755000X1.155000X-1.755000X1.155000X0*%
%ADD67RoundRect,0.250000X0.475000X-0.337500X0.475000X0.337500X-0.475000X0.337500X-0.475000X-0.337500X0*%
%ADD68RoundRect,0.250000X-0.475000X0.337500X-0.475000X-0.337500X0.475000X-0.337500X0.475000X0.337500X0*%
%ADD69R,1.500000X0.800000*%
%ADD70R,2.000000X1.450000*%
%ADD71RoundRect,0.243750X-0.243750X-0.456250X0.243750X-0.456250X0.243750X0.456250X-0.243750X0.456250X0*%
%ADD72RoundRect,0.150000X0.825000X0.150000X-0.825000X0.150000X-0.825000X-0.150000X0.825000X-0.150000X0*%
%ADD73RoundRect,0.075000X0.075000X-0.662500X0.075000X0.662500X-0.075000X0.662500X-0.075000X-0.662500X0*%
%ADD74RoundRect,0.075000X0.662500X-0.075000X0.662500X0.075000X-0.662500X0.075000X-0.662500X-0.075000X0*%
%ADD75RoundRect,0.150000X-0.825000X-0.150000X0.825000X-0.150000X0.825000X0.150000X-0.825000X0.150000X0*%
%ADD76RoundRect,0.250000X-0.750000X0.750000X-0.750000X-0.750000X0.750000X-0.750000X0.750000X0.750000X0*%
%ADD77RoundRect,0.070500X0.164500X-0.189500X0.164500X0.189500X-0.164500X0.189500X-0.164500X-0.189500X0*%
%ADD78RoundRect,0.250000X0.350000X0.450000X-0.350000X0.450000X-0.350000X-0.450000X0.350000X-0.450000X0*%
%ADD79R,10.670000X9.450000*%
%ADD80R,1.050000X3.800000*%
%ADD81RoundRect,0.150000X-0.150000X0.825000X-0.150000X-0.825000X0.150000X-0.825000X0.150000X0.825000X0*%
%ADD82RoundRect,0.225000X0.225000X0.375000X-0.225000X0.375000X-0.225000X-0.375000X0.225000X-0.375000X0*%
%ADD83RoundRect,0.250000X-0.450000X0.350000X-0.450000X-0.350000X0.450000X-0.350000X0.450000X0.350000X0*%
G04 APERTURE END LIST*
%TO.C,U2*%
D10*
X243207877Y-83474020D02*
X245807877Y-83474020D01*
X245807877Y-86574020D01*
X243207877Y-86574020D01*
X243207877Y-83474020D01*
G36*
X243207877Y-83474020D02*
G01*
X245807877Y-83474020D01*
X245807877Y-86574020D01*
X243207877Y-86574020D01*
X243207877Y-83474020D01*
G37*
%TD*%
D11*
%TO.C,R23*%
X168837082Y-86588061D03*
X167012082Y-86588061D03*
%TD*%
D12*
%TO.C,D5*%
X268257877Y-90650020D03*
X264257877Y-90650020D03*
%TD*%
D13*
%TO.C,BT1*%
X155428594Y-102263498D03*
X184828594Y-102263498D03*
%TD*%
D14*
%TO.C,TP63*%
X111825569Y-83940495D03*
%TD*%
D15*
%TO.C,R60*%
X237744000Y-65936500D03*
X237744000Y-64111500D03*
%TD*%
D16*
%TO.C,TP48*%
X253197898Y-91594786D03*
%TD*%
D17*
%TO.C,U3*%
X79266066Y-76011362D03*
X79266066Y-78311362D03*
D18*
X85566066Y-78311362D03*
D17*
X79266066Y-80611362D03*
%TD*%
D19*
%TO.C,R61*%
X50213327Y-64739286D03*
X50213327Y-62739286D03*
%TD*%
D15*
%TO.C,R105*%
X118162215Y-103161086D03*
X118162215Y-101336086D03*
%TD*%
D20*
%TO.C,R79*%
X155174014Y-84429992D03*
X156999014Y-84429992D03*
%TD*%
D21*
%TO.C,H1*%
X274320000Y-53340000D03*
D22*
X274320000Y-53340000D03*
%TD*%
D20*
%TO.C,R49*%
X95368387Y-88849296D03*
X97193387Y-88849296D03*
%TD*%
D16*
%TO.C,TP53*%
X39395114Y-113030000D03*
%TD*%
D23*
%TO.C,C81*%
X45916270Y-53402177D03*
X47991270Y-53402177D03*
%TD*%
D19*
%TO.C,R72*%
X259603077Y-64063520D03*
X259603077Y-62063520D03*
%TD*%
D24*
%TO.C,C60*%
X170769381Y-71433713D03*
X169044381Y-71433713D03*
%TD*%
D25*
%TO.C,Q11*%
X138220597Y-97242853D03*
X138220597Y-99142853D03*
X140495597Y-98192853D03*
%TD*%
D26*
%TO.C,C71*%
X209429840Y-64060124D03*
X207354840Y-64060124D03*
%TD*%
D23*
%TO.C,C69*%
X150419704Y-53907713D03*
X152494704Y-53907713D03*
%TD*%
D16*
%TO.C,TP10*%
X68755327Y-53071286D03*
%TD*%
D15*
%TO.C,R48*%
X84081726Y-105702267D03*
X84081726Y-103877267D03*
%TD*%
D19*
%TO.C,R64*%
X54737000Y-62468000D03*
X54737000Y-60468000D03*
%TD*%
D27*
%TO.C,TP57*%
X202624501Y-102602892D03*
%TD*%
D19*
%TO.C,R58*%
X55293327Y-53579286D03*
X55293327Y-51579286D03*
%TD*%
D28*
%TO.C,U13*%
X159771204Y-80695712D03*
X160421204Y-80695712D03*
X161071204Y-80695712D03*
X161721204Y-80695712D03*
X162371204Y-80695712D03*
X163021204Y-80695712D03*
X163671204Y-80695712D03*
X164321204Y-80695712D03*
X164971204Y-80695712D03*
X165621204Y-80695712D03*
X166271204Y-80695712D03*
X166921204Y-80695712D03*
X167571204Y-80695712D03*
X168221204Y-80695712D03*
X168871204Y-80695712D03*
X169521204Y-80695712D03*
D29*
X169521204Y-73695712D03*
X168871204Y-73695712D03*
X168221204Y-73695712D03*
X167571204Y-73695712D03*
X166921204Y-73695712D03*
X166271204Y-73695712D03*
X165621204Y-73695712D03*
X164971204Y-73695712D03*
X164321204Y-73695712D03*
X163671204Y-73695712D03*
X163021204Y-73695712D03*
X162371204Y-73695712D03*
X161721204Y-73695712D03*
X161071204Y-73695712D03*
X160421204Y-73695712D03*
X159771204Y-73695712D03*
%TD*%
D24*
%TO.C,C26*%
X75553239Y-84222133D03*
X73828239Y-84222133D03*
%TD*%
D30*
%TO.C,Q15*%
X150189539Y-90550991D03*
X152089539Y-90550991D03*
X151139539Y-88275991D03*
%TD*%
D27*
%TO.C,TP56*%
X197851501Y-102602892D03*
%TD*%
D15*
%TO.C,R109*%
X114183001Y-105317476D03*
X114183001Y-103492476D03*
%TD*%
D23*
%TO.C,C84*%
X254755577Y-62047520D03*
X256830577Y-62047520D03*
%TD*%
D20*
%TO.C,R106*%
X135752894Y-91604837D03*
X137577894Y-91604837D03*
%TD*%
D31*
%TO.C,C28*%
X64530739Y-73384032D03*
X64530739Y-75109032D03*
%TD*%
D24*
%TO.C,C42*%
X130224330Y-92058733D03*
X128499330Y-92058733D03*
%TD*%
D16*
%TO.C,TP30*%
X191389000Y-52994712D03*
%TD*%
D32*
%TO.C,Q2*%
X240411000Y-65021500D03*
X241681000Y-65021500D03*
X242951000Y-65021500D03*
X244221000Y-65021500D03*
X244221000Y-59946500D03*
X242951000Y-59946500D03*
X241681000Y-59946500D03*
X240411000Y-59946500D03*
%TD*%
D14*
%TO.C,TP67*%
X138590487Y-103549477D03*
%TD*%
D33*
%TO.C,C65*%
X171858881Y-63813713D03*
D34*
X166858881Y-63813713D03*
%TD*%
D35*
%TO.C,U14*%
X212387840Y-61643124D03*
X212387840Y-62293124D03*
X212387840Y-62943124D03*
X212387840Y-63593124D03*
X212387840Y-64243124D03*
X212387840Y-64893124D03*
X212387840Y-65543124D03*
X212387840Y-66193124D03*
X212387840Y-66843124D03*
X212387840Y-67493124D03*
X218112840Y-67493124D03*
X218112840Y-66843124D03*
X218112840Y-66193124D03*
X218112840Y-65543124D03*
X218112840Y-64893124D03*
X218112840Y-64243124D03*
X218112840Y-63593124D03*
X218112840Y-62943124D03*
X218112840Y-62293124D03*
X218112840Y-61643124D03*
%TD*%
D19*
%TO.C,R67*%
X264683077Y-61804520D03*
X264683077Y-59804520D03*
%TD*%
D11*
%TO.C,R62*%
X241300000Y-67493798D03*
X239475000Y-67493798D03*
%TD*%
D36*
%TO.C,U19*%
X258129524Y-43767362D03*
X252287524Y-43767362D03*
X246445524Y-43767362D03*
X240603524Y-43767362D03*
X234761524Y-43767362D03*
X228919524Y-43767362D03*
X223077524Y-43767362D03*
X217235524Y-43767362D03*
X258129524Y-37925362D03*
X252287524Y-37925362D03*
X246445524Y-37925362D03*
X240603524Y-37925362D03*
X234761524Y-37925362D03*
X228919524Y-37925362D03*
X223077524Y-37925362D03*
X217235524Y-37925362D03*
%TD*%
D37*
%TO.C,C11*%
X233801877Y-94036020D03*
D38*
X237301877Y-94036020D03*
%TD*%
D16*
%TO.C,TP21*%
X98220349Y-54347238D03*
%TD*%
D39*
%TO.C,C2*%
X256605877Y-83493369D03*
D38*
X256605877Y-86993369D03*
%TD*%
D40*
%TO.C,SW1*%
X70510818Y-110692658D03*
X70510818Y-106592658D03*
X72110818Y-110692658D03*
X72110818Y-106592658D03*
%TD*%
D16*
%TO.C,TP17*%
X92234698Y-75296124D03*
%TD*%
D24*
%TO.C,C38*%
X48614500Y-96774000D03*
X46889500Y-96774000D03*
%TD*%
D16*
%TO.C,TP37*%
X268747077Y-64587520D03*
%TD*%
D11*
%TO.C,R53*%
X86374887Y-85785551D03*
X84549887Y-85785551D03*
%TD*%
D16*
%TO.C,TP5*%
X275351077Y-83284020D03*
%TD*%
D27*
%TO.C,TP59*%
X212149501Y-102602892D03*
%TD*%
D15*
%TO.C,R103*%
X126688125Y-101479632D03*
X126688125Y-99654632D03*
%TD*%
D16*
%TO.C,TP19*%
X94168649Y-65218438D03*
%TD*%
D41*
%TO.C,R47*%
X84081726Y-107687267D03*
X84081726Y-109512267D03*
%TD*%
%TO.C,R83*%
X153990306Y-88941393D03*
X153990306Y-90766393D03*
%TD*%
D42*
%TO.C,D1*%
X144968735Y-88333702D03*
X148268735Y-88333702D03*
%TD*%
D43*
%TO.C,D6*%
X268289877Y-99794020D03*
X268289877Y-95494020D03*
%TD*%
D44*
%TO.C,JP3*%
X102362000Y-60960000D03*
D45*
X102362000Y-63500000D03*
X102362000Y-66040000D03*
%TD*%
D46*
%TO.C,C34*%
X58933538Y-104492432D03*
X58933538Y-105627432D03*
%TD*%
D47*
%TO.C,L3*%
X146377204Y-67809713D03*
X146377204Y-59309713D03*
%TD*%
D11*
%TO.C,R88*%
X102711699Y-91929733D03*
X100886699Y-91929733D03*
%TD*%
D48*
%TO.C,RV5*%
X100943575Y-83792829D03*
D49*
X104193575Y-84792829D03*
D48*
X100943575Y-85792829D03*
%TD*%
D16*
%TO.C,TP39*%
X256546466Y-55951520D03*
%TD*%
D41*
%TO.C,R46*%
X92320387Y-91985051D03*
X92320387Y-93810051D03*
%TD*%
D16*
%TO.C,TP38*%
X255793077Y-64841520D03*
%TD*%
D50*
%TO.C,C23*%
X70096185Y-102175103D03*
X70096185Y-100450103D03*
%TD*%
D24*
%TO.C,C16*%
X79262724Y-73866362D03*
X77537724Y-73866362D03*
%TD*%
D41*
%TO.C,R94*%
X125958693Y-89181307D03*
X125958693Y-91006307D03*
%TD*%
D16*
%TO.C,TP11*%
X71247000Y-70358000D03*
%TD*%
D11*
%TO.C,R14*%
X78442027Y-52741086D03*
X76617027Y-52741086D03*
%TD*%
D41*
%TO.C,R12*%
X114543510Y-83436493D03*
X114543510Y-85261493D03*
%TD*%
D11*
%TO.C,R90*%
X116385974Y-81576565D03*
X114560974Y-81576565D03*
%TD*%
D51*
%TO.C,C30*%
X46904239Y-84914532D03*
X48629239Y-84914532D03*
%TD*%
D24*
%TO.C,C58*%
X163657381Y-71433713D03*
X161932381Y-71433713D03*
%TD*%
D52*
%TO.C,TP27*%
X80636387Y-99501551D03*
%TD*%
D53*
%TO.C,Q3*%
X89555539Y-97880796D03*
X89555539Y-96610796D03*
X89555539Y-95340796D03*
X89555539Y-94070796D03*
X84480539Y-94070796D03*
X84480539Y-95340796D03*
X84480539Y-96610796D03*
X84480539Y-97880796D03*
%TD*%
D19*
%TO.C,R68*%
X277383077Y-61809520D03*
X277383077Y-59809520D03*
%TD*%
D54*
%TO.C,J2*%
X246515476Y-108306700D03*
X243515477Y-108306700D03*
X240515478Y-108306700D03*
X246515476Y-105306701D03*
X243515477Y-105306701D03*
X240515478Y-105306701D03*
%TD*%
D41*
%TO.C,R101*%
X118205598Y-97575703D03*
X118205598Y-99400703D03*
%TD*%
D20*
%TO.C,R98*%
X125770662Y-96017324D03*
X127595662Y-96017324D03*
%TD*%
D48*
%TO.C,RV2*%
X120597903Y-83031890D03*
D49*
X123847903Y-84031890D03*
D48*
X120597903Y-85031890D03*
%TD*%
D31*
%TO.C,C20*%
X58526566Y-73365132D03*
X58526566Y-75090132D03*
%TD*%
D16*
%TO.C,TP14*%
X59103327Y-53071286D03*
%TD*%
D20*
%TO.C,R82*%
X125825936Y-81165091D03*
X127650936Y-81165091D03*
%TD*%
D52*
%TO.C,TP31*%
X85208387Y-88325551D03*
%TD*%
D11*
%TO.C,R4*%
X86368038Y-83769296D03*
X84543038Y-83769296D03*
%TD*%
D55*
%TO.C,D7*%
X264033000Y-99187000D03*
X262283000Y-99187000D03*
%TD*%
D16*
%TO.C,TP26*%
X166697204Y-54899712D03*
%TD*%
D41*
%TO.C,R99*%
X135856653Y-87821421D03*
X135856653Y-89646421D03*
%TD*%
D16*
%TO.C,TP55*%
X75425349Y-66894838D03*
%TD*%
%TO.C,TP22*%
X106475349Y-65243838D03*
%TD*%
D56*
%TO.C,U2*%
X241807877Y-83074020D03*
X241807877Y-84374020D03*
X241807877Y-85674020D03*
X241807877Y-86974020D03*
X247207877Y-86974020D03*
X247207877Y-85674020D03*
X247207877Y-84374020D03*
X247207877Y-83074020D03*
%TD*%
D57*
%TO.C,C5*%
X64945327Y-63544786D03*
X64945327Y-62409786D03*
%TD*%
D58*
%TO.C,C66*%
X156270881Y-63813713D03*
D34*
X161270881Y-63813713D03*
%TD*%
D16*
%TO.C,TP25*%
X161109204Y-55026712D03*
%TD*%
D50*
%TO.C,C36*%
X54107538Y-102052932D03*
X54107538Y-100327932D03*
%TD*%
D59*
%TO.C,D2*%
X249961877Y-80066020D03*
X244961877Y-80066020D03*
%TD*%
D24*
%TO.C,C17*%
X42593327Y-52817286D03*
X40868327Y-52817286D03*
%TD*%
D50*
%TO.C,C7*%
X66469327Y-63993286D03*
X66469327Y-62268286D03*
%TD*%
D11*
%TO.C,R29*%
X209304840Y-67870124D03*
X207479840Y-67870124D03*
%TD*%
D23*
%TO.C,C82*%
X45873827Y-62723286D03*
X47948827Y-62723286D03*
%TD*%
D20*
%TO.C,R18*%
X245594500Y-57912000D03*
X247419500Y-57912000D03*
%TD*%
D52*
%TO.C,TP47*%
X31144916Y-105283000D03*
%TD*%
D25*
%TO.C,Q10*%
X121469818Y-98097384D03*
X121469818Y-99997384D03*
X123744818Y-99047384D03*
%TD*%
D15*
%TO.C,R15*%
X84184327Y-54468286D03*
X84184327Y-52643286D03*
%TD*%
D44*
%TO.C,JP4*%
X108705000Y-73031000D03*
D45*
X108705000Y-75571000D03*
X108705000Y-78111000D03*
%TD*%
D31*
%TO.C,C4*%
X251271877Y-84029520D03*
X251271877Y-85754520D03*
%TD*%
D16*
%TO.C,TP28*%
X181302204Y-52994712D03*
%TD*%
%TO.C,TP4*%
X37325349Y-52289838D03*
%TD*%
D24*
%TO.C,C44*%
X108402881Y-91826692D03*
X106677881Y-91826692D03*
%TD*%
D44*
%TO.C,JP1*%
X29437393Y-63644027D03*
D45*
X31977393Y-63644027D03*
X34517393Y-63644027D03*
%TD*%
D51*
%TO.C,C9*%
X85926827Y-54595286D03*
X87651827Y-54595286D03*
%TD*%
D41*
%TO.C,R2*%
X240603877Y-79153520D03*
X240603877Y-80978520D03*
%TD*%
D11*
%TO.C,R22*%
X161071759Y-90676062D03*
X159246759Y-90676062D03*
%TD*%
D44*
%TO.C,J1*%
X29395343Y-68252197D03*
D45*
X31935343Y-68252197D03*
X34475343Y-68252197D03*
X37015343Y-68252197D03*
%TD*%
D60*
%TO.C,Y1*%
X61275538Y-105254432D03*
X61275538Y-114304432D03*
X64775538Y-114254432D03*
X64775538Y-105254432D03*
%TD*%
D61*
%TO.C,D13*%
X111348554Y-109333078D03*
X111348554Y-107458078D03*
%TD*%
D62*
%TO.C,C53*%
X227315340Y-59742124D03*
D34*
X227315340Y-54742124D03*
%TD*%
D52*
%TO.C,TP45*%
X31144916Y-99187000D03*
%TD*%
D41*
%TO.C,R25*%
X161071759Y-83413562D03*
X161071759Y-85238562D03*
%TD*%
D24*
%TO.C,C14*%
X42693827Y-62469286D03*
X40968827Y-62469286D03*
%TD*%
D19*
%TO.C,R73*%
X275097077Y-61777520D03*
X275097077Y-59777520D03*
%TD*%
D11*
%TO.C,R1*%
X260248400Y-102514400D03*
X258423400Y-102514400D03*
%TD*%
D15*
%TO.C,R57*%
X120520044Y-81104704D03*
X120520044Y-79279704D03*
%TD*%
D27*
%TO.C,TP58*%
X207323501Y-102602892D03*
%TD*%
D50*
%TO.C,C51*%
X165100000Y-85190500D03*
X165100000Y-83465500D03*
%TD*%
D63*
%TO.C,C1*%
X76569827Y-60183286D03*
X77704827Y-60183286D03*
%TD*%
D51*
%TO.C,C57*%
X158376381Y-71433713D03*
X160101381Y-71433713D03*
%TD*%
D48*
%TO.C,RV6*%
X100929720Y-87977120D03*
D49*
X104179720Y-88977120D03*
D48*
X100929720Y-89977120D03*
%TD*%
D15*
%TO.C,R40*%
X143238141Y-89924582D03*
X143238141Y-88099582D03*
%TD*%
D50*
%TO.C,C77*%
X205344340Y-69595124D03*
X205344340Y-67870124D03*
%TD*%
D24*
%TO.C,C25*%
X75812738Y-89695132D03*
X74087738Y-89695132D03*
%TD*%
D42*
%TO.C,D25*%
X149642564Y-92948016D03*
X152942564Y-92948016D03*
%TD*%
D11*
%TO.C,R5*%
X237809877Y-88702020D03*
X235984877Y-88702020D03*
%TD*%
D64*
%TO.C,D8*%
X86621726Y-106527767D03*
X86621726Y-104027767D03*
%TD*%
D51*
%TO.C,C50*%
X161124759Y-87120062D03*
X162849759Y-87120062D03*
%TD*%
D16*
%TO.C,TP50*%
X275351077Y-88029020D03*
%TD*%
D20*
%TO.C,R19*%
X62204027Y-56982886D03*
X64029027Y-56982886D03*
%TD*%
D23*
%TO.C,C83*%
X267709577Y-61793520D03*
X269784577Y-61793520D03*
%TD*%
D41*
%TO.C,R96*%
X114598504Y-92695332D03*
X114598504Y-94520332D03*
%TD*%
D53*
%TO.C,Q4*%
X94349887Y-86420551D03*
X94349887Y-85150551D03*
X94349887Y-83880551D03*
X94349887Y-82610551D03*
X89274887Y-82610551D03*
X89274887Y-83880551D03*
X89274887Y-85150551D03*
X89274887Y-86420551D03*
%TD*%
D65*
%TO.C,Q8*%
X114216628Y-101170086D03*
X114216628Y-99270086D03*
X111941628Y-100220086D03*
%TD*%
D41*
%TO.C,R80*%
X125816380Y-84860681D03*
X125816380Y-86685681D03*
%TD*%
D11*
%TO.C,R30*%
X209304840Y-66092124D03*
X207479840Y-66092124D03*
%TD*%
D66*
%TO.C,L2*%
X234507877Y-76616020D03*
X234507877Y-85316020D03*
%TD*%
D20*
%TO.C,R85*%
X155192614Y-81770143D03*
X157017614Y-81770143D03*
%TD*%
D51*
%TO.C,C32*%
X46889500Y-95123000D03*
X48614500Y-95123000D03*
%TD*%
D20*
%TO.C,R20*%
X58648027Y-56982886D03*
X60473027Y-56982886D03*
%TD*%
D41*
%TO.C,R13*%
X74227527Y-54773086D03*
X74227527Y-56598086D03*
%TD*%
D11*
%TO.C,R51*%
X81802887Y-96961551D03*
X79977887Y-96961551D03*
%TD*%
D36*
%TO.C,U18*%
X173674524Y-43767362D03*
X167832524Y-43767362D03*
X161990524Y-43767362D03*
X156148524Y-43767362D03*
X150306524Y-43767362D03*
X144464524Y-43767362D03*
X138622524Y-43767362D03*
X132780524Y-43767362D03*
X173674524Y-37925362D03*
X167832524Y-37925362D03*
X161990524Y-37925362D03*
X156148524Y-37925362D03*
X150306524Y-37925362D03*
X144464524Y-37925362D03*
X138622524Y-37925362D03*
X132780524Y-37925362D03*
%TD*%
D51*
%TO.C,C31*%
X46955039Y-89994532D03*
X48680039Y-89994532D03*
%TD*%
D16*
%TO.C,TP52*%
X46911327Y-70724286D03*
%TD*%
D67*
%TO.C,C74*%
X170380204Y-57301962D03*
X170380204Y-55226962D03*
%TD*%
D16*
%TO.C,TP6*%
X257048000Y-77075220D03*
%TD*%
D31*
%TO.C,C6*%
X249493877Y-84029520D03*
X249493877Y-85754520D03*
%TD*%
D41*
%TO.C,R100*%
X135836033Y-84223114D03*
X135836033Y-86048114D03*
%TD*%
D15*
%TO.C,R42*%
X99441000Y-65325000D03*
X99441000Y-63500000D03*
%TD*%
D52*
%TO.C,TP29*%
X80636387Y-92135551D03*
%TD*%
D51*
%TO.C,C49*%
X167259000Y-83058000D03*
X168984000Y-83058000D03*
%TD*%
D50*
%TO.C,C19*%
X68239139Y-102133532D03*
X68239139Y-100408532D03*
%TD*%
D11*
%TO.C,R32*%
X203462840Y-66727124D03*
X201637840Y-66727124D03*
%TD*%
%TO.C,R7*%
X243228500Y-57221520D03*
X241403500Y-57221520D03*
%TD*%
D52*
%TO.C,TP46*%
X31144916Y-102235000D03*
%TD*%
D20*
%TO.C,R107*%
X138071266Y-101105118D03*
X139896266Y-101105118D03*
%TD*%
D31*
%TO.C,C54*%
X220076340Y-60303124D03*
X220076340Y-62028124D03*
%TD*%
D16*
%TO.C,TP12*%
X63929327Y-53027901D03*
%TD*%
D68*
%TO.C,C63*%
X155174881Y-73698213D03*
X155174881Y-75773213D03*
%TD*%
D69*
%TO.C,J4*%
X33093343Y-83373197D03*
X33093343Y-82273197D03*
X33093343Y-81173197D03*
X33093343Y-80073197D03*
X33093343Y-78973197D03*
X33093343Y-77873197D03*
X33093343Y-76773197D03*
X33093343Y-75673197D03*
D70*
X30493343Y-87048197D03*
X38793343Y-87048197D03*
X30493343Y-73298197D03*
X38793343Y-73298197D03*
%TD*%
D16*
%TO.C,TP36*%
X46911327Y-65771286D03*
%TD*%
D24*
%TO.C,C24*%
X75553239Y-95480932D03*
X73828239Y-95480932D03*
%TD*%
D20*
%TO.C,R31*%
X201637840Y-68505124D03*
X203462840Y-68505124D03*
%TD*%
D51*
%TO.C,C40*%
X65098827Y-58913286D03*
X66823827Y-58913286D03*
%TD*%
D33*
%TO.C,C76*%
X198012660Y-65352753D03*
D34*
X193012660Y-65352753D03*
%TD*%
D51*
%TO.C,C52*%
X173978259Y-82548062D03*
X175703259Y-82548062D03*
%TD*%
D21*
%TO.C,H2*%
X31002724Y-53340000D03*
D22*
X31002724Y-53340000D03*
%TD*%
D14*
%TO.C,TP64*%
X108030775Y-83888920D03*
%TD*%
D50*
%TO.C,C64*%
X221854340Y-63652624D03*
X221854340Y-61927624D03*
%TD*%
D41*
%TO.C,R84*%
X128650140Y-83020503D03*
X128650140Y-84845503D03*
%TD*%
D31*
%TO.C,C29*%
X51943000Y-73384032D03*
X51943000Y-75109032D03*
%TD*%
D50*
%TO.C,C46*%
X110666349Y-56125238D03*
X110666349Y-54400238D03*
%TD*%
D27*
%TO.C,TP24*%
X200714866Y-74684173D03*
%TD*%
D50*
%TO.C,C86*%
X116396542Y-98127718D03*
X116396542Y-96402718D03*
%TD*%
D52*
%TO.C,TP42*%
X31144916Y-90043000D03*
%TD*%
D61*
%TO.C,D16*%
X126779921Y-105730500D03*
X126779921Y-103855500D03*
%TD*%
D51*
%TO.C,C3*%
X76782827Y-61707286D03*
X78507827Y-61707286D03*
%TD*%
D24*
%TO.C,C15*%
X78855224Y-82756362D03*
X77130224Y-82756362D03*
%TD*%
D15*
%TO.C,R50*%
X97146387Y-87102551D03*
X97146387Y-85277551D03*
%TD*%
D71*
%TO.C,D23*%
X151336918Y-84305607D03*
X153211918Y-84305607D03*
%TD*%
%TO.C,D24*%
X151391745Y-81732943D03*
X153266745Y-81732943D03*
%TD*%
D15*
%TO.C,R86*%
X141474243Y-92534830D03*
X141474243Y-90709830D03*
%TD*%
D72*
%TO.C,U9*%
X81579327Y-58405286D03*
X81579327Y-57135286D03*
X81579327Y-55865286D03*
X81579327Y-54595286D03*
X76629327Y-54595286D03*
X76629327Y-55865286D03*
X76629327Y-57135286D03*
X76629327Y-58405286D03*
%TD*%
D31*
%TO.C,C78*%
X205344340Y-64367124D03*
X205344340Y-66092124D03*
%TD*%
D72*
%TO.C,U15*%
X133231802Y-90380318D03*
X133231802Y-89110318D03*
X133231802Y-87840318D03*
X133231802Y-86570318D03*
X128281802Y-86570318D03*
X128281802Y-87840318D03*
X128281802Y-89110318D03*
X128281802Y-90380318D03*
%TD*%
D21*
%TO.C,H3*%
X274320000Y-114300000D03*
D22*
X274320000Y-114300000D03*
%TD*%
D73*
%TO.C,U5*%
X52478739Y-98345632D03*
X52978739Y-98345632D03*
X53478739Y-98345633D03*
X53978739Y-98345632D03*
X54478739Y-98345632D03*
X54978740Y-98345632D03*
X55478739Y-98345632D03*
X55978738Y-98345632D03*
X56478739Y-98345632D03*
X56978739Y-98345632D03*
X57478740Y-98345632D03*
X57978739Y-98345632D03*
X58478739Y-98345632D03*
X58978739Y-98345632D03*
X59478739Y-98345632D03*
X59978739Y-98345633D03*
X60478739Y-98345632D03*
X60978739Y-98345632D03*
X61478739Y-98345632D03*
X61978739Y-98345632D03*
X62478739Y-98345633D03*
X62978739Y-98345632D03*
X63478739Y-98345632D03*
X63978739Y-98345632D03*
X64478739Y-98345632D03*
X64978738Y-98345632D03*
X65478739Y-98345632D03*
X65978739Y-98345632D03*
X66478740Y-98345632D03*
X66978739Y-98345632D03*
X67478738Y-98345632D03*
X67978739Y-98345632D03*
X68478739Y-98345632D03*
X68978739Y-98345633D03*
X69478739Y-98345632D03*
X69978739Y-98345632D03*
D74*
X71891239Y-96433132D03*
X71891239Y-95933132D03*
X71891240Y-95433132D03*
X71891239Y-94933132D03*
X71891239Y-94433132D03*
X71891239Y-93933131D03*
X71891239Y-93433132D03*
X71891239Y-92933133D03*
X71891239Y-92433132D03*
X71891239Y-91933132D03*
X71891239Y-91433131D03*
X71891239Y-90933132D03*
X71891239Y-90433132D03*
X71891239Y-89933132D03*
X71891239Y-89433132D03*
X71891240Y-88933132D03*
X71891239Y-88433132D03*
X71891239Y-87933132D03*
X71891239Y-87433132D03*
X71891239Y-86933132D03*
X71891240Y-86433132D03*
X71891239Y-85933132D03*
X71891239Y-85433132D03*
X71891239Y-84933132D03*
X71891239Y-84433132D03*
X71891239Y-83933133D03*
X71891239Y-83433132D03*
X71891239Y-82933132D03*
X71891239Y-82433131D03*
X71891239Y-81933132D03*
X71891239Y-81433133D03*
X71891239Y-80933132D03*
X71891239Y-80433132D03*
X71891240Y-79933132D03*
X71891239Y-79433132D03*
X71891239Y-78933132D03*
D73*
X69978739Y-77020632D03*
X69478739Y-77020632D03*
X68978739Y-77020631D03*
X68478739Y-77020632D03*
X67978739Y-77020632D03*
X67478738Y-77020632D03*
X66978739Y-77020632D03*
X66478740Y-77020632D03*
X65978739Y-77020632D03*
X65478739Y-77020632D03*
X64978738Y-77020632D03*
X64478739Y-77020632D03*
X63978739Y-77020632D03*
X63478739Y-77020632D03*
X62978739Y-77020632D03*
X62478739Y-77020631D03*
X61978739Y-77020632D03*
X61478739Y-77020632D03*
X60978739Y-77020632D03*
X60478739Y-77020632D03*
X59978739Y-77020631D03*
X59478739Y-77020632D03*
X58978739Y-77020632D03*
X58478739Y-77020632D03*
X57978739Y-77020632D03*
X57478740Y-77020632D03*
X56978739Y-77020632D03*
X56478739Y-77020632D03*
X55978738Y-77020632D03*
X55478739Y-77020632D03*
X54978740Y-77020632D03*
X54478739Y-77020632D03*
X53978739Y-77020632D03*
X53478739Y-77020631D03*
X52978739Y-77020632D03*
X52478739Y-77020632D03*
D74*
X50566239Y-78933132D03*
X50566239Y-79433132D03*
X50566238Y-79933132D03*
X50566239Y-80433132D03*
X50566239Y-80933132D03*
X50566239Y-81433133D03*
X50566239Y-81933132D03*
X50566239Y-82433131D03*
X50566239Y-82933132D03*
X50566239Y-83433132D03*
X50566239Y-83933133D03*
X50566239Y-84433132D03*
X50566239Y-84933132D03*
X50566239Y-85433132D03*
X50566239Y-85933132D03*
X50566238Y-86433132D03*
X50566239Y-86933132D03*
X50566239Y-87433132D03*
X50566239Y-87933132D03*
X50566239Y-88433132D03*
X50566238Y-88933132D03*
X50566239Y-89433132D03*
X50566239Y-89933132D03*
X50566239Y-90433132D03*
X50566239Y-90933132D03*
X50566239Y-91433131D03*
X50566239Y-91933132D03*
X50566239Y-92433132D03*
X50566239Y-92933133D03*
X50566239Y-93433132D03*
X50566239Y-93933131D03*
X50566239Y-94433132D03*
X50566239Y-94933132D03*
X50566238Y-95433132D03*
X50566239Y-95933132D03*
X50566239Y-96433132D03*
%TD*%
D42*
%TO.C,D15*%
X121340547Y-102291125D03*
X124640547Y-102291125D03*
%TD*%
D75*
%TO.C,U11*%
X97444698Y-71308324D03*
X97444698Y-72578324D03*
X97444698Y-73848324D03*
X97444698Y-75118324D03*
X102394698Y-75118324D03*
X102394698Y-73848324D03*
X102394698Y-72578324D03*
X102394698Y-71308324D03*
%TD*%
D19*
%TO.C,R66*%
X272303077Y-64063520D03*
X272303077Y-62063520D03*
%TD*%
D20*
%TO.C,R8*%
X240768500Y-69088000D03*
X242593500Y-69088000D03*
%TD*%
D23*
%TO.C,C70*%
X172898704Y-54772712D03*
X174973704Y-54772712D03*
%TD*%
D68*
%TO.C,C55*%
X171430881Y-73444213D03*
X171430881Y-75519213D03*
%TD*%
D76*
%TO.C,C61*%
X227169966Y-65385949D03*
D34*
X227169966Y-70385949D03*
%TD*%
D20*
%TO.C,R44*%
X88359887Y-91627551D03*
X90184887Y-91627551D03*
%TD*%
D77*
%TO.C,Y2*%
X56139538Y-101502432D03*
X56139538Y-100682432D03*
X55469538Y-100682432D03*
X55469538Y-101502432D03*
%TD*%
D20*
%TO.C,R6*%
X239794877Y-88702020D03*
X241619877Y-88702020D03*
%TD*%
D16*
%TO.C,TP13*%
X66421000Y-70358000D03*
%TD*%
D20*
%TO.C,R87*%
X100940000Y-81855140D03*
X102765000Y-81855140D03*
%TD*%
D36*
%TO.C,U17*%
X89244924Y-43767362D03*
X83402924Y-43767362D03*
X77560924Y-43767362D03*
X71718924Y-43767362D03*
X65876924Y-43767362D03*
X60034924Y-43767362D03*
X54192924Y-43767362D03*
X48350924Y-43767362D03*
X89244924Y-37925362D03*
X83402924Y-37925362D03*
X77560924Y-37925362D03*
X71718924Y-37925362D03*
X65876924Y-37925362D03*
X60034924Y-37925362D03*
X54192924Y-37925362D03*
X48350924Y-37925362D03*
%TD*%
D11*
%TO.C,R10*%
X46886500Y-93472000D03*
X45061500Y-93472000D03*
%TD*%
D75*
%TO.C,U12*%
X103431056Y-54194131D03*
X103431056Y-55464131D03*
X103431056Y-56734131D03*
X103431056Y-58004131D03*
X108381056Y-58004131D03*
X108381056Y-56734131D03*
X108381056Y-55464131D03*
X108381056Y-54194131D03*
%TD*%
D78*
%TO.C,R27*%
X152457204Y-51367713D03*
X150457204Y-51367713D03*
%TD*%
D55*
%TO.C,D4*%
X264006011Y-102567400D03*
X262256011Y-102567400D03*
%TD*%
D16*
%TO.C,TP35*%
X46953770Y-56450177D03*
%TD*%
D51*
%TO.C,C41*%
X125764379Y-97536000D03*
X127489379Y-97536000D03*
%TD*%
D11*
%TO.C,R3*%
X260175854Y-99190049D03*
X258350854Y-99190049D03*
%TD*%
D15*
%TO.C,R104*%
X129822283Y-101440291D03*
X129822283Y-99615291D03*
%TD*%
D52*
%TO.C,TP44*%
X31144916Y-96139000D03*
%TD*%
D24*
%TO.C,C27*%
X75502439Y-78361332D03*
X73777439Y-78361332D03*
%TD*%
D50*
%TO.C,C37*%
X57663538Y-102052932D03*
X57663538Y-100327932D03*
%TD*%
D41*
%TO.C,R55*%
X97146387Y-79943551D03*
X97146387Y-81768551D03*
%TD*%
D16*
%TO.C,TP1*%
X253197898Y-95785786D03*
%TD*%
%TO.C,TP20*%
X98220349Y-58157238D03*
%TD*%
%TO.C,TP15*%
X61595000Y-70358000D03*
%TD*%
D41*
%TO.C,R97*%
X112592312Y-92704131D03*
X112592312Y-94529131D03*
%TD*%
D19*
%TO.C,R63*%
X52324000Y-62468000D03*
X52324000Y-60468000D03*
%TD*%
D68*
%TO.C,C62*%
X173716881Y-73422713D03*
X173716881Y-75497713D03*
%TD*%
D52*
%TO.C,TP33*%
X87572200Y-109429524D03*
%TD*%
D21*
%TO.C,H4*%
X31002724Y-114300000D03*
D22*
X31002724Y-114300000D03*
%TD*%
D51*
%TO.C,C39*%
X70359831Y-104844369D03*
X72084831Y-104844369D03*
%TD*%
D24*
%TO.C,C12*%
X72411827Y-55357286D03*
X70686827Y-55357286D03*
%TD*%
D51*
%TO.C,C59*%
X165488381Y-71433713D03*
X167213381Y-71433713D03*
%TD*%
D25*
%TO.C,Q9*%
X138151219Y-93434633D03*
X138151219Y-95334633D03*
X140426219Y-94384633D03*
%TD*%
D51*
%TO.C,C67*%
X150340704Y-56007713D03*
X152065704Y-56007713D03*
%TD*%
D14*
%TO.C,TP60*%
X132846271Y-83975962D03*
%TD*%
D50*
%TO.C,C68*%
X173555204Y-58556212D03*
X173555204Y-56831212D03*
%TD*%
D62*
%TO.C,C13*%
X245175877Y-96576020D03*
D34*
X245175877Y-91576020D03*
%TD*%
D50*
%TO.C,C22*%
X66562739Y-102133532D03*
X66562739Y-100408532D03*
%TD*%
D52*
%TO.C,TP43*%
X31144916Y-93091000D03*
%TD*%
D41*
%TO.C,R17*%
X244348000Y-67159500D03*
X244348000Y-68984500D03*
%TD*%
D24*
%TO.C,C72*%
X215858840Y-59996124D03*
X214133840Y-59996124D03*
%TD*%
D15*
%TO.C,R9*%
X64409238Y-102206432D03*
X64409238Y-100381432D03*
%TD*%
D20*
%TO.C,R71*%
X145901504Y-90393576D03*
X147726504Y-90393576D03*
%TD*%
D11*
%TO.C,R24*%
X172440082Y-86588061D03*
X170615082Y-86588061D03*
%TD*%
D14*
%TO.C,TP68*%
X120549060Y-105349405D03*
%TD*%
D61*
%TO.C,D17*%
X129927192Y-105730500D03*
X129927192Y-103855500D03*
%TD*%
D20*
%TO.C,R54*%
X101754072Y-77513617D03*
X103579072Y-77513617D03*
%TD*%
D14*
%TO.C,TP65*%
X126270418Y-93859798D03*
%TD*%
D51*
%TO.C,C18*%
X73777439Y-79885332D03*
X75502439Y-79885332D03*
%TD*%
D15*
%TO.C,R45*%
X92202000Y-98702500D03*
X92202000Y-96877500D03*
%TD*%
D27*
%TO.C,TP49*%
X216848501Y-102602892D03*
%TD*%
D50*
%TO.C,C21*%
X61025539Y-102029732D03*
X61025539Y-100304732D03*
%TD*%
D68*
%TO.C,C79*%
X207122340Y-59996124D03*
X207122340Y-62071124D03*
%TD*%
D72*
%TO.C,U4*%
X122338795Y-94758478D03*
X122338795Y-93488478D03*
X122338795Y-92218478D03*
X122338795Y-90948478D03*
X122338795Y-89678478D03*
X122338795Y-88408478D03*
X122338795Y-87138478D03*
X117388795Y-87138478D03*
X117388795Y-88408478D03*
X117388795Y-89678478D03*
X117388795Y-90948478D03*
X117388795Y-92218478D03*
X117388795Y-93488478D03*
X117388795Y-94758478D03*
%TD*%
%TO.C,U16*%
X112137827Y-90190536D03*
X112137827Y-88920536D03*
X112137827Y-87650536D03*
X112137827Y-86380536D03*
X107187827Y-86380536D03*
X107187827Y-87650536D03*
X107187827Y-88920536D03*
X107187827Y-90190536D03*
%TD*%
D11*
%TO.C,R52*%
X81802887Y-94929551D03*
X79977887Y-94929551D03*
%TD*%
D41*
%TO.C,R11*%
X263971877Y-93651020D03*
X263971877Y-95476020D03*
%TD*%
D79*
%TO.C,Q1*%
X266207077Y-76141020D03*
D80*
X263667077Y-86141020D03*
X268747077Y-86141020D03*
%TD*%
D19*
%TO.C,R59*%
X52880327Y-53563286D03*
X52880327Y-51563286D03*
%TD*%
D20*
%TO.C,R102*%
X134472166Y-93381916D03*
X136297166Y-93381916D03*
%TD*%
%TO.C,R81*%
X129428432Y-81203375D03*
X131253432Y-81203375D03*
%TD*%
D19*
%TO.C,R74*%
X262143077Y-61793520D03*
X262143077Y-59793520D03*
%TD*%
D50*
%TO.C,C45*%
X104680698Y-73313824D03*
X104680698Y-71588824D03*
%TD*%
D31*
%TO.C,C10*%
X242127877Y-79203520D03*
X242127877Y-80928520D03*
%TD*%
D16*
%TO.C,TP16*%
X92234698Y-71308324D03*
%TD*%
D51*
%TO.C,C48*%
X167259000Y-84836000D03*
X168984000Y-84836000D03*
%TD*%
D16*
%TO.C,TP7*%
X208265340Y-75154447D03*
%TD*%
D41*
%TO.C,R89*%
X111633000Y-73763500D03*
X111633000Y-75588500D03*
%TD*%
D16*
%TO.C,TP9*%
X213345340Y-75154447D03*
%TD*%
%TO.C,TP18*%
X94168649Y-62119638D03*
%TD*%
D81*
%TO.C,U10*%
X63040327Y-59486286D03*
X61770327Y-59486286D03*
X60500327Y-59486286D03*
X59230327Y-59486286D03*
X59230327Y-64436286D03*
X60500327Y-64436286D03*
X61770327Y-64436286D03*
X63040327Y-64436286D03*
%TD*%
D82*
%TO.C,D12*%
X114366331Y-96959947D03*
X111066331Y-96959947D03*
%TD*%
D24*
%TO.C,C8*%
X242228377Y-76256020D03*
X240503377Y-76256020D03*
%TD*%
D41*
%TO.C,R65*%
X142821200Y-81108591D03*
X142821200Y-82933591D03*
%TD*%
D83*
%TO.C,R28*%
X170380204Y-51359712D03*
X170380204Y-53359712D03*
%TD*%
D52*
%TO.C,TP34*%
X79001726Y-106567767D03*
%TD*%
D16*
%TO.C,TP23*%
X106475349Y-62195838D03*
%TD*%
%TO.C,TP32*%
X186309000Y-52959000D03*
%TD*%
D46*
%TO.C,C35*%
X67061538Y-104492432D03*
X67061538Y-105627432D03*
%TD*%
D14*
%TO.C,TP69*%
X143690395Y-92257000D03*
%TD*%
D19*
%TO.C,R56*%
X50255770Y-55434177D03*
X50255770Y-53434177D03*
%TD*%
D62*
%TO.C,C80*%
X201451446Y-57914787D03*
D34*
X201451446Y-52914787D03*
%TD*%
D15*
%TO.C,R16*%
X84249327Y-58047786D03*
X84249327Y-56222786D03*
%TD*%
D16*
%TO.C,TP8*%
X218425340Y-75154447D03*
%TD*%
D61*
%TO.C,D14*%
X114468932Y-109320646D03*
X114468932Y-107445646D03*
%TD*%
D11*
%TO.C,R26*%
X175649759Y-84326062D03*
X173824759Y-84326062D03*
%TD*%
D16*
%TO.C,TP3*%
X92329000Y-78613000D03*
%TD*%
D20*
%TO.C,R43*%
X90391887Y-101279551D03*
X92216887Y-101279551D03*
%TD*%
D24*
%TO.C,C47*%
X162849759Y-88898062D03*
X161124759Y-88898062D03*
%TD*%
D16*
%TO.C,TP54*%
X85523648Y-67109924D03*
%TD*%
D30*
%TO.C,Q7*%
X143428651Y-86081634D03*
X145328651Y-86081634D03*
X144378651Y-83806634D03*
%TD*%
D23*
%TO.C,C73*%
X154737704Y-51367713D03*
X156812704Y-51367713D03*
%TD*%
D50*
%TO.C,C33*%
X53848000Y-74903500D03*
X53848000Y-73178500D03*
%TD*%
D15*
%TO.C,R108*%
X111883121Y-105305044D03*
X111883121Y-103480044D03*
%TD*%
D68*
%TO.C,C75*%
X209408340Y-59974624D03*
X209408340Y-62049624D03*
%TD*%
D25*
%TO.C,U1*%
X40318327Y-55489286D03*
X40318327Y-56439286D03*
X40318327Y-57389286D03*
X42593327Y-57389286D03*
X42593327Y-55489286D03*
%TD*%
D68*
%TO.C,C56*%
X157460881Y-73698213D03*
X157460881Y-75773213D03*
%TD*%
D47*
%TO.C,L4*%
X181683204Y-67877713D03*
X181683204Y-59377713D03*
%TD*%
D16*
%TO.C,TP51*%
X262515466Y-55951520D03*
%TD*%
M02*
