%TF.GenerationSoftware,KiCad,Pcbnew,9.0.7*%
%TF.CreationDate,2026-02-10T04:26:10-08:00*%
%TF.ProjectId,VCU_v2,5643555f-7632-42e6-9b69-6361645f7063,rev?*%
%TF.SameCoordinates,Original*%
%TF.FileFunction,Copper,L4,Inr*%
%TF.FilePolarity,Positive*%
%FSLAX46Y46*%
G04 Gerber Fmt 4.6, Leading zero omitted, Abs format (unit mm)*
G04 Created by KiCad (PCBNEW 9.0.7) date 2026-02-10 04:26:10*
%MOMM*%
%LPD*%
G01*
G04 APERTURE LIST*
G04 Aperture macros list*
%AMRoundRect*
0 Rectangle with rounded corners*
0 $1 Rounding radius*
0 $2 $3 $4 $5 $6 $7 $8 $9 X,Y pos of 4 corners*
0 Add a 4 corners polygon primitive as box body*
4,1,4,$2,$3,$4,$5,$6,$7,$8,$9,$2,$3,0*
0 Add four circle primitives for the rounded corners*
1,1,$1+$1,$2,$3*
1,1,$1+$1,$4,$5*
1,1,$1+$1,$6,$7*
1,1,$1+$1,$8,$9*
0 Add four rect primitives between the rounded corners*
20,1,$1+$1,$2,$3,$4,$5,0*
20,1,$1+$1,$4,$5,$6,$7,0*
20,1,$1+$1,$6,$7,$8,$9,0*
20,1,$1+$1,$8,$9,$2,$3,0*%
G04 Aperture macros list end*
%TA.AperFunction,ComponentPad*%
%ADD10C,3.600000*%
%TD*%
%TA.AperFunction,ComponentPad*%
%ADD11RoundRect,0.250000X0.750000X0.750000X-0.750000X0.750000X-0.750000X-0.750000X0.750000X-0.750000X0*%
%TD*%
%TA.AperFunction,ComponentPad*%
%ADD12C,2.000000*%
%TD*%
%TA.AperFunction,ComponentPad*%
%ADD13C,2.108200*%
%TD*%
%TA.AperFunction,ComponentPad*%
%ADD14RoundRect,0.250000X-0.550000X-0.550000X0.550000X-0.550000X0.550000X0.550000X-0.550000X0.550000X0*%
%TD*%
%TA.AperFunction,ComponentPad*%
%ADD15C,1.600000*%
%TD*%
%TA.AperFunction,ComponentPad*%
%ADD16RoundRect,0.250000X-0.550000X0.550000X-0.550000X-0.550000X0.550000X-0.550000X0.550000X0.550000X0*%
%TD*%
%TA.AperFunction,ComponentPad*%
%ADD17R,1.700000X1.700000*%
%TD*%
%TA.AperFunction,ComponentPad*%
%ADD18C,1.700000*%
%TD*%
%TA.AperFunction,ComponentPad*%
%ADD19C,1.574800*%
%TD*%
%TA.AperFunction,ComponentPad*%
%ADD20RoundRect,0.250000X-0.750000X-0.750000X0.750000X-0.750000X0.750000X0.750000X-0.750000X0.750000X0*%
%TD*%
%TA.AperFunction,ComponentPad*%
%ADD21RoundRect,0.250000X0.750000X-0.750000X0.750000X0.750000X-0.750000X0.750000X-0.750000X-0.750000X0*%
%TD*%
%TA.AperFunction,ComponentPad*%
%ADD22RoundRect,0.250000X-0.750000X0.750000X-0.750000X-0.750000X0.750000X-0.750000X0.750000X0.750000X0*%
%TD*%
%TA.AperFunction,ViaPad*%
%ADD23C,0.609600*%
%TD*%
%TA.AperFunction,Conductor*%
%ADD24C,0.152400*%
%TD*%
%TA.AperFunction,Conductor*%
%ADD25C,0.203200*%
%TD*%
G04 APERTURE END LIST*
D10*
%TO.N,unconnected-(H1-Pad1)*%
%TO.C,H1*%
X274320000Y-53340000D03*
%TD*%
D11*
%TO.N,+12V*%
%TO.C,C65*%
X171858881Y-63813713D03*
D12*
%TO.N,GND*%
X166858881Y-63813713D03*
%TD*%
D13*
%TO.N,/Connector-Root/GEN_BTN1+*%
%TO.C,U19*%
X258129524Y-43767362D03*
%TO.N,/Connector-Root/GEN_BTN2+*%
X252287524Y-43767362D03*
%TO.N,/Connector-Root/Vin+*%
X246445524Y-43767362D03*
%TO.N,/STM32-Root/STM32H723ZGT6/PG3*%
X240603524Y-43767362D03*
%TO.N,/Connector-Root/BRAKE_LIGHT*%
X234761524Y-43767362D03*
%TO.N,/Connector-Root/BSPD_FAULT+*%
X228919524Y-43767362D03*
%TO.N,/Connector-Root/IMD_FAULT+*%
X223077524Y-43767362D03*
%TO.N,/Connector-Root/BMS_FAULT+*%
X217235524Y-43767362D03*
%TO.N,/Connector-Root/GEN_BTN1-*%
X258129524Y-37925362D03*
%TO.N,/Connector-Root/GEN_BTN2-*%
X252287524Y-37925362D03*
%TO.N,GND*%
X246445524Y-37925362D03*
%TO.N,/STM32-Root/STM32H723ZGT6/PA1*%
X240603524Y-37925362D03*
%TO.N,/STM32-Root/STM32H723ZGT6/PA0*%
X234761524Y-37925362D03*
%TO.N,GND*%
X228919524Y-37925362D03*
%TO.N,/Connector-Root/IMD_FAULT-*%
X223077524Y-37925362D03*
%TO.N,/Connector-Root/BMS_FAULT-*%
X217235524Y-37925362D03*
%TD*%
D14*
%TO.N,+5V*%
%TO.C,C11*%
X233801877Y-94036020D03*
D15*
%TO.N,GND*%
X237301877Y-94036020D03*
%TD*%
D16*
%TO.N,+12V*%
%TO.C,C2*%
X256605877Y-83493369D03*
D15*
%TO.N,GND*%
X256605877Y-86993369D03*
%TD*%
D17*
%TO.N,unconnected-(JP3-A-Pad1)*%
%TO.C,JP3*%
X102362000Y-60960000D03*
D18*
%TO.N,Net-(JP3-C)*%
X102362000Y-63500000D03*
%TO.N,/CAN2_N*%
X102362000Y-66040000D03*
%TD*%
D19*
%TO.N,/Connector-Root/Vin+*%
%TO.C,J2*%
X246515476Y-108306700D03*
%TO.N,/CAN2_P*%
X243515477Y-108306700D03*
%TO.N,/CAN2_N*%
X240515478Y-108306700D03*
%TO.N,GND*%
X246515476Y-105306701D03*
%TO.N,/CAN1_P*%
X243515477Y-105306701D03*
%TO.N,/CAN1_N*%
X240515478Y-105306701D03*
%TD*%
D20*
%TO.N,+12V*%
%TO.C,C66*%
X156270881Y-63813713D03*
D12*
%TO.N,GND*%
X161270881Y-63813713D03*
%TD*%
D17*
%TO.N,unconnected-(JP4-A-Pad1)*%
%TO.C,JP4*%
X108705000Y-73031000D03*
D18*
%TO.N,Net-(JP4-C)*%
X108705000Y-75571000D03*
%TO.N,/CAN1_P*%
X108705000Y-78111000D03*
%TD*%
D17*
%TO.N,+3.3V*%
%TO.C,JP1*%
X29437393Y-63644027D03*
D18*
%TO.N,Net-(JP1-C)*%
X31977393Y-63644027D03*
%TO.N,GND*%
X34517393Y-63644027D03*
%TD*%
D17*
%TO.N,+3.3V*%
%TO.C,J1*%
X29395343Y-68252197D03*
D18*
%TO.N,/STM32-Root/STM32H723ZGT6/PA14*%
X31935343Y-68252197D03*
%TO.N,GND*%
X34475343Y-68252197D03*
%TO.N,/STM32-Root/STM32H723ZGT6/PA13*%
X37015343Y-68252197D03*
%TD*%
D21*
%TO.N,+3.3V*%
%TO.C,C53*%
X227315340Y-59742124D03*
D12*
%TO.N,GND*%
X227315340Y-54742124D03*
%TD*%
D13*
%TO.N,/STM32-Root/STM32H723ZGT6/PG2*%
%TO.C,U18*%
X173674524Y-43767362D03*
%TO.N,/BSPD-Logic/Isense-thresh*%
X167832524Y-43767362D03*
%TO.N,/BSPD-Logic/Isense-active*%
X161990524Y-43767362D03*
%TO.N,/BSPD-FAULT*%
X156148524Y-43767362D03*
%TO.N,/Connector-Root/IMD-FAULT*%
X150306524Y-43767362D03*
%TO.N,/Connector-Root/BMS-FAULT*%
X144464524Y-43767362D03*
%TO.N,/Connector-Root/SPEAKER-*%
X138622524Y-43767362D03*
%TO.N,/Connector-Root/SPEAKER+*%
X132780524Y-43767362D03*
%TO.N,/STM32-Root/STM32H723ZGT6/PA2*%
X173674524Y-37925362D03*
%TO.N,/CAN2_N*%
X167832524Y-37925362D03*
%TO.N,/CAN2_P*%
X161990524Y-37925362D03*
%TO.N,/STM32-Root/STM32H723ZGT6/PG8*%
X156148524Y-37925362D03*
%TO.N,/STM32-Root/STM32H723ZGT6/PG7*%
X150306524Y-37925362D03*
%TO.N,/STM32-Root/STM32H723ZGT6/PG6*%
X144464524Y-37925362D03*
%TO.N,/STM32-Root/STM32H723ZGT6/PE10*%
X138622524Y-37925362D03*
%TO.N,/STM32-Root/STM32H723ZGT6/PE11*%
X132780524Y-37925362D03*
%TD*%
D11*
%TO.N,+3.3V*%
%TO.C,C76*%
X198012660Y-65352753D03*
D12*
%TO.N,GND*%
X193012660Y-65352753D03*
%TD*%
D10*
%TO.N,unconnected-(H2-Pad1)_1*%
%TO.C,H2*%
X31002724Y-53340000D03*
%TD*%
%TO.N,unconnected-(H3-Pad1)_1*%
%TO.C,H3*%
X274320000Y-114300000D03*
%TD*%
D22*
%TO.N,Net-(U14-LDOO)*%
%TO.C,C61*%
X227169966Y-65385949D03*
D12*
%TO.N,GND*%
X227169966Y-70385949D03*
%TD*%
D13*
%TO.N,/Connector-Root/APPS1-SIG*%
%TO.C,U17*%
X89244924Y-43767362D03*
%TO.N,/Connector-Root/APPS2-SIG*%
X83402924Y-43767362D03*
%TO.N,/BSE-SIG*%
X77560924Y-43767362D03*
%TO.N,+4.8V*%
X71718924Y-43767362D03*
X65876924Y-43767362D03*
X60034924Y-43767362D03*
%TO.N,/Connector-Root/RTD_BTN-*%
X54192924Y-43767362D03*
%TO.N,/Connector-Root/RTD_BTN+*%
X48350924Y-43767362D03*
%TO.N,GND*%
X89244924Y-37925362D03*
X83402924Y-37925362D03*
X77560924Y-37925362D03*
%TO.N,/CAN1_P*%
X71718924Y-37925362D03*
%TO.N,/CAN1_N*%
X65876924Y-37925362D03*
%TO.N,/STM32-Root/STM32H723ZGT6/PB15*%
X60034924Y-37925362D03*
%TO.N,/Connector-Root/PRECHARGE_BTN+*%
X54192924Y-37925362D03*
%TO.N,/Connector-Root/PRECHARGE_BTN-*%
X48350924Y-37925362D03*
%TD*%
D10*
%TO.N,unconnected-(H4-Pad1)_2*%
%TO.C,H4*%
X31002724Y-114300000D03*
%TD*%
D21*
%TO.N,+5V*%
%TO.C,C13*%
X245175877Y-96576020D03*
D12*
%TO.N,GND*%
X245175877Y-91576020D03*
%TD*%
D21*
%TO.N,+3.3V*%
%TO.C,C80*%
X201451446Y-57914787D03*
D12*
%TO.N,GND*%
X201451446Y-52914787D03*
%TD*%
D23*
%TO.N,/STM32-Root/STM32H723ZGT6/VBAT*%
X58166000Y-94869000D03*
X82931000Y-113538000D03*
%TO.N,GND*%
X30480000Y-74676000D03*
X45879629Y-94996000D03*
X160020000Y-75692000D03*
X273812000Y-64135000D03*
X89154000Y-54610000D03*
X79883000Y-61722000D03*
X108381800Y-93395800D03*
X164592000Y-77724000D03*
X68072000Y-105664000D03*
X67564000Y-96393000D03*
X87630000Y-97790000D03*
X50546000Y-73406000D03*
X46990000Y-88900000D03*
X214376000Y-65532000D03*
X166370000Y-75692000D03*
X86614000Y-102362000D03*
X125730000Y-82804000D03*
X136398000Y-99060000D03*
X70104000Y-84455000D03*
X154051000Y-87630000D03*
X164211000Y-88900000D03*
X160528000Y-76962000D03*
X100330000Y-77470000D03*
X215392000Y-66040000D03*
X38862000Y-74676000D03*
X168402000Y-78994000D03*
X169545000Y-78994000D03*
X240157730Y-92409908D03*
X45593000Y-96774000D03*
X241173730Y-91393908D03*
X250825730Y-87329908D03*
X42316114Y-113050313D03*
X102641400Y-90271600D03*
X265455400Y-102565200D03*
X64897000Y-61214000D03*
X173736000Y-86614000D03*
X171450000Y-77114400D03*
X244475730Y-83011908D03*
X95377000Y-72644000D03*
X153924000Y-54102000D03*
X207391000Y-99695000D03*
X253873730Y-87329908D03*
X215392000Y-67056000D03*
X163830000Y-75692000D03*
X239141730Y-91393908D03*
X216916000Y-99695000D03*
X249301730Y-91393908D03*
X252349730Y-87329908D03*
X242951000Y-62992000D03*
X167640000Y-78994000D03*
X77470000Y-76011362D03*
X214376000Y-64516000D03*
X243459730Y-83011908D03*
X166878000Y-76708000D03*
X43688000Y-93472000D03*
X168148000Y-57404000D03*
X87630000Y-95250000D03*
X238125730Y-92409908D03*
X65786000Y-75311000D03*
X168402000Y-76708000D03*
X108458000Y-53086000D03*
X110490000Y-86334600D03*
X79756000Y-54610000D03*
X73660000Y-106680000D03*
X247269730Y-90123908D03*
X57531000Y-57023000D03*
X265430000Y-99212400D03*
X59055000Y-114173000D03*
X161290000Y-75692000D03*
X85598000Y-64897000D03*
X124206000Y-97028000D03*
X162814000Y-78232000D03*
X259588000Y-65786000D03*
X157480000Y-77089000D03*
X111252000Y-110998000D03*
X160020000Y-78994000D03*
X50292000Y-56769000D03*
X212217000Y-99695000D03*
X268300200Y-102006400D03*
X215392000Y-64008000D03*
X60960000Y-103378000D03*
X59182000Y-61087000D03*
X123952000Y-87122000D03*
X168910000Y-75692000D03*
X96012000Y-83820000D03*
X275336000Y-89916000D03*
X72136000Y-103632000D03*
X167640000Y-77724000D03*
X264007600Y-96774000D03*
X165100000Y-75692000D03*
X66802000Y-114173000D03*
X254381730Y-88853908D03*
X249301730Y-87329908D03*
X166116000Y-77724000D03*
X165608000Y-78994000D03*
X161290000Y-78232000D03*
X84074000Y-102362000D03*
X245491730Y-87075908D03*
X155194000Y-77216000D03*
X53975000Y-89408000D03*
X173990000Y-60198000D03*
X117858415Y-81533000D03*
X162560000Y-75692000D03*
X162052000Y-76962000D03*
X215392000Y-65024000D03*
X164592000Y-78994000D03*
X39370000Y-62357000D03*
X248285730Y-88853908D03*
X38608000Y-56388000D03*
X126746000Y-107188000D03*
X266192000Y-56007000D03*
X252857730Y-88853908D03*
X78867000Y-60198000D03*
X202565000Y-99695000D03*
X67183000Y-103124000D03*
X129794000Y-107188000D03*
X69215000Y-55372000D03*
X70104000Y-95885000D03*
X243459730Y-87075908D03*
X240411000Y-63119000D03*
X66625632Y-73356632D03*
X163576000Y-76962000D03*
X50165000Y-66421000D03*
X68834000Y-103251000D03*
X70104000Y-103378000D03*
X75565000Y-94107000D03*
X245491730Y-83011908D03*
X39878000Y-54102000D03*
X146812000Y-86106000D03*
X102489000Y-70231000D03*
X172212000Y-57150000D03*
X214376000Y-66548000D03*
X170116500Y-82994500D03*
X38862000Y-85598000D03*
X148336000Y-86360000D03*
X93980000Y-88900000D03*
X54102000Y-103378000D03*
X116840000Y-99568000D03*
X250317730Y-90123908D03*
X118872000Y-84836000D03*
X75946000Y-82804000D03*
X153924000Y-56134000D03*
X46863000Y-72771000D03*
X79756000Y-52832000D03*
X158242000Y-52070000D03*
X73660000Y-110744000D03*
X77216000Y-89662000D03*
X30480000Y-85598000D03*
X251333730Y-88853908D03*
X131318000Y-86614000D03*
X173710600Y-77139800D03*
X59182000Y-62738000D03*
X165354000Y-76708000D03*
X75438000Y-77216000D03*
X177292000Y-82550000D03*
X130302000Y-93472000D03*
X94361000Y-87630000D03*
X167640000Y-75692000D03*
X76962000Y-84328000D03*
X60071000Y-96520000D03*
X59630329Y-72703671D03*
X52978739Y-74168000D03*
X249809730Y-88853908D03*
X112268000Y-54356000D03*
X184785000Y-105791000D03*
X86233000Y-58039000D03*
X247777730Y-91393908D03*
X244475730Y-87075908D03*
X70231000Y-89408000D03*
X99314000Y-85852000D03*
X34925000Y-77978000D03*
X57658000Y-103378000D03*
X58928000Y-106680000D03*
X106045000Y-71628000D03*
X248793730Y-90123908D03*
X166624000Y-78994000D03*
X66929000Y-60198000D03*
X237109730Y-91393908D03*
X164211000Y-87122000D03*
X86868000Y-91694000D03*
X197866000Y-99695000D03*
X101600000Y-56134000D03*
X78486000Y-66929000D03*
X90424000Y-99822000D03*
X54940200Y-73406000D03*
X135890000Y-82804000D03*
X170180000Y-84836000D03*
X66469327Y-61087000D03*
X57383566Y-73406000D03*
X77537724Y-72711724D03*
X48895000Y-83566000D03*
X46904239Y-86020239D03*
X56388000Y-99822000D03*
X177393600Y-84353400D03*
X114554000Y-110998000D03*
X76885800Y-79857600D03*
X215392000Y-62992000D03*
X203581000Y-70002400D03*
%TO.N,+5V*%
X249555730Y-97235908D03*
X248285730Y-97235908D03*
X75184000Y-61722000D03*
X81026000Y-80611362D03*
X248793730Y-96219908D03*
X249555730Y-95203908D03*
X250063730Y-96219908D03*
X248285730Y-95203908D03*
X67945000Y-63246000D03*
X105537000Y-58801000D03*
X42672000Y-61087000D03*
X41402000Y-58674000D03*
X89154000Y-67945000D03*
X247523730Y-96219908D03*
X247015730Y-97235908D03*
X247015730Y-95203908D03*
X82296000Y-80518000D03*
%TO.N,+3.3V*%
X221488000Y-60452000D03*
X148844000Y-75692000D03*
X189484000Y-77724000D03*
X50673000Y-75184000D03*
X57383566Y-75057000D03*
X202184000Y-60452000D03*
X44196000Y-56337200D03*
X112014000Y-56134000D03*
X191516000Y-74676000D03*
X73761600Y-77190600D03*
X189484000Y-71628000D03*
X188468000Y-76200000D03*
X83566000Y-75946000D03*
X149860000Y-74168000D03*
X194564000Y-73152000D03*
X48641000Y-94107000D03*
X82296000Y-77216000D03*
X82296000Y-78486000D03*
X264668000Y-63500000D03*
X149860000Y-71120000D03*
X42672000Y-81491932D03*
X67284600Y-75311000D03*
X81026000Y-78486000D03*
X80518000Y-73914000D03*
X74549000Y-83185000D03*
X193548000Y-74676000D03*
X219964000Y-64008000D03*
X143764000Y-71120000D03*
X48641000Y-86106000D03*
X48641000Y-97790000D03*
X187452000Y-74676000D03*
X67437000Y-101219000D03*
X210820000Y-68072000D03*
X74041000Y-90932000D03*
X100203000Y-75057000D03*
X187452000Y-71628000D03*
X146812000Y-72644000D03*
X187452000Y-77724000D03*
X144780000Y-75692000D03*
X272796000Y-60452000D03*
X205232000Y-59944000D03*
X78740000Y-94996000D03*
X252984000Y-61976000D03*
X95123000Y-78613000D03*
X71374000Y-100457000D03*
X143764000Y-77216000D03*
X82296000Y-75946000D03*
X29464000Y-61341000D03*
X81026000Y-75946000D03*
X55118000Y-55245000D03*
X48641000Y-88773000D03*
X191516000Y-77724000D03*
X73787000Y-94234000D03*
X62230000Y-100330000D03*
X144780000Y-72644000D03*
X78740000Y-97028000D03*
X81026000Y-77216000D03*
X193548000Y-71628000D03*
X147828000Y-77216000D03*
X145796000Y-77216000D03*
X44196000Y-53467000D03*
X192532000Y-73152000D03*
X190500000Y-76200000D03*
X146812000Y-75692000D03*
X267716000Y-59944000D03*
X147828000Y-71120000D03*
X189484000Y-74676000D03*
X83566000Y-78486000D03*
X191516000Y-71628000D03*
X148844000Y-72644000D03*
X145796000Y-74168000D03*
X188468000Y-73152000D03*
X145796000Y-71120000D03*
X211328000Y-59944000D03*
X143764000Y-74168000D03*
X192532000Y-76200000D03*
X83566000Y-77216000D03*
X150876000Y-75692000D03*
X83312000Y-85852000D03*
X150876000Y-72644000D03*
X51460400Y-56591200D03*
X147828000Y-74168000D03*
X29464000Y-70612000D03*
X190500000Y-73152000D03*
%TO.N,/STM32-Root/STM32H723ZGT6/PF14*%
X58166000Y-69342000D03*
X67564000Y-86360000D03*
%TO.N,/STM32-Root/STM32H723ZGT6/PF15*%
X66992500Y-84772500D03*
X54991000Y-67310000D03*
%TO.N,/STM32-Root/STM32H723ZGT6/PG0*%
X76835000Y-87503000D03*
X251841000Y-68453000D03*
%TO.N,/STM32-Root/STM32H723ZGT6/PG1*%
X77597000Y-86868000D03*
X252603000Y-66421000D03*
%TO.N,/STM32-Root/STM32H723ZGT6/PA14*%
X37087597Y-78359000D03*
%TO.N,/STM32-Root/STM32H723ZGT6/PA0*%
X69596000Y-94488000D03*
%TO.N,/STM32-Root/STM32H723ZGT6/PG2*%
X62992000Y-73152000D03*
%TO.N,/STM32-Root/STM32H723ZGT6/PD1*%
X88646000Y-71374000D03*
X56388000Y-81915000D03*
%TO.N,/STM32-Root/STM32H723ZGT6/PG3*%
X99568000Y-69469000D03*
X64008000Y-78486000D03*
%TO.N,/STM32-Root/STM32H723ZGT6/PA1*%
X70104000Y-96774000D03*
%TO.N,/STM32-Root/STM32H723ZGT6/PD0*%
X88646000Y-75311000D03*
X57912000Y-81280000D03*
%TO.N,/STM32-Root/STM32H723ZGT6/PC11*%
X47117000Y-82991931D03*
X48006000Y-80374332D03*
%TO.N,/STM32-Root/STM32H723ZGT6/PC1*%
X182346600Y-89077800D03*
X65419939Y-94589600D03*
%TO.N,/STM32-Root/STM32H723ZGT6/PC10*%
X48895000Y-79874332D03*
X45847000Y-83550731D03*
%TO.N,/STM32-Root/STM32H723ZGT6/PB12*%
X70167500Y-75275764D03*
X134416800Y-79349600D03*
X179679600Y-90297000D03*
%TO.N,/STM32-Root/STM32H723ZGT6/PG8*%
X61595000Y-78613000D03*
%TO.N,/STM32-Root/STM32H723ZGT6/PB15*%
X57150000Y-40810286D03*
X68072000Y-73660000D03*
%TO.N,/STM32-Root/STM32H723ZGT6/PE10*%
X75438000Y-81915000D03*
%TO.N,/STM32-Root/STM32H723ZGT6/PE9*%
X79756000Y-86233000D03*
X79121000Y-84455000D03*
%TO.N,/STM32-Root/STM32H723ZGT6/PG7*%
X60960000Y-74549000D03*
%TO.N,/STM32-Root/STM32H723ZGT6/PB6*%
X52070000Y-92491932D03*
X95377000Y-56007000D03*
%TO.N,/STM32-Root/STM32H723ZGT6/PA2*%
X74485500Y-98361500D03*
%TO.N,/STM32-Root/STM32H723ZGT6/PB5*%
X52959000Y-91933132D03*
X95427800Y-56769000D03*
%TO.N,/STM32-Root/STM32H723ZGT6/PE11*%
X74676000Y-81280000D03*
%TO.N,/STM32-Root/STM32H723ZGT6/PB10*%
X73507600Y-81229200D03*
X194691000Y-78232000D03*
%TO.N,/STM32-Root/STM32H723ZGT6/PG6*%
X62051786Y-72719786D03*
%TO.N,Net-(JP1-C)*%
X45847000Y-92329000D03*
%TO.N,/BSPD-FAULT*%
X121412000Y-77470000D03*
X106001383Y-77513617D03*
%TO.N,/Connector-Root/BSPD_FAULT+*%
X91567000Y-82550000D03*
%TO.N,/Connector-Root/BMS-FAULT*%
X93726000Y-91948000D03*
X233680000Y-64135000D03*
X232600500Y-62039500D03*
%TO.N,/Connector-Root/BRAKE_LIGHT*%
X90805000Y-109220000D03*
%TO.N,/Connector-Root/IMD-FAULT*%
X98298000Y-92710000D03*
%TO.N,/Connector-Root/PRECHARGE_BTN+*%
X55245000Y-49657000D03*
%TO.N,/Connector-Root/PRECHARGE_BTN-*%
X52832000Y-49530000D03*
%TO.N,/Connector-Root/RTD_BTN+*%
X52324000Y-58674000D03*
%TO.N,/Connector-Root/RTD_BTN-*%
X54737000Y-58547000D03*
%TO.N,+12V*%
X85598000Y-82550000D03*
X271602200Y-94538800D03*
X158242000Y-84709000D03*
X271602200Y-89966800D03*
X119126000Y-83312000D03*
X111125000Y-95250000D03*
X136398000Y-94996000D03*
X270586200Y-86156800D03*
X271602200Y-86918800D03*
X106680000Y-93599000D03*
X159258000Y-89281000D03*
X240157000Y-57150000D03*
X184531000Y-73533000D03*
X99441000Y-88011000D03*
X270586200Y-87680800D03*
X159766000Y-87122000D03*
X140233400Y-90652600D03*
X158305500Y-82359500D03*
X137414000Y-89662000D03*
X118110000Y-96012000D03*
X115570000Y-100457000D03*
X119888000Y-100076000D03*
X247396000Y-56803765D03*
X270586200Y-93776800D03*
X239268000Y-69215000D03*
X270586200Y-92252800D03*
X130810000Y-82550000D03*
X270586200Y-89204800D03*
X237744000Y-69342000D03*
X270586200Y-90728800D03*
X145796000Y-82550000D03*
X271602200Y-91490800D03*
X271602200Y-93014800D03*
X156260800Y-56159400D03*
X149479000Y-83058000D03*
X271602200Y-88442800D03*
X104394000Y-82550000D03*
X124714000Y-91694000D03*
X155168600Y-72237600D03*
X270586200Y-84632800D03*
X271602200Y-85394800D03*
%TO.N,/Connector-Root/Vin+*%
X262382000Y-69342000D03*
X268986000Y-69342000D03*
X270002000Y-70612000D03*
X267208000Y-69342000D03*
X263906000Y-69342000D03*
X265430000Y-69342000D03*
X263144000Y-70612000D03*
X266446000Y-70612000D03*
X264922000Y-70612000D03*
X268224000Y-70612000D03*
%TO.N,Net-(R102-Pad1)*%
X122555000Y-105283000D03*
X134366000Y-95250000D03*
%TO.N,/BSPD-Logic/Isense-thresh*%
X119380000Y-88138000D03*
%TO.N,/BSPD-Logic/Isense-active*%
X120142000Y-87122000D03*
%TO.N,/CAN1_P*%
X99377500Y-71564500D03*
X92456000Y-60071000D03*
%TO.N,/CAN1_N*%
X242570000Y-103124000D03*
X92710000Y-66802000D03*
X100203000Y-73848324D03*
%TO.N,/Connector-Root/BMS_FAULT-*%
X238633000Y-59817000D03*
%TO.N,/Connector-Root/IMD_FAULT-*%
X239050258Y-57912000D03*
%TD*%
D24*
%TO.N,/STM32-Root/STM32H723ZGT6/PF14*%
X61747733Y-73634267D02*
X67564000Y-79450534D01*
X58166000Y-70052534D02*
X61747733Y-73634267D01*
X58166000Y-69342000D02*
X58166000Y-70052534D01*
X67564000Y-79450534D02*
X67564000Y-86360000D01*
%TO.N,/STM32-Root/STM32H723ZGT6/PF15*%
X66992500Y-84772500D02*
X66537539Y-84317539D01*
X66537539Y-84317539D02*
X66537539Y-78856539D01*
X66537539Y-78856539D02*
X54991000Y-67310000D01*
D25*
%TO.N,/STM32-Root/STM32H723ZGT6/PA0*%
X70536800Y-93547200D02*
X104572800Y-93547200D01*
X194361800Y-80593200D02*
X234761524Y-40193476D01*
X104572800Y-93547200D02*
X117526800Y-80593200D01*
X69596000Y-94488000D02*
X70536800Y-93547200D01*
X234761524Y-40193476D02*
X234761524Y-37925362D01*
X117526800Y-80593200D02*
X194361800Y-80593200D01*
%TO.N,/STM32-Root/STM32H723ZGT6/PG2*%
X173674524Y-43767362D02*
X155046886Y-62395000D01*
X155046886Y-62395000D02*
X73749000Y-62395000D01*
X73749000Y-62395000D02*
X62992000Y-73152000D01*
%TO.N,/STM32-Root/STM32H723ZGT6/PA1*%
X76559877Y-93903800D02*
X105198831Y-93903800D01*
X193824123Y-81765877D02*
X235077000Y-40513000D01*
X73689677Y-96774000D02*
X76559877Y-93903800D01*
X238015886Y-40513000D02*
X240603524Y-37925362D01*
X118364000Y-82550000D02*
X119148123Y-81765877D01*
X105198831Y-93903800D02*
X116552631Y-82550000D01*
X235077000Y-40513000D02*
X238015886Y-40513000D01*
X70104000Y-96774000D02*
X73689677Y-96774000D01*
X116552631Y-82550000D02*
X118364000Y-82550000D01*
X119148123Y-81765877D02*
X193824123Y-81765877D01*
%TO.N,/STM32-Root/STM32H723ZGT6/PC1*%
X73555123Y-101016800D02*
X67127923Y-94589600D01*
X170407600Y-101016800D02*
X73555123Y-101016800D01*
X182346600Y-89077800D02*
X170407600Y-101016800D01*
X67127923Y-94589600D02*
X65419939Y-94589600D01*
%TO.N,/STM32-Root/STM32H723ZGT6/PB12*%
X82449400Y-83109800D02*
X73380600Y-74041000D01*
X91922186Y-83109800D02*
X82449400Y-83109800D01*
X73380600Y-74041000D02*
X71402264Y-74041000D01*
X134416800Y-79349600D02*
X95682386Y-79349600D01*
X95682386Y-79349600D02*
X91922186Y-83109800D01*
X71402264Y-74041000D02*
X70167500Y-75275764D01*
%TO.N,/STM32-Root/STM32H723ZGT6/PB10*%
X78282800Y-80721200D02*
X74015600Y-80721200D01*
X194614800Y-78232000D02*
X192610200Y-80236600D01*
X96242600Y-80236600D02*
X92202000Y-84277200D01*
X81838800Y-84277200D02*
X78282800Y-80721200D01*
X194691000Y-78232000D02*
X194614800Y-78232000D01*
X92202000Y-84277200D02*
X81838800Y-84277200D01*
X74015600Y-80721200D02*
X73507600Y-81229200D01*
X192610200Y-80236600D02*
X96242600Y-80236600D01*
%TO.N,/STM32-Root/STM32H723ZGT6/PG6*%
X144464524Y-37925362D02*
X141525638Y-37925362D01*
X73609372Y-61162200D02*
X62051786Y-72719786D01*
X141525638Y-37925362D02*
X120015000Y-59436000D01*
X99949000Y-59436000D02*
X98222800Y-61162200D01*
X120015000Y-59436000D02*
X99949000Y-59436000D01*
X98222800Y-61162200D02*
X73609372Y-61162200D01*
%TO.N,/Connector-Root/BSPD_FAULT+*%
X97851677Y-76676000D02*
X124619000Y-76676000D01*
X133223000Y-68072000D02*
X204614886Y-68072000D01*
X204614886Y-68072000D02*
X228919524Y-43767362D01*
X124619000Y-76676000D02*
X133223000Y-68072000D01*
X91977677Y-82550000D02*
X97851677Y-76676000D01*
X91567000Y-82550000D02*
X91977677Y-82550000D01*
%TO.N,/Connector-Root/BRAKE_LIGHT*%
X90805000Y-109220000D02*
X168372323Y-109220000D01*
X233824961Y-43767362D02*
X234761524Y-43767362D01*
X168372323Y-109220000D02*
X233824961Y-43767362D01*
%TD*%
%TA.AperFunction,Conductor*%
%TO.N,/STM32-Root/STM32H723ZGT6/PF14*%
G36*
X58173596Y-69347485D02*
G01*
X58388379Y-69530859D01*
X58392446Y-69538836D01*
X58391747Y-69543836D01*
X58245035Y-69938123D01*
X58238939Y-69944682D01*
X58234070Y-69945743D01*
X58097930Y-69945743D01*
X58089657Y-69942316D01*
X58086965Y-69938123D01*
X57940252Y-69543836D01*
X57940578Y-69534887D01*
X57943616Y-69530862D01*
X58158403Y-69347485D01*
X58166920Y-69344720D01*
X58173596Y-69347485D01*
G37*
%TD.AperFunction*%
%TD*%
%TA.AperFunction,Conductor*%
%TO.N,/STM32-Root/STM32H723ZGT6/PF14*%
G36*
X67640343Y-85759684D02*
G01*
X67643035Y-85763877D01*
X67789747Y-86158163D01*
X67789421Y-86167112D01*
X67786379Y-86171141D01*
X67571597Y-86354513D01*
X67563080Y-86357279D01*
X67556403Y-86354513D01*
X67423724Y-86241238D01*
X67341619Y-86171139D01*
X67337553Y-86163163D01*
X67338251Y-86158166D01*
X67484965Y-85763877D01*
X67491061Y-85757318D01*
X67495930Y-85756257D01*
X67632070Y-85756257D01*
X67640343Y-85759684D01*
G37*
%TD.AperFunction*%
%TD*%
%TA.AperFunction,Conductor*%
%TO.N,/STM32-Root/STM32H723ZGT6/PF15*%
G36*
X66626863Y-84295091D02*
G01*
X67009407Y-84470153D01*
X67015503Y-84476712D01*
X67016202Y-84481712D01*
X66993992Y-84763248D01*
X66989925Y-84771226D01*
X66983248Y-84773992D01*
X66701712Y-84796202D01*
X66693195Y-84793436D01*
X66690153Y-84789407D01*
X66515091Y-84406863D01*
X66514765Y-84397914D01*
X66517455Y-84393723D01*
X66613722Y-84297456D01*
X66621994Y-84294030D01*
X66626863Y-84295091D01*
G37*
%TD.AperFunction*%
%TD*%
%TA.AperFunction,Conductor*%
%TO.N,/STM32-Root/STM32H723ZGT6/PF15*%
G36*
X55290304Y-67289062D02*
G01*
X55293346Y-67293091D01*
X55468408Y-67675636D01*
X55468734Y-67684585D01*
X55466042Y-67688778D01*
X55369778Y-67785042D01*
X55361505Y-67788469D01*
X55356636Y-67787408D01*
X54974092Y-67612346D01*
X54967996Y-67605787D01*
X54967297Y-67600787D01*
X54989507Y-67319251D01*
X54993574Y-67311273D01*
X55000249Y-67308507D01*
X55281788Y-67286296D01*
X55290304Y-67289062D01*
G37*
%TD.AperFunction*%
%TD*%
%TA.AperFunction,Conductor*%
%TO.N,/STM32-Root/STM32H723ZGT6/PA0*%
G36*
X69957165Y-93995343D02*
G01*
X70088656Y-94126834D01*
X70092083Y-94135107D01*
X70090735Y-94140559D01*
X69898533Y-94505528D01*
X69891646Y-94511251D01*
X69887261Y-94511740D01*
X69605251Y-94489492D01*
X69597273Y-94485425D01*
X69594507Y-94478748D01*
X69572259Y-94196735D01*
X69575025Y-94188221D01*
X69578467Y-94185468D01*
X69943441Y-93993263D01*
X69952357Y-93992441D01*
X69957165Y-93995343D01*
G37*
%TD.AperFunction*%
%TD*%
%TA.AperFunction,Conductor*%
%TO.N,/STM32-Root/STM32H723ZGT6/PA0*%
G36*
X234769103Y-37930809D02*
G01*
X235174061Y-38275287D01*
X235545080Y-38590896D01*
X235549161Y-38598867D01*
X235547940Y-38605088D01*
X234866371Y-39952788D01*
X234859579Y-39958624D01*
X234855930Y-39959208D01*
X234667118Y-39959208D01*
X234658845Y-39955781D01*
X234656677Y-39952788D01*
X233975107Y-38605088D01*
X233974432Y-38596159D01*
X233977967Y-38590896D01*
X234753944Y-37930809D01*
X234762465Y-37928060D01*
X234769103Y-37930809D01*
G37*
%TD.AperFunction*%
%TD*%
%TA.AperFunction,Conductor*%
%TO.N,/STM32-Root/STM32H723ZGT6/PG2*%
G36*
X173665310Y-43765854D02*
G01*
X173673281Y-43769935D01*
X173676031Y-43776575D01*
X173757978Y-44792024D01*
X173755228Y-44800546D01*
X173749965Y-44804081D01*
X172315055Y-45275106D01*
X172306126Y-45274431D01*
X172303133Y-45272263D01*
X172169622Y-45138752D01*
X172166195Y-45130479D01*
X172166778Y-45126835D01*
X172637804Y-43691919D01*
X172643640Y-43685128D01*
X172649860Y-43683907D01*
X173665310Y-43765854D01*
G37*
%TD.AperFunction*%
%TD*%
%TA.AperFunction,Conductor*%
%TO.N,/STM32-Root/STM32H723ZGT6/PG2*%
G36*
X63353165Y-72659343D02*
G01*
X63484656Y-72790834D01*
X63488083Y-72799107D01*
X63486735Y-72804559D01*
X63294533Y-73169528D01*
X63287646Y-73175251D01*
X63283261Y-73175740D01*
X63001251Y-73153492D01*
X62993273Y-73149425D01*
X62990507Y-73142748D01*
X62968259Y-72860735D01*
X62971025Y-72852221D01*
X62974467Y-72849468D01*
X63339441Y-72657263D01*
X63348357Y-72656441D01*
X63353165Y-72659343D01*
G37*
%TD.AperFunction*%
%TD*%
%TA.AperFunction,Conductor*%
%TO.N,/STM32-Root/STM32H723ZGT6/PA1*%
G36*
X240594310Y-37923854D02*
G01*
X240602281Y-37927935D01*
X240605031Y-37934575D01*
X240686978Y-38950024D01*
X240684228Y-38958546D01*
X240678965Y-38962081D01*
X239244055Y-39433106D01*
X239235126Y-39432431D01*
X239232133Y-39430263D01*
X239098622Y-39296752D01*
X239095195Y-39288479D01*
X239095778Y-39284835D01*
X239566804Y-37849919D01*
X239572640Y-37843128D01*
X239578860Y-37841907D01*
X240594310Y-37923854D01*
G37*
%TD.AperFunction*%
%TD*%
%TA.AperFunction,Conductor*%
%TO.N,/STM32-Root/STM32H723ZGT6/PA1*%
G36*
X70305529Y-96547682D02*
G01*
X70699508Y-96669846D01*
X70706395Y-96675569D01*
X70707743Y-96681021D01*
X70707743Y-96866978D01*
X70704316Y-96875251D01*
X70699508Y-96878153D01*
X70305529Y-97000317D01*
X70296612Y-96999494D01*
X70293166Y-96996739D01*
X70109486Y-96781597D01*
X70106720Y-96773080D01*
X70109486Y-96766403D01*
X70182382Y-96681021D01*
X70293167Y-96551259D01*
X70301144Y-96547193D01*
X70305529Y-96547682D01*
G37*
%TD.AperFunction*%
%TD*%
%TA.AperFunction,Conductor*%
%TO.N,/STM32-Root/STM32H723ZGT6/PC1*%
G36*
X182080095Y-89056012D02*
G01*
X182337348Y-89076307D01*
X182345326Y-89080374D01*
X182348092Y-89087051D01*
X182370340Y-89369061D01*
X182367574Y-89377578D01*
X182364128Y-89380333D01*
X181999159Y-89572535D01*
X181990242Y-89573358D01*
X181985434Y-89570456D01*
X181853943Y-89438965D01*
X181850516Y-89430692D01*
X181851863Y-89425242D01*
X182044066Y-89060270D01*
X182050953Y-89054548D01*
X182055338Y-89054059D01*
X182080095Y-89056012D01*
G37*
%TD.AperFunction*%
%TD*%
%TA.AperFunction,Conductor*%
%TO.N,/STM32-Root/STM32H723ZGT6/PC1*%
G36*
X65621468Y-94363282D02*
G01*
X66015447Y-94485446D01*
X66022334Y-94491169D01*
X66023682Y-94496621D01*
X66023682Y-94682578D01*
X66020255Y-94690851D01*
X66015447Y-94693753D01*
X65621468Y-94815917D01*
X65612551Y-94815094D01*
X65609105Y-94812339D01*
X65425425Y-94597197D01*
X65422659Y-94588680D01*
X65425425Y-94582003D01*
X65498321Y-94496621D01*
X65609106Y-94366859D01*
X65617083Y-94362793D01*
X65621468Y-94363282D01*
G37*
%TD.AperFunction*%
%TD*%
%TA.AperFunction,Conductor*%
%TO.N,/STM32-Root/STM32H723ZGT6/PB12*%
G36*
X134224187Y-79124105D02*
G01*
X134227633Y-79126860D01*
X134411313Y-79342003D01*
X134414079Y-79350520D01*
X134411313Y-79357197D01*
X134227633Y-79572339D01*
X134219655Y-79576406D01*
X134215270Y-79575917D01*
X133821292Y-79453753D01*
X133814405Y-79448030D01*
X133813057Y-79442578D01*
X133813057Y-79256621D01*
X133816484Y-79248348D01*
X133821290Y-79245447D01*
X134215270Y-79123282D01*
X134224187Y-79124105D01*
G37*
%TD.AperFunction*%
%TD*%
%TA.AperFunction,Conductor*%
%TO.N,/STM32-Root/STM32H723ZGT6/PB12*%
G36*
X70528665Y-74783107D02*
G01*
X70660156Y-74914598D01*
X70663583Y-74922871D01*
X70662235Y-74928323D01*
X70470033Y-75293292D01*
X70463146Y-75299015D01*
X70458761Y-75299504D01*
X70176751Y-75277256D01*
X70168773Y-75273189D01*
X70166007Y-75266512D01*
X70143759Y-74984499D01*
X70146525Y-74975985D01*
X70149967Y-74973232D01*
X70514941Y-74781027D01*
X70523857Y-74780205D01*
X70528665Y-74783107D01*
G37*
%TD.AperFunction*%
%TD*%
%TA.AperFunction,Conductor*%
%TO.N,/STM32-Root/STM32H723ZGT6/PB10*%
G36*
X194681769Y-78229721D02*
G01*
X194689405Y-78234398D01*
X194691641Y-78241353D01*
X194689805Y-78523168D01*
X194686324Y-78531419D01*
X194682568Y-78533908D01*
X194305046Y-78689675D01*
X194296091Y-78689662D01*
X194292310Y-78687132D01*
X194160857Y-78555679D01*
X194157430Y-78547406D01*
X194159327Y-78541019D01*
X194387917Y-78190249D01*
X194395305Y-78185190D01*
X194399543Y-78185082D01*
X194681769Y-78229721D01*
G37*
%TD.AperFunction*%
%TD*%
%TA.AperFunction,Conductor*%
%TO.N,/STM32-Root/STM32H723ZGT6/PB10*%
G36*
X73868765Y-80736543D02*
G01*
X74000256Y-80868034D01*
X74003683Y-80876307D01*
X74002335Y-80881759D01*
X73810133Y-81246728D01*
X73803246Y-81252451D01*
X73798861Y-81252940D01*
X73516851Y-81230692D01*
X73508873Y-81226625D01*
X73506107Y-81219948D01*
X73483859Y-80937935D01*
X73486625Y-80929421D01*
X73490067Y-80926668D01*
X73855041Y-80734463D01*
X73863957Y-80733641D01*
X73868765Y-80736543D01*
G37*
%TD.AperFunction*%
%TD*%
%TA.AperFunction,Conductor*%
%TO.N,/STM32-Root/STM32H723ZGT6/PG6*%
G36*
X143798989Y-37141805D02*
G01*
X144459075Y-37917781D01*
X144461825Y-37926303D01*
X144459075Y-37932943D01*
X143798989Y-38708918D01*
X143791018Y-38712999D01*
X143784797Y-38711778D01*
X142437098Y-38030208D01*
X142431262Y-38023416D01*
X142430678Y-38019767D01*
X142430678Y-37830956D01*
X142434105Y-37822683D01*
X142437098Y-37820515D01*
X143784798Y-37138944D01*
X143793726Y-37138270D01*
X143798989Y-37141805D01*
G37*
%TD.AperFunction*%
%TD*%
%TA.AperFunction,Conductor*%
%TO.N,/STM32-Root/STM32H723ZGT6/PG6*%
G36*
X62412951Y-72227129D02*
G01*
X62544442Y-72358620D01*
X62547869Y-72366893D01*
X62546521Y-72372345D01*
X62354319Y-72737314D01*
X62347432Y-72743037D01*
X62343047Y-72743526D01*
X62061037Y-72721278D01*
X62053059Y-72717211D01*
X62050293Y-72710534D01*
X62028045Y-72428521D01*
X62030811Y-72420007D01*
X62034253Y-72417254D01*
X62399227Y-72225049D01*
X62408143Y-72224227D01*
X62412951Y-72227129D01*
G37*
%TD.AperFunction*%
%TD*%
%TA.AperFunction,Conductor*%
%TO.N,/Connector-Root/BSPD_FAULT+*%
G36*
X228910310Y-43765854D02*
G01*
X228918281Y-43769935D01*
X228921031Y-43776575D01*
X229002978Y-44792024D01*
X229000228Y-44800546D01*
X228994965Y-44804081D01*
X227560055Y-45275106D01*
X227551126Y-45274431D01*
X227548133Y-45272263D01*
X227414622Y-45138752D01*
X227411195Y-45130479D01*
X227411778Y-45126835D01*
X227882804Y-43691919D01*
X227888640Y-43685128D01*
X227894860Y-43683907D01*
X228910310Y-43765854D01*
G37*
%TD.AperFunction*%
%TD*%
%TA.AperFunction,Conductor*%
%TO.N,/Connector-Root/BSPD_FAULT+*%
G36*
X92038715Y-82341001D02*
G01*
X92044965Y-82344252D01*
X92175783Y-82475070D01*
X92179210Y-82483343D01*
X92175783Y-82491616D01*
X92173848Y-82493178D01*
X91822499Y-82719607D01*
X91813689Y-82721208D01*
X91809493Y-82719386D01*
X91574603Y-82556470D01*
X91569758Y-82548939D01*
X91570793Y-82541650D01*
X91696173Y-82289369D01*
X91702922Y-82283486D01*
X91708669Y-82283053D01*
X92038715Y-82341001D01*
G37*
%TD.AperFunction*%
%TD*%
%TA.AperFunction,Conductor*%
%TO.N,/Connector-Root/BRAKE_LIGHT*%
G36*
X91006529Y-108993682D02*
G01*
X91400508Y-109115846D01*
X91407395Y-109121569D01*
X91408743Y-109127021D01*
X91408743Y-109312978D01*
X91405316Y-109321251D01*
X91400508Y-109324153D01*
X91006529Y-109446317D01*
X90997612Y-109445494D01*
X90994166Y-109442739D01*
X90810486Y-109227597D01*
X90807720Y-109219080D01*
X90810486Y-109212403D01*
X90883382Y-109127021D01*
X90994167Y-108997259D01*
X91002144Y-108993193D01*
X91006529Y-108993682D01*
G37*
%TD.AperFunction*%
%TD*%
%TA.AperFunction,Conductor*%
%TO.N,/Connector-Root/BRAKE_LIGHT*%
G36*
X233832499Y-43333474D02*
G01*
X234753197Y-43762446D01*
X234759249Y-43769046D01*
X234759512Y-43776242D01*
X234480701Y-44759636D01*
X234475148Y-44766661D01*
X234468391Y-44768097D01*
X233096636Y-44643975D01*
X233089417Y-44640596D01*
X232955894Y-44507073D01*
X232952467Y-44498800D01*
X232954796Y-44491795D01*
X233818189Y-43337071D01*
X233825886Y-43332499D01*
X233832499Y-43333474D01*
G37*
%TD.AperFunction*%
%TD*%
M02*
