M48
; DRILL file {KiCad 9.0.3} date 2025-10-14T12:15:11-0700
; FORMAT={-:-/ absolute / inch / decimal}
; #@! TF.CreationDate,2025-10-14T12:15:11-07:00
; #@! TF.GenerationSoftware,Kicad,Pcbnew,9.0.3
; #@! TF.FileFunction,Plated,1,6,PTH
FMAT,2
INCH
; #@! TA.AperFunction,Plated,PTH,ViaDrill
T1C0.0100
; #@! TA.AperFunction,Plated,PTH,ComponentDrill
T2C0.0315
; #@! TA.AperFunction,Plated,PTH,ComponentDrill
T3C0.0350
; #@! TA.AperFunction,Plated,PTH,ComponentDrill
T4C0.0394
; #@! TA.AperFunction,Plated,PTH,ComponentDrill
T5C0.0610
; #@! TA.AperFunction,Plated,PTH,ComponentDrill
T6C0.0618
; #@! TA.AperFunction,Plated,PTH,ComponentDrill
T7C0.1260
%
G90
G05
T1
X1.125Y-4.325
X1.125Y-5.005
X1.3Y-4.58
X1.3Y-4.665
X1.3707Y-4.7093
X1.39Y-4.752
X1.4265Y-5.8624
X1.44Y-4.695
X1.45Y-4.325
X1.45Y-5.005
X1.4793Y-4.7507
X1.5154Y-4.9
X1.5154Y-5.195
X1.5513Y-5.2687
X1.5988Y-4.8998
X1.625Y-5.24
X1.63Y-5.41
X1.63Y-5.61
X1.635Y-5.865
X1.65Y-5.2712
X1.69Y-5.185
X1.6937Y-5.41
X1.695Y-5.61
X1.7Y-3.99
X1.7Y-5.865
X1.71Y-3.385
X1.715Y-2.8
X1.7175Y-5.0975
X1.72Y-2.925
X1.72Y-3.745
X1.725Y-3.57
X1.795Y-5.065
X1.8Y-4.0
X1.815Y-5.895
X1.82Y-3.305
X1.825Y-4.96
X1.825Y-5.435
X1.825Y-5.748
X1.8281Y-5.635
X1.845Y-5.3369
X1.855Y-5.2931
X1.865Y-5.19
X1.8991Y-5.6968
X1.9Y-5.7549
X1.91Y-5.6681
X1.91Y-6.175
X1.915Y-2.68
X1.915Y-2.735
X1.915Y-2.795
X1.915Y-2.86
X1.92Y-4.1663
X1.93Y-5.63
X1.935Y-5.36
X1.94Y-5.0
X1.95Y-2.96
X1.95Y-5.6
X1.965Y-2.83
X1.97Y-5.57
X1.975Y-3.2
X1.9831Y-4.4019
X1.9887Y-6.0436
X1.99Y-5.54
X1.9925Y-5.2275
X2.0Y-2.52
X2.01Y-3.255
X2.01Y-5.51
X2.03Y-2.72
X2.03Y-3.4858
X2.04Y-3.235
X2.05Y-6.175
X2.06Y-4.51
X2.06Y-5.066
X2.064Y-4.992
X2.065Y-6.265
X2.085Y-6.09
X2.085Y-6.16
X2.1Y-3.115
X2.11Y-3.025
X2.11Y-5.1909
X2.1237Y-3.6411
X2.14Y-5.93
X2.1449Y-3.6199
X2.1625Y-4.6075
X2.17Y-2.655
X2.185Y-2.905
X2.1855Y-5.3255
X2.1916Y-6.68
X2.205Y-4.075
X2.2105Y-5.3005
X2.215Y-3.92
X2.22Y-6.06
X2.22Y-6.125
X2.233Y-4.828
X2.24Y-5.2787
X2.256Y-4.784
X2.2605Y-5.2505
X2.28Y-5.064
X2.285Y-5.61
X2.32Y-4.952
X2.3294Y-6.68
X2.3371Y-5.7371
X2.34Y-5.19
X2.3406Y-4.27
X2.35Y-3.245
X2.3538Y-5.925
X2.36Y-3.42
X2.36Y-3.75
X2.37Y-6.095
X2.3706Y-4.34
X2.405Y-6.17
X2.415Y-3.1
X2.42Y-2.715
X2.435Y-5.93
X2.4375Y-3.3825
X2.4375Y-6.0957
X2.46Y-6.27
X2.47Y-6.17
X2.5365Y-5.045
X2.54Y-6.17
X2.555Y-5.45
X2.555Y-5.495
X2.555Y-5.62
X2.56Y-5.901
X2.565Y-6.06
X2.5683Y-2.672
X2.6Y-3.015
X2.615Y-3.97
X2.622Y-4.16
X2.65Y-5.02
X2.65Y-6.19
X2.664Y-4.12
X2.665Y-2.705
X2.675Y-2.825
X2.683Y-5.154
X2.685Y-5.905
X2.695Y-4.675
X2.6972Y-5.675
X2.6973Y-5.47
X2.7Y-4.74
X2.7Y-6.3
X2.7Y-6.47
X2.705Y-5.815
X2.725Y-3.115
X2.75Y-5.155
X2.75Y-5.4622
X2.755Y-5.83
X2.7641Y-4.0091
X2.765Y-5.675
X2.7663Y-5.7863
X2.79Y-3.755
X2.8033Y-3.97
X2.8041Y-5.4434
X2.82Y-5.237
X2.82Y-5.765
X2.822Y-5.5083
X2.8375Y-5.4434
X2.84Y-4.92
X2.84Y-5.02
X2.845Y-3.525
X2.85Y-4.76
X2.85Y-4.86
X2.87Y-4.72
X2.87Y-4.81
X2.875Y-5.237
X2.8773Y-5.5313
X2.88Y-2.96
X2.9Y-4.76
X2.9Y-4.86
X2.902Y-5.1253
X2.91Y-4.99
X2.92Y-4.72
X2.92Y-4.81
X2.925Y-5.1705
X2.95Y-3.04
X2.95Y-4.76
X2.95Y-4.86
X2.96Y-4.085
X2.9737Y-4.9687
X3.01Y-5.61
X3.0173Y-5.4853
X3.02Y-2.87
X3.02Y-5.4434
X3.025Y-4.0
X3.0325Y-5.1075
X3.04Y-3.93
X3.046Y-5.4853
X3.12Y-2.68
X3.13Y-3.79
X3.14Y-5.08
X3.17Y-5.74
X3.18Y-5.16
X3.215Y-3.64
X3.27Y-3.91
X3.295Y-4.015
X3.3158Y-2.8058
X3.3299Y-5.7919
X3.33Y-5.4853
X3.37Y-2.87
X3.4Y-3.26
X3.41Y-5.18
X3.445Y-5.665
X3.4507Y-3.5157
X3.455Y-3.685
X3.49Y-2.8
X3.51Y-5.575
X3.517Y-5.2097
X3.52Y-4.76
X3.52Y-5.03
X3.53Y-5.45
X3.535Y-2.575
X3.545Y-3.535
X3.55Y-4.83
X3.56Y-3.8557
X3.58Y-5.237
X3.5966Y-3.7866
X3.625Y-2.61
X3.63Y-5.18
X3.655Y-3.865
X3.69Y-5.13
X3.71Y-2.84
X3.72Y-4.98
X3.75Y-5.755
X3.7875Y-5.7525
X3.805Y-3.8
X3.83Y-6.175
X3.85Y-2.7
X3.875Y-3.64
X3.88Y-3.71
X3.9Y-5.76
X3.955Y-5.235
X4.005Y-3.655
X4.005Y-3.695
X4.0753Y-4.8347
X4.0769Y-5.5309
X4.108Y-5.504
X4.335Y-5.085
X4.3643Y-4.817
X4.39Y-5.2621
X4.41Y-4.84
X4.455Y-4.787
X4.5267Y-2.6936
X4.53Y-3.39
X4.55Y-2.615
X4.59Y-3.53
X4.6Y-4.02
X4.62Y-3.93
X4.66Y-2.575
X4.68Y-3.53
X4.735Y-4.6811
X4.78Y-3.47
X4.78Y-3.6
X4.8Y-3.52
X4.8Y-3.93
X4.8Y-4.0
X4.83Y-3.47
X4.83Y-3.57
X4.83Y-4.685
X4.86Y-3.52
X4.88Y-3.47
X4.88Y-5.97
X4.89Y-3.57
X4.92Y-3.52
X4.93Y-3.47
X4.96Y-3.55
X4.96Y-3.6
X4.98Y-3.47
X4.99Y-3.51
X5.0Y-3.6
X5.02Y-3.55
X5.03Y-3.47
X5.04Y-3.6
X5.04Y-3.76
X5.05Y-3.51
X5.05Y-3.83
X5.08Y-3.47
X5.08Y-3.55
X5.08Y-3.6
X5.11Y-3.51
X5.11Y-3.6
X5.13Y-3.47
X5.13Y-3.72
X5.17Y-3.91
X5.195Y-2.7996
X5.24Y-3.52
X5.24Y-5.86
X5.25Y-3.7
X5.25Y-3.87
X5.255Y-2.72
X5.27Y-2.79
X5.415Y-3.385
X5.415Y-3.47
X5.63Y-2.7
X6.1649Y-4.5362
X6.38Y-5.11
X6.38Y-5.15
X6.3954Y-5.1757
X6.4725Y-4.5225
X6.656Y-4.26
X6.67Y-5.76
X6.678Y-4.234
X6.7985Y-4.1965
X6.81Y-4.095
X6.8177Y-4.1477
X6.825Y-3.8
X6.825Y-3.84
X6.85Y-4.275
X6.85Y-4.375
X6.85Y-4.475
X6.85Y-4.575
X6.85Y-4.675
X6.86Y-3.72
X6.865Y-3.8
X6.865Y-3.84
X6.875Y-4.225
X6.875Y-4.325
X6.875Y-4.425
X6.875Y-4.525
X6.875Y-4.625
X6.925Y-4.275
X6.925Y-4.375
X6.925Y-4.475
X6.925Y-4.575
X6.925Y-4.675
X6.95Y-4.225
X6.95Y-4.325
X6.95Y-4.425
X6.95Y-4.525
X6.95Y-4.625
X7.0Y-4.275
X7.0Y-4.375
X7.0Y-4.475
X7.0Y-4.575
X7.0Y-4.675
X7.025Y-4.225
X7.025Y-4.325
X7.025Y-4.425
X7.025Y-4.525
X7.025Y-4.625
X7.07Y-4.038
X7.12Y-6.34
X7.16Y-6.38
X7.2Y-4.01
X7.2Y-6.34
X7.205Y-3.89
X7.205Y-3.95
X7.24Y-6.38
X7.245Y-3.86
X7.245Y-3.92
X7.245Y-3.98
X7.28Y-3.835
X7.28Y-3.885
X7.28Y-3.95
X7.28Y-6.34
X7.285Y-4.005
X7.37Y-6.01
X7.37Y-6.17
X7.41Y-2.98
X7.41Y-6.01
X7.41Y-6.17
X7.43Y-3.87
X7.45Y-6.01
X7.45Y-6.17
X7.46Y-2.65
X7.51Y-6.49
X7.51Y-6.57
X7.52Y-6.29
X7.53Y-6.53
X7.535Y-3.06
X7.54Y-6.34
X7.56Y-6.24
X7.56Y-6.49
X7.56Y-6.57
X7.58Y-6.29
X7.58Y-6.53
X7.6Y-6.18
X7.6Y-6.34
X7.61Y-6.49
X7.61Y-6.57
X7.62Y-6.24
X7.63Y-6.53
X7.6353Y-3.06
X7.64Y-6.29
X7.66Y-6.18
X7.68Y-6.24
X7.72Y-6.18
X7.74Y-2.945
X7.74Y-6.24
X7.78Y-6.18
X7.8Y-6.24
X7.81Y-2.7
X7.86Y-3.73
X7.9417Y-2.695
X7.98Y-2.84
X8.1Y-4.85
X8.1Y-4.95
X8.1Y-5.05
X8.1Y-5.15
X8.1Y-5.25
X8.15Y-4.9
X8.15Y-5.0
X8.15Y-5.1
X8.15Y-5.2
X8.18Y-6.55
X8.2Y-4.85
X8.2Y-4.95
X8.2Y-5.05
X8.2Y-5.15
X8.2Y-5.25
X8.25Y-4.9
X8.25Y-5.0
X8.25Y-5.1
X8.25Y-5.2
X8.265Y-2.675
X8.286Y-2.92
X8.3Y-4.85
X8.3Y-4.95
X8.3Y-5.05
X8.3Y-5.15
X8.3Y-5.25
X8.35Y-4.9
X8.35Y-5.0
X8.35Y-5.1
X8.35Y-5.2
X8.35Y-6.59
X8.4Y-4.85
X8.4Y-4.95
X8.4Y-5.05
X8.4Y-5.15
X8.4Y-5.25
X8.43Y-2.9
X8.43Y-6.1
X8.43Y-6.16
X8.43Y-6.22
X8.43Y-6.28
X8.43Y-6.34
X8.43Y-6.4
X8.43Y-6.46
X8.45Y-4.9
X8.45Y-5.0
X8.45Y-5.1
X8.45Y-5.2
X8.47Y-6.13
X8.47Y-6.19
X8.47Y-6.25
X8.47Y-6.31
X8.47Y-6.37
X8.47Y-6.43
X8.47Y-6.49
X8.49Y-2.83
X8.55Y-5.585
X8.56Y-5.66
X8.73Y-2.974
X8.735Y-6.21
X8.74Y-5.83
X8.785Y-5.63
X8.84Y-2.89
X8.84Y-5.97
X8.99Y-6.4
X9.07Y-5.765
X9.16Y-4.3
X9.4Y-3.155
X9.4Y-3.345
X9.4Y-3.53
X9.4Y-3.725
X9.4Y-3.91
X9.4274Y-4.2478
X9.435Y-4.44
T2
X6.9922Y-6.4433
X7.13Y-6.4433
X7.89Y-6.0282
X7.89Y-6.166
T3
X1.34Y-2.78
X1.34Y-2.86
X1.34Y-2.94
X1.34Y-3.02
X1.3402Y-3.6202
X1.3402Y-3.7002
X1.3402Y-3.7802
X1.3402Y-3.8602
X1.4101Y-2.74
X1.4101Y-2.82
X1.4101Y-2.9
X1.4101Y-2.98
X1.4102Y-3.5802
X1.4102Y-3.6602
X1.4102Y-3.7402
X1.4102Y-3.8202
X1.5998Y-2.6098
X1.5998Y-2.6999
X1.5998Y-3.0598
X1.5998Y-3.1499
X1.6Y-3.45
X1.6Y-3.5402
X1.6Y-3.9
X1.6Y-3.9902
X8.9402Y-5.6499
X8.9402Y-5.7401
X8.9402Y-6.0999
X8.9402Y-6.1901
X9.1299Y-5.8198
X9.1299Y-5.8998
X9.1299Y-5.9798
X9.1299Y-6.0598
X9.2Y-5.7798
X9.2Y-5.8598
X9.2Y-5.9398
X9.2Y-6.0198
T4
X1.08Y-4.2
X1.18Y-4.2
X1.25Y-5.67
X1.25Y-5.77
X1.25Y-5.87
X1.28Y-4.2
X1.38Y-4.2
X2.7Y-4.3
X2.7Y-4.4
X2.7Y-6.7
X2.7Y-6.8
X2.8Y-4.3
X2.8Y-4.4
X2.8Y-6.7
X2.8Y-6.8
X2.9Y-4.3
X2.9Y-4.4
X2.9Y-6.7
X2.9Y-6.8
X3.0Y-4.3
X3.0Y-4.4
X3.0Y-6.7
X3.0Y-6.8
X3.1Y-4.3
X3.1Y-4.4
X3.1Y-6.7
X3.1Y-6.8
X3.2Y-4.3
X3.2Y-4.4
X3.2Y-6.7
X3.2Y-6.8
X3.3Y-4.3
X3.3Y-4.4
X3.3Y-6.7
X3.3Y-6.8
X3.4Y-4.3
X3.4Y-4.4
X3.4Y-6.7
X3.4Y-6.8
X3.5Y-4.3
X3.5Y-4.4
X3.5Y-6.7
X3.5Y-6.8
X3.55Y-3.45
X3.6Y-4.3
X3.6Y-4.4
X3.6Y-6.7
X3.6Y-6.8
X3.65Y-3.45
X3.7Y-4.3
X3.7Y-4.4
X3.7Y-6.7
X3.7Y-6.8
X3.75Y-3.45
X3.8Y-4.3
X3.8Y-4.4
X3.8Y-6.7
X3.8Y-6.8
X3.9Y-4.3
X3.9Y-4.4
X3.9Y-6.7
X3.9Y-6.8
X4.0Y-4.3
X4.0Y-4.4
X4.0Y-6.7
X4.0Y-6.8
X4.1Y-4.3
X4.1Y-4.4
X4.1Y-6.7
X4.1Y-6.8
X4.2Y-4.3
X4.2Y-4.4
X4.2Y-6.7
X4.2Y-6.8
X4.3Y-4.3
X4.3Y-4.4
X4.3Y-6.7
X4.3Y-6.8
X4.4Y-4.3
X4.4Y-4.4
X4.4Y-6.7
X4.4Y-6.8
X4.5Y-4.3
X4.5Y-4.4
X4.5Y-6.7
X4.5Y-6.8
X4.6Y-4.3
X4.6Y-4.4
X4.6Y-6.7
X4.6Y-6.8
X4.6395Y-3.0009
X4.7Y-4.3
X4.7Y-4.4
X4.7Y-6.7
X4.7Y-6.8
X4.8Y-4.3
X4.8Y-4.4
X4.8Y-6.7
X4.8Y-6.8
X4.8364Y-3.0009
X4.9Y-4.3
X4.9Y-4.4
X4.9Y-6.7
X4.9Y-6.8
X5.0Y-4.3
X5.0Y-4.4
X5.0Y-6.7
X5.0Y-6.8
X5.0564Y-3.0009
X5.1Y-4.3
X5.1Y-4.4
X5.1Y-6.7
X5.1Y-6.8
X5.2Y-4.3
X5.2Y-4.4
X5.2Y-6.7
X5.2Y-6.8
X5.2532Y-3.0009
X5.3Y-4.3
X5.3Y-4.4
X5.3Y-6.7
X5.3Y-6.8
X5.4Y-4.3
X5.4Y-4.4
X5.4Y-6.7
X5.4Y-6.8
X5.5Y-4.3
X5.5Y-4.4
X5.5Y-6.7
X5.5Y-6.8
X5.6Y-4.3
X5.6Y-4.4
X5.6Y-6.7
X5.6Y-6.8
X5.7Y-4.3
X5.7Y-4.4
X5.7Y-6.7
X5.7Y-6.8
X5.8Y-4.3
X5.8Y-4.4
X5.8Y-6.7
X5.8Y-6.8
X5.9Y-4.3
X5.9Y-4.4
X5.9Y-6.7
X5.9Y-6.8
X6.0Y-4.3
X6.0Y-4.4
X6.0Y-6.7
X6.0Y-6.8
X6.1Y-4.3
X6.1Y-4.4
X6.1Y-6.7
X6.1Y-6.8
X6.2443Y-3.5173
X6.2443Y-3.7142
X6.6643Y-3.5173
X6.6643Y-3.7142
X7.44Y-6.3465
X7.44Y-6.5433
X7.7543Y-3.7273
X7.7543Y-3.9242
X8.1743Y-3.7273
X8.1743Y-3.9242
X9.35Y-5.18
X9.35Y-5.28
X9.35Y-5.38
T5
X2.0256Y-2.2491
X2.0256Y-2.3869
X2.1634Y-2.2491
X2.1634Y-2.3869
X2.3012Y-2.2491
X2.3012Y-2.3869
X2.439Y-2.2491
X2.439Y-2.3869
X2.5768Y-2.2491
X2.5768Y-2.3869
X2.7146Y-2.2491
X2.7146Y-2.3869
X2.8524Y-2.2491
X2.8524Y-2.3869
X2.9902Y-2.2491
X2.9902Y-2.3869
X3.128Y-2.2491
X3.128Y-2.3869
X3.2657Y-2.2491
X3.2657Y-2.3869
X4.8256Y-2.2491
X4.8256Y-2.3869
X4.9634Y-2.2491
X4.9634Y-2.3869
X5.1012Y-2.2491
X5.1012Y-2.3869
X5.239Y-2.2491
X5.239Y-2.3869
X5.3768Y-2.2491
X5.3768Y-2.3869
X5.5146Y-2.2491
X5.5146Y-2.3869
X5.6524Y-2.2491
X5.6524Y-2.3869
X5.7902Y-2.2491
X5.7902Y-2.3869
X5.928Y-2.2491
X5.928Y-2.3869
X6.0657Y-2.2491
X6.0657Y-2.3869
X7.6256Y-2.2491
X7.6256Y-2.3869
X7.7634Y-2.2491
X7.7634Y-2.3869
X7.9012Y-2.2491
X7.9012Y-2.3869
X8.039Y-2.2491
X8.039Y-2.3869
X8.1768Y-2.2491
X8.1768Y-2.3869
X8.3146Y-2.2491
X8.3146Y-2.3869
X8.4524Y-2.2491
X8.4524Y-2.3869
X8.5902Y-2.2491
X8.5902Y-2.3869
X8.728Y-2.2491
X8.728Y-2.3869
X8.8657Y-2.2491
X8.8657Y-2.3869
T6
X1.375Y-2.5598
X1.375Y-3.1999
X1.3752Y-3.4
X1.3752Y-4.0402
X9.165Y-5.5999
X9.165Y-6.2401
T7
X1.18Y-2.25
X1.18Y-6.75
X9.35Y-2.7
X9.35Y-6.75
M30
