%TF.GenerationSoftware,KiCad,Pcbnew,9.0.3*%
%TF.CreationDate,2025-10-14T12:15:04-07:00*%
%TF.ProjectId,VCU_v1,5643555f-7631-42e6-9b69-6361645f7063,rev?*%
%TF.SameCoordinates,Original*%
%TF.FileFunction,Copper,L5,Inr*%
%TF.FilePolarity,Positive*%
%FSLAX46Y46*%
G04 Gerber Fmt 4.6, Leading zero omitted, Abs format (unit mm)*
G04 Created by KiCad (PCBNEW 9.0.3) date 2025-10-14 12:15:04*
%MOMM*%
%LPD*%
G01*
G04 APERTURE LIST*
G04 Aperture macros list*
%AMRoundRect*
0 Rectangle with rounded corners*
0 $1 Rounding radius*
0 $2 $3 $4 $5 $6 $7 $8 $9 X,Y pos of 4 corners*
0 Add a 4 corners polygon primitive as box body*
4,1,4,$2,$3,$4,$5,$6,$7,$8,$9,$2,$3,0*
0 Add four circle primitives for the rounded corners*
1,1,$1+$1,$2,$3*
1,1,$1+$1,$4,$5*
1,1,$1+$1,$6,$7*
1,1,$1+$1,$8,$9*
0 Add four rect primitives between the rounded corners*
20,1,$1+$1,$2,$3,$4,$5,0*
20,1,$1+$1,$4,$5,$6,$7,0*
20,1,$1+$1,$6,$7,$8,$9,0*
20,1,$1+$1,$8,$9,$2,$3,0*%
G04 Aperture macros list end*
%TA.AperFunction,ComponentPad*%
%ADD10C,3.600000*%
%TD*%
%TA.AperFunction,ComponentPad*%
%ADD11R,1.500000X1.500000*%
%TD*%
%TA.AperFunction,ComponentPad*%
%ADD12C,1.500000*%
%TD*%
%TA.AperFunction,ComponentPad*%
%ADD13C,2.300000*%
%TD*%
%TA.AperFunction,ComponentPad*%
%ADD14RoundRect,0.250000X0.750000X0.750000X-0.750000X0.750000X-0.750000X-0.750000X0.750000X-0.750000X0*%
%TD*%
%TA.AperFunction,ComponentPad*%
%ADD15C,2.000000*%
%TD*%
%TA.AperFunction,ComponentPad*%
%ADD16RoundRect,0.250000X-0.550000X-0.550000X0.550000X-0.550000X0.550000X0.550000X-0.550000X0.550000X0*%
%TD*%
%TA.AperFunction,ComponentPad*%
%ADD17C,1.600000*%
%TD*%
%TA.AperFunction,ComponentPad*%
%ADD18RoundRect,0.250000X-0.550000X0.550000X-0.550000X-0.550000X0.550000X-0.550000X0.550000X0.550000X0*%
%TD*%
%TA.AperFunction,ComponentPad*%
%ADD19C,2.057400*%
%TD*%
%TA.AperFunction,ComponentPad*%
%ADD20R,1.700000X1.700000*%
%TD*%
%TA.AperFunction,ComponentPad*%
%ADD21C,1.700000*%
%TD*%
%TA.AperFunction,ComponentPad*%
%ADD22RoundRect,0.250000X-0.750000X-0.750000X0.750000X-0.750000X0.750000X0.750000X-0.750000X0.750000X0*%
%TD*%
%TA.AperFunction,ComponentPad*%
%ADD23RoundRect,0.250000X-0.750000X0.750000X-0.750000X-0.750000X0.750000X-0.750000X0.750000X0.750000X0*%
%TD*%
%TA.AperFunction,ComponentPad*%
%ADD24RoundRect,0.250000X0.750000X-0.750000X0.750000X0.750000X-0.750000X0.750000X-0.750000X-0.750000X0*%
%TD*%
%TA.AperFunction,ViaPad*%
%ADD25C,0.609600*%
%TD*%
%TA.AperFunction,Conductor*%
%ADD26C,0.254000*%
%TD*%
G04 APERTURE END LIST*
D10*
%TO.N,unconnected-(H1-Pad1)*%
%TO.C,H1*%
X237490000Y-68580000D03*
%TD*%
D11*
%TO.N,/BRUHbus/CAN2_H*%
%TO.C,J8*%
X34040000Y-98050000D03*
D12*
%TO.N,/BRUHbus/CAN2_L*%
X35820000Y-97034000D03*
%TO.N,GND*%
X34040000Y-96018000D03*
%TO.N,+12V*%
X35820000Y-95002000D03*
X34040000Y-93986000D03*
%TO.N,GND*%
X35820000Y-92970000D03*
%TO.N,/BRUHbus/CAN2_L*%
X34040000Y-91954000D03*
%TO.N,/BRUHbus/CAN2_H*%
X35820000Y-90938000D03*
%TO.N,GND*%
X40640000Y-101350000D03*
%TO.N,Net-(J8-POWER_GOOD)*%
X40640000Y-99060000D03*
%TO.N,GND*%
X40640000Y-89920000D03*
%TO.N,Net-(J8-CAN_IND)*%
X40640000Y-87630000D03*
D13*
%TO.N,Net-(J8-SHIELD)*%
X34930000Y-102620000D03*
X34930000Y-86360000D03*
%TD*%
D11*
%TO.N,/BRUHbus/CAN1_H*%
%TO.C,J7*%
X34036000Y-76708000D03*
D12*
%TO.N,/BRUHbus/CAN1_L*%
X35816000Y-75692000D03*
%TO.N,GND*%
X34036000Y-74676000D03*
%TO.N,+12V*%
X35816000Y-73660000D03*
X34036000Y-72644000D03*
%TO.N,GND*%
X35816000Y-71628000D03*
%TO.N,/BRUHbus/CAN1_L*%
X34036000Y-70612000D03*
%TO.N,/BRUHbus/CAN1_H*%
X35816000Y-69596000D03*
%TO.N,GND*%
X40636000Y-80008000D03*
%TO.N,Net-(J7-POWER_GOOD)*%
X40636000Y-77718000D03*
%TO.N,GND*%
X40636000Y-68578000D03*
%TO.N,Net-(J7-CAN_IND)*%
X40636000Y-66288000D03*
D13*
%TO.N,Net-(J7-SHIELD)*%
X34926000Y-81278000D03*
X34926000Y-65018000D03*
%TD*%
D14*
%TO.N,+12V*%
%TO.C,C65*%
X133431677Y-76224001D03*
D15*
%TO.N,GND*%
X128431677Y-76224001D03*
%TD*%
D16*
%TO.N,+5V*%
%TO.C,C11*%
X177602000Y-163660000D03*
D17*
%TO.N,GND*%
X181102000Y-163660000D03*
%TD*%
D18*
%TO.N,+12V*%
%TO.C,C2*%
X200406000Y-153117349D03*
D17*
%TO.N,GND*%
X200406000Y-156617349D03*
%TD*%
D19*
%TO.N,/Connector-Root/APPS1-SIG*%
%TO.C,U6*%
X82950010Y-60626001D03*
%TO.N,unconnected-(U6-Pad2)*%
X79450009Y-60626001D03*
%TO.N,/Connector-Root/APPS2-SIG*%
X75950008Y-60626001D03*
%TO.N,unconnected-(U6-Pad4)*%
X72450005Y-60626001D03*
%TO.N,/Connector-Root/BSE-SIG*%
X68950005Y-60626001D03*
%TO.N,unconnected-(U6-Pad6)*%
X65450004Y-60626001D03*
%TO.N,/STM32-Root/STM32H723ZGT6/PG4*%
X61950003Y-60626001D03*
%TO.N,+4.8V*%
X58450003Y-60626001D03*
X54950002Y-60626001D03*
X51450001Y-60626001D03*
%TO.N,/BRUHbus/CAN1_L*%
X82950010Y-57125999D03*
%TO.N,/BRUHbus/CAN1_H*%
X79450009Y-57125999D03*
%TO.N,/Connector-Root/RTD_BTN+*%
X75950008Y-57125999D03*
%TO.N,/Connector-Root/RTD_BTN-*%
X72450005Y-57125999D03*
%TO.N,/Connector-Root/PRECHARGE_BTN+*%
X68950005Y-57125999D03*
%TO.N,/Connector-Root/PRECHARGE_BTN-*%
X65450004Y-57125999D03*
%TO.N,/STM32-Root/STM32H723ZGT6/PB15*%
X61950003Y-57125999D03*
%TO.N,GND*%
X58450003Y-57125999D03*
X54950002Y-57125999D03*
X51450001Y-57125999D03*
%TD*%
%TO.N,/Connector-Root/Vin+*%
%TO.C,U7*%
X154070010Y-60626001D03*
%TO.N,/STM32-Root/STM32H723ZGT6/PG14*%
X150570009Y-60626001D03*
%TO.N,/STM32-Root/STM32H723ZGT6/PG12*%
X147070008Y-60626001D03*
%TO.N,/STM32-Root/STM32H723ZGT6/PG9*%
X143570005Y-60626001D03*
%TO.N,/STM32-Root/STM32H723ZGT6/PG5*%
X140070005Y-60626001D03*
%TO.N,/Connector-Root/BSPD-FAULT*%
X136570004Y-60626001D03*
%TO.N,/Connector-Root/IMD-FAULT*%
X133070003Y-60626001D03*
%TO.N,/Connector-Root/BMS-FAULT*%
X129570003Y-60626001D03*
%TO.N,/Connector-Root/SPEAKER-*%
X126070002Y-60626001D03*
%TO.N,/Connector-Root/SPEAKER+*%
X122570001Y-60626001D03*
%TO.N,GND*%
X154070010Y-57125999D03*
%TO.N,/STM32-Root/STM32H723ZGT6/PG15*%
X150570009Y-57125999D03*
%TO.N,/STM32-Root/STM32H723ZGT6/PG13*%
X147070008Y-57125999D03*
%TO.N,/STM32-Root/STM32H723ZGT6/PG11*%
X143570005Y-57125999D03*
%TO.N,/STM32-Root/STM32H723ZGT6/PG10*%
X140070005Y-57125999D03*
%TO.N,/STM32-Root/STM32H723ZGT6/PG8*%
X136570004Y-57125999D03*
%TO.N,/STM32-Root/STM32H723ZGT6/PG7*%
X133070003Y-57125999D03*
%TO.N,/STM32-Root/STM32H723ZGT6/PG6*%
X129570003Y-57125999D03*
%TO.N,/STM32-Root/STM32H723ZGT6/PE10*%
X126070002Y-57125999D03*
%TO.N,/STM32-Root/STM32H723ZGT6/PE11*%
X122570001Y-57125999D03*
%TD*%
D20*
%TO.N,unconnected-(JP3-A-Pad1)*%
%TO.C,JP3*%
X237490000Y-136652000D03*
D21*
%TO.N,Net-(JP3-C)*%
X237490000Y-134112000D03*
%TO.N,/BRUHbus/CAN2_L*%
X237490000Y-131572000D03*
%TD*%
D22*
%TO.N,+12V*%
%TO.C,C66*%
X117843677Y-76224001D03*
D15*
%TO.N,GND*%
X122843677Y-76224001D03*
%TD*%
D20*
%TO.N,+3.3V*%
%TO.C,JP1*%
X31750000Y-144018000D03*
D21*
%TO.N,Net-(JP1-C)*%
X31750000Y-146558000D03*
%TO.N,GND*%
X31750000Y-149098000D03*
%TD*%
D20*
%TO.N,+3.3V*%
%TO.C,J1*%
X27432000Y-106680000D03*
D21*
%TO.N,/STM32-Root/STM32H723ZGT6/PA14*%
X29972000Y-106680000D03*
%TO.N,GND*%
X32512000Y-106680000D03*
%TO.N,/STM32-Root/STM32H723ZGT6/PA13*%
X35052000Y-106680000D03*
%TD*%
D23*
%TO.N,+3.3V*%
%TO.C,C53*%
X196957990Y-94673678D03*
D15*
%TO.N,GND*%
X196957990Y-99673678D03*
%TD*%
D11*
%TO.N,/BRUHbus/CAN2_H*%
%TO.C,J6*%
X233680000Y-146808000D03*
D12*
%TO.N,/BRUHbus/CAN2_L*%
X231900000Y-147824000D03*
%TO.N,unconnected-(J6--Vs-Pad3)*%
X233680000Y-148840000D03*
%TO.N,Net-(J6-+Vs-Pad4)*%
X231900000Y-149856000D03*
X233680000Y-150872000D03*
%TO.N,unconnected-(J6--Vs-Pad6)*%
X231900000Y-151888000D03*
%TO.N,/BRUHbus/CAN2_L*%
X233680000Y-152904000D03*
%TO.N,/BRUHbus/CAN2_H*%
X231900000Y-153920000D03*
%TO.N,GND*%
X227080000Y-143508000D03*
%TO.N,Net-(J6-POWER_GOOD)*%
X227080000Y-145798000D03*
%TO.N,GND*%
X227080000Y-154938000D03*
%TO.N,Net-(J6-CAN_IND)*%
X227080000Y-157228000D03*
D13*
%TO.N,Net-(J6-SHIELD)*%
X232790000Y-142238000D03*
X232790000Y-158498000D03*
%TD*%
D20*
%TO.N,unconnected-(JP2-A-Pad1)*%
%TO.C,JP2*%
X95250000Y-87630000D03*
D21*
%TO.N,Net-(JP2-C)*%
X92710000Y-87630000D03*
%TO.N,/BRUHbus/CAN1_L*%
X90170000Y-87630000D03*
%TD*%
D24*
%TO.N,+3.3V*%
%TO.C,C76*%
X158603990Y-94339678D03*
D15*
%TO.N,GND*%
X158603990Y-89339678D03*
%TD*%
D10*
%TO.N,unconnected-(H2-Pad1)_1*%
%TO.C,H2*%
X29972000Y-57150000D03*
%TD*%
D20*
%TO.N,/STM32-Root/STM32H723ZGT6/PC9*%
%TO.C,J3*%
X68580000Y-111760000D03*
D21*
%TO.N,unconnected-(J3-Pin_2-Pad2)*%
X68580000Y-109220000D03*
%TO.N,unconnected-(J3-Pin_3-Pad3)*%
X71120000Y-111760000D03*
%TO.N,unconnected-(J3-Pin_4-Pad4)*%
X71120000Y-109220000D03*
%TO.N,unconnected-(J3-Pin_5-Pad5)*%
X73660000Y-111760000D03*
%TO.N,unconnected-(J3-Pin_6-Pad6)*%
X73660000Y-109220000D03*
%TO.N,unconnected-(J3-Pin_7-Pad7)*%
X76200000Y-111760000D03*
%TO.N,unconnected-(J3-Pin_8-Pad8)*%
X76200000Y-109220000D03*
%TO.N,GND*%
X78740000Y-111760000D03*
%TO.N,unconnected-(J3-Pin_10-Pad10)*%
X78740000Y-109220000D03*
%TO.N,/STM32-Root/STM32H723ZGT6/PA5*%
X81280000Y-111760000D03*
%TO.N,unconnected-(J3-Pin_12-Pad12)*%
X81280000Y-109220000D03*
%TO.N,/STM32-Root/STM32H723ZGT6/PA6*%
X83820000Y-111760000D03*
%TO.N,unconnected-(J3-Pin_14-Pad14)*%
X83820000Y-109220000D03*
%TO.N,/STM32-Root/STM32H723ZGT6/PA7*%
X86360000Y-111760000D03*
%TO.N,/STM32-Root/STM32H723ZGT6/PB12*%
X86360000Y-109220000D03*
%TO.N,/STM32-Root/STM32H723ZGT6/PB6*%
X88900000Y-111760000D03*
%TO.N,unconnected-(J3-Pin_18-Pad18)*%
X88900000Y-109220000D03*
%TO.N,unconnected-(J3-Pin_19-Pad19)*%
X91440000Y-111760000D03*
%TO.N,GND*%
X91440000Y-109220000D03*
%TO.N,unconnected-(J3-Pin_21-Pad21)*%
X93980000Y-111760000D03*
%TO.N,unconnected-(J3-Pin_22-Pad22)*%
X93980000Y-109220000D03*
%TO.N,unconnected-(J3-Pin_23-Pad23)*%
X96520000Y-111760000D03*
%TO.N,unconnected-(J3-Pin_24-Pad24)*%
X96520000Y-109220000D03*
%TO.N,/STM32-Root/STM32H723ZGT6/PB10*%
X99060000Y-111760000D03*
%TO.N,/STM32-Root/STM32H723ZGT6/PB15*%
X99060000Y-109220000D03*
%TO.N,unconnected-(J3-Pin_27-Pad27)*%
X101600000Y-111760000D03*
%TO.N,unconnected-(J3-Pin_28-Pad28)*%
X101600000Y-109220000D03*
%TO.N,/STM32-Root/STM32H723ZGT6/PB5*%
X104140000Y-111760000D03*
%TO.N,/STM32-Root/STM32H723ZGT6/PB13*%
X104140000Y-109220000D03*
%TO.N,unconnected-(J3-Pin_31-Pad31)*%
X106680000Y-111760000D03*
%TO.N,GND*%
X106680000Y-109220000D03*
%TO.N,unconnected-(J3-Pin_33-Pad33)*%
X109220000Y-111760000D03*
%TO.N,unconnected-(J3-Pin_34-Pad34)*%
X109220000Y-109220000D03*
%TO.N,/STM32-Root/STM32H723ZGT6/PA2*%
X111760000Y-111760000D03*
%TO.N,unconnected-(J3-Pin_36-Pad36)*%
X111760000Y-109220000D03*
%TO.N,unconnected-(J3-Pin_37-Pad37)*%
X114300000Y-111760000D03*
%TO.N,unconnected-(J3-Pin_38-Pad38)*%
X114300000Y-109220000D03*
%TO.N,GND*%
X116840000Y-111760000D03*
%TO.N,/STM32-Root/STM32H723ZGT6/PE8*%
X116840000Y-109220000D03*
%TO.N,unconnected-(J3-Pin_41-Pad41)*%
X119380000Y-111760000D03*
%TO.N,/STM32-Root/STM32H723ZGT6/PF10*%
X119380000Y-109220000D03*
%TO.N,unconnected-(J3-Pin_43-Pad43)*%
X121920000Y-111760000D03*
%TO.N,/STM32-Root/STM32H723ZGT6/PE7*%
X121920000Y-109220000D03*
%TO.N,unconnected-(J3-Pin_45-Pad45)*%
X124460000Y-111760000D03*
%TO.N,unconnected-(J3-Pin_46-Pad46)*%
X124460000Y-109220000D03*
%TO.N,unconnected-(J3-Pin_47-Pad47)*%
X127000000Y-111760000D03*
%TO.N,unconnected-(J3-Pin_48-Pad48)*%
X127000000Y-109220000D03*
%TO.N,unconnected-(J3-Pin_49-Pad49)*%
X129540000Y-111760000D03*
%TO.N,/STM32-Root/STM32H723ZGT6/PF14*%
X129540000Y-109220000D03*
%TO.N,unconnected-(J3-Pin_51-Pad51)*%
X132080000Y-111760000D03*
%TO.N,/STM32-Root/STM32H723ZGT6/PE9*%
X132080000Y-109220000D03*
%TO.N,unconnected-(J3-Pin_53-Pad53)*%
X134620000Y-111760000D03*
%TO.N,GND*%
X134620000Y-109220000D03*
%TO.N,unconnected-(J3-Pin_55-Pad55)*%
X137160000Y-111760000D03*
%TO.N,unconnected-(J3-Pin_56-Pad56)*%
X137160000Y-109220000D03*
%TO.N,unconnected-(J3-Pin_57-Pad57)*%
X139700000Y-111760000D03*
%TO.N,unconnected-(J3-Pin_58-Pad58)*%
X139700000Y-109220000D03*
%TO.N,unconnected-(J3-Pin_59-Pad59)*%
X142240000Y-111760000D03*
%TO.N,/STM32-Root/STM32H723ZGT6/PF15*%
X142240000Y-109220000D03*
%TO.N,unconnected-(J3-Pin_61-Pad61)*%
X144780000Y-111760000D03*
%TO.N,unconnected-(J3-Pin_62-Pad62)*%
X144780000Y-109220000D03*
%TO.N,GND*%
X147320000Y-111760000D03*
%TO.N,unconnected-(J3-Pin_64-Pad64)*%
X147320000Y-109220000D03*
%TO.N,unconnected-(J3-Pin_65-Pad65)*%
X149860000Y-111760000D03*
%TO.N,unconnected-(J3-Pin_66-Pad66)*%
X149860000Y-109220000D03*
%TO.N,unconnected-(J3-Pin_67-Pad67)*%
X152400000Y-111760000D03*
%TO.N,unconnected-(J3-Pin_68-Pad68)*%
X152400000Y-109220000D03*
%TO.N,unconnected-(J3-Pin_69-Pad69)*%
X154940000Y-111760000D03*
%TO.N,unconnected-(J3-Pin_70-Pad70)*%
X154940000Y-109220000D03*
%TD*%
D10*
%TO.N,unconnected-(H3-Pad1)_1*%
%TO.C,H3*%
X237490000Y-171450000D03*
%TD*%
D23*
%TO.N,Net-(U14-LDOO)*%
%TO.C,C61*%
X207625990Y-94673678D03*
D15*
%TO.N,GND*%
X207625990Y-99673678D03*
%TD*%
D10*
%TO.N,unconnected-(H4-Pad1)_2*%
%TO.C,H4*%
X29972000Y-171450000D03*
%TD*%
D24*
%TO.N,+5V*%
%TO.C,C13*%
X188976000Y-166200000D03*
D15*
%TO.N,GND*%
X188976000Y-161200000D03*
%TD*%
D24*
%TO.N,+3.3V*%
%TO.C,C80*%
X169271990Y-94339678D03*
D15*
%TO.N,GND*%
X169271990Y-89339678D03*
%TD*%
D19*
%TO.N,unconnected-(U8-Pad1)*%
%TO.C,U8*%
X225190010Y-60626001D03*
%TO.N,unconnected-(U8-Pad2)*%
X221690009Y-60626001D03*
%TO.N,/Connector-Root/GEN_BTN1+*%
X218190008Y-60626001D03*
%TO.N,/Connector-Root/GEN_BTN2+*%
X214690005Y-60626001D03*
%TO.N,/STM32-Root/STM32H723ZGT6/PG2*%
X211190005Y-60626001D03*
%TO.N,/STM32-Root/STM32H723ZGT6/PG3*%
X207690004Y-60626001D03*
%TO.N,/Connector-Root/BRAKE_LIGHT*%
X204190003Y-60626001D03*
%TO.N,/Connector-Root/BSPD_FAULT+*%
X200690003Y-60626001D03*
%TO.N,/Connector-Root/IMD_FAULT+*%
X197190002Y-60626001D03*
%TO.N,/Connector-Root/BMS_FAULT+*%
X193690001Y-60626001D03*
%TO.N,unconnected-(U8-Pad11)*%
X225190010Y-57125999D03*
%TO.N,unconnected-(U8-Pad12)*%
X221690009Y-57125999D03*
%TO.N,/Connector-Root/GEN_BTN1-*%
X218190008Y-57125999D03*
%TO.N,/Connector-Root/GEN_BTN2-*%
X214690005Y-57125999D03*
%TO.N,/STM32-Root/STM32H723ZGT6/PA2*%
X211190005Y-57125999D03*
%TO.N,/STM32-Root/STM32H723ZGT6/PA1*%
X207690004Y-57125999D03*
%TO.N,/STM32-Root/STM32H723ZGT6/PA0*%
X204190003Y-57125999D03*
%TO.N,GND*%
X200690003Y-57125999D03*
X197190002Y-57125999D03*
X193690001Y-57125999D03*
%TD*%
D20*
%TO.N,/STM32-Root/STM32H723ZGT6/PC10*%
%TO.C,J2*%
X68580000Y-172720000D03*
D21*
%TO.N,/STM32-Root/STM32H723ZGT6/PC11*%
X68580000Y-170180000D03*
%TO.N,/STM32-Root/STM32H723ZGT6/PC12*%
X71120000Y-172720000D03*
%TO.N,/STM32-Root/STM32H723ZGT6/PD2*%
X71120000Y-170180000D03*
%TO.N,unconnected-(J2-Pin_5-Pad5)*%
X73660000Y-172720000D03*
%TO.N,+5V*%
X73660000Y-170180000D03*
%TO.N,unconnected-(J2-Pin_7-Pad7)*%
X76200000Y-172720000D03*
%TO.N,GND*%
X76200000Y-170180000D03*
%TO.N,unconnected-(J2-Pin_9-Pad9)*%
X78740000Y-172720000D03*
%TO.N,unconnected-(J2-Pin_10-Pad10)*%
X78740000Y-170180000D03*
%TO.N,unconnected-(J2-Pin_11-Pad11)*%
X81280000Y-172720000D03*
%TO.N,unconnected-(J2-Pin_12-Pad12)*%
X81280000Y-170180000D03*
%TO.N,unconnected-(J2-Pin_13-Pad13)*%
X83820000Y-172720000D03*
%TO.N,unconnected-(J2-Pin_14-Pad14)*%
X83820000Y-170180000D03*
%TO.N,unconnected-(J2-Pin_15-Pad15)*%
X86360000Y-172720000D03*
%TO.N,unconnected-(J2-Pin_16-Pad16)*%
X86360000Y-170180000D03*
%TO.N,unconnected-(J2-Pin_17-Pad17)*%
X88900000Y-172720000D03*
%TO.N,unconnected-(J2-Pin_18-Pad18)*%
X88900000Y-170180000D03*
%TO.N,GND*%
X91440000Y-172720000D03*
X91440000Y-170180000D03*
%TO.N,unconnected-(J2-Pin_21-Pad21)*%
X93980000Y-172720000D03*
%TO.N,GND*%
X93980000Y-170180000D03*
%TO.N,unconnected-(J2-Pin_23-Pad23)*%
X96520000Y-172720000D03*
%TO.N,unconnected-(J2-Pin_24-Pad24)*%
X96520000Y-170180000D03*
%TO.N,unconnected-(J2-Pin_25-Pad25)*%
X99060000Y-172720000D03*
%TO.N,unconnected-(J2-Pin_26-Pad26)*%
X99060000Y-170180000D03*
%TO.N,unconnected-(J2-Pin_27-Pad27)*%
X101600000Y-172720000D03*
%TO.N,/STM32-Root/STM32H723ZGT6/PA0*%
X101600000Y-170180000D03*
%TO.N,unconnected-(J2-Pin_29-Pad29)*%
X104140000Y-172720000D03*
%TO.N,/STM32-Root/STM32H723ZGT6/PA1*%
X104140000Y-170180000D03*
%TO.N,unconnected-(J2-Pin_31-Pad31)*%
X106680000Y-172720000D03*
%TO.N,unconnected-(J2-Pin_32-Pad32)*%
X106680000Y-170180000D03*
%TO.N,/STM32-Root/STM32H723ZGT6/VBAT*%
X109220000Y-172720000D03*
%TO.N,unconnected-(J2-Pin_34-Pad34)*%
X109220000Y-170180000D03*
%TO.N,/STM32-Root/STM32H723ZGT6/PC2*%
X111760000Y-172720000D03*
%TO.N,/STM32-Root/STM32H723ZGT6/PC1*%
X111760000Y-170180000D03*
%TO.N,unconnected-(J2-Pin_37-Pad37)*%
X114300000Y-172720000D03*
%TO.N,unconnected-(J2-Pin_38-Pad38)*%
X114300000Y-170180000D03*
%TO.N,unconnected-(J2-Pin_39-Pad39)*%
X116840000Y-172720000D03*
%TO.N,unconnected-(J2-Pin_40-Pad40)*%
X116840000Y-170180000D03*
%TO.N,unconnected-(J2-Pin_41-Pad41)*%
X119380000Y-172720000D03*
%TO.N,unconnected-(J2-Pin_42-Pad42)*%
X119380000Y-170180000D03*
%TO.N,unconnected-(J2-Pin_43-Pad43)*%
X121920000Y-172720000D03*
%TO.N,unconnected-(J2-Pin_44-Pad44)*%
X121920000Y-170180000D03*
%TO.N,unconnected-(J2-Pin_45-Pad45)*%
X124460000Y-172720000D03*
%TO.N,unconnected-(J2-Pin_46-Pad46)*%
X124460000Y-170180000D03*
%TO.N,unconnected-(J2-Pin_47-Pad47)*%
X127000000Y-172720000D03*
%TO.N,unconnected-(J2-Pin_48-Pad48)*%
X127000000Y-170180000D03*
%TO.N,GND*%
X129540000Y-172720000D03*
%TO.N,unconnected-(J2-Pin_50-Pad50)*%
X129540000Y-170180000D03*
%TO.N,unconnected-(J2-Pin_51-Pad51)*%
X132080000Y-172720000D03*
%TO.N,unconnected-(J2-Pin_52-Pad52)*%
X132080000Y-170180000D03*
%TO.N,unconnected-(J2-Pin_53-Pad53)*%
X134620000Y-172720000D03*
%TO.N,/STM32-Root/STM32H723ZGT6/PF8*%
X134620000Y-170180000D03*
%TO.N,/STM32-Root/STM32H723ZGT6/PD1*%
X137160000Y-172720000D03*
%TO.N,unconnected-(J2-Pin_56-Pad56)*%
X137160000Y-170180000D03*
%TO.N,/STM32-Root/STM32H723ZGT6/PD0*%
X139700000Y-172720000D03*
%TO.N,unconnected-(J2-Pin_58-Pad58)*%
X139700000Y-170180000D03*
%TO.N,unconnected-(J2-Pin_59-Pad59)*%
X142240000Y-172720000D03*
%TO.N,GND*%
X142240000Y-170180000D03*
%TO.N,unconnected-(J2-Pin_61-Pad61)*%
X144780000Y-172720000D03*
%TO.N,unconnected-(J2-Pin_62-Pad62)*%
X144780000Y-170180000D03*
%TO.N,unconnected-(J2-Pin_63-Pad63)*%
X147320000Y-172720000D03*
%TO.N,unconnected-(J2-Pin_64-Pad64)*%
X147320000Y-170180000D03*
%TO.N,unconnected-(J2-Pin_65-Pad65)*%
X149860000Y-172720000D03*
%TO.N,unconnected-(J2-Pin_66-Pad66)*%
X149860000Y-170180000D03*
%TO.N,unconnected-(J2-Pin_67-Pad67)*%
X152400000Y-172720000D03*
%TO.N,unconnected-(J2-Pin_68-Pad68)*%
X152400000Y-170180000D03*
%TO.N,unconnected-(J2-Pin_69-Pad69)*%
X154940000Y-172720000D03*
%TO.N,unconnected-(J2-Pin_70-Pad70)*%
X154940000Y-170180000D03*
%TD*%
D25*
%TO.N,/STM32-Root/STM32H723ZGT6/VBAT*%
X97282000Y-156845000D03*
%TO.N,GND*%
X28575000Y-127127000D03*
X187198000Y-152654000D03*
X191008000Y-159766000D03*
X69215000Y-79121000D03*
X49530000Y-75184000D03*
X187198000Y-156718000D03*
X70866000Y-95377000D03*
X121412000Y-91440000D03*
X131318000Y-99314000D03*
X174371000Y-96520000D03*
X125222000Y-88138000D03*
X46355000Y-138049000D03*
X128270000Y-97282000D03*
X133858000Y-70866000D03*
X89662000Y-138430000D03*
X193040000Y-156972000D03*
X193040000Y-161036000D03*
X238760000Y-89662000D03*
X46432800Y-143129000D03*
X97790000Y-68580000D03*
X58928000Y-125780800D03*
X192024000Y-158496000D03*
X238760000Y-80137000D03*
X92202000Y-131572000D03*
X184023000Y-99568000D03*
X126746000Y-89154000D03*
X61849000Y-150622000D03*
X195072000Y-158496000D03*
X62738000Y-156718000D03*
X114977505Y-68418001D03*
X210464400Y-74168000D03*
X118872000Y-89662000D03*
X207772000Y-166370000D03*
X188214000Y-156718000D03*
X54356000Y-150622000D03*
X238760000Y-94615000D03*
X64897000Y-142748000D03*
X90170000Y-122682000D03*
X89789000Y-65405000D03*
X94488000Y-126492000D03*
X196596000Y-158496000D03*
X52425100Y-126797900D03*
X71628000Y-133019800D03*
X28575000Y-109855000D03*
X36830000Y-109855000D03*
X228346000Y-162560000D03*
X80518000Y-145796000D03*
X133350000Y-98298000D03*
X33020000Y-116332000D03*
X183007000Y-100330000D03*
X238760000Y-84963000D03*
X174371000Y-97536000D03*
X115570000Y-66421000D03*
X183007000Y-98806000D03*
X133096000Y-89408000D03*
X65024000Y-149885400D03*
X181864000Y-162052000D03*
X53594000Y-131848501D03*
X41529000Y-148971000D03*
X180848000Y-161036000D03*
X98425000Y-92456000D03*
X184912000Y-100330000D03*
X128270000Y-89154000D03*
X94234000Y-72136000D03*
X128016000Y-91440000D03*
X43434000Y-85979000D03*
X129032000Y-91440000D03*
X193548000Y-158496000D03*
X52959000Y-156464000D03*
X188214000Y-152654000D03*
X67691800Y-68707000D03*
X182880000Y-101854000D03*
X71223617Y-138262199D03*
X41402000Y-137414000D03*
X68453000Y-118745000D03*
X68580000Y-120396000D03*
X127508000Y-90170000D03*
X84579389Y-147114391D03*
X69850000Y-130937000D03*
X70231000Y-144145000D03*
X50800000Y-64008000D03*
X67310000Y-157226000D03*
X121412000Y-88138000D03*
X93726000Y-130302000D03*
X126492000Y-88138000D03*
X129794000Y-91440000D03*
X217424000Y-143764000D03*
X127762000Y-88138000D03*
X59690000Y-82423000D03*
X194056000Y-159766000D03*
X184912000Y-97409000D03*
X48514000Y-156845000D03*
X122682000Y-88138000D03*
X59436000Y-131826000D03*
X59167300Y-169672000D03*
X196088000Y-156972000D03*
X48768000Y-105824000D03*
X56388000Y-155575000D03*
X197612000Y-156972000D03*
X128016000Y-95504000D03*
X133350000Y-93980000D03*
X87503000Y-143891000D03*
X52070000Y-156845000D03*
X130302000Y-94488000D03*
X125984000Y-91440000D03*
X68580000Y-164338000D03*
X238760000Y-99314000D03*
X193937611Y-77724000D03*
X223139000Y-143002000D03*
X52451000Y-159131000D03*
X212090000Y-167386000D03*
X49276000Y-127000000D03*
X129032000Y-90170000D03*
X67945000Y-71755000D03*
X69977000Y-148082000D03*
X189230000Y-156718000D03*
X124206000Y-90678000D03*
X41402000Y-142494000D03*
X184912000Y-98679000D03*
X86360000Y-82804000D03*
X209931000Y-67945000D03*
X129032000Y-88138000D03*
X121920000Y-101600000D03*
X121920000Y-89408000D03*
X64516000Y-156718000D03*
X221742000Y-75539600D03*
X51816000Y-82169000D03*
X184023000Y-101092000D03*
X68580000Y-160020000D03*
X185039000Y-101727000D03*
X123952000Y-151638000D03*
X51054000Y-82677000D03*
X191516000Y-161036000D03*
X88646000Y-71120000D03*
X67310000Y-127508000D03*
X188214000Y-75692000D03*
X43180000Y-101346000D03*
X182880000Y-161036000D03*
X137541000Y-88138000D03*
X89154000Y-141605000D03*
X66421000Y-100838000D03*
X192532000Y-159766000D03*
X118364000Y-65405000D03*
X173355000Y-97536000D03*
X47371000Y-131826000D03*
X87757000Y-93599000D03*
X172974000Y-104013000D03*
X173355000Y-96520000D03*
X184912000Y-161036000D03*
X127000000Y-91440000D03*
X46355000Y-125984000D03*
X239649000Y-112776000D03*
X46228000Y-83947000D03*
X198120000Y-158496000D03*
X51562000Y-69088000D03*
X123444000Y-89408000D03*
X129794000Y-89154000D03*
X45720000Y-101600000D03*
X62484000Y-159258000D03*
X125984000Y-90170000D03*
X36830000Y-127127000D03*
X194564000Y-156972000D03*
X133477000Y-69088000D03*
X121920000Y-99822000D03*
X184023000Y-98044000D03*
X130302000Y-88138000D03*
X77216000Y-99822000D03*
X191389000Y-77724000D03*
X123952000Y-88138000D03*
X79248000Y-68072000D03*
X131953000Y-71109250D03*
X36233200Y-148905700D03*
X76708000Y-72898000D03*
X55667300Y-169672000D03*
X221869000Y-157734000D03*
X61468000Y-68961000D03*
X64897000Y-138430000D03*
X189230000Y-152654000D03*
X86614000Y-131572000D03*
X196596000Y-74803000D03*
X239456146Y-107893951D03*
X116586000Y-89662000D03*
X92075000Y-66294000D03*
X73152000Y-75184000D03*
X61341000Y-78740000D03*
X50165000Y-81280000D03*
X124968000Y-89408000D03*
X61087000Y-156718000D03*
X50513300Y-153508357D03*
X183896000Y-162052000D03*
X122682000Y-90678000D03*
%TO.N,+5V*%
X193802000Y-165862000D03*
X49911000Y-71882000D03*
X192024000Y-166878000D03*
X191262000Y-165862000D03*
X53594000Y-76835000D03*
X48641000Y-70993000D03*
X48641000Y-68072000D03*
X72263000Y-89535000D03*
X85598000Y-72898000D03*
X48641000Y-72644000D03*
X72136000Y-127508000D03*
X48641000Y-69469000D03*
X190754000Y-164846000D03*
X192024000Y-164846000D03*
X74930000Y-77216000D03*
X90043000Y-89789000D03*
X193294000Y-166878000D03*
X192532000Y-165862000D03*
X72136000Y-124968000D03*
X193294000Y-164846000D03*
X190754000Y-166878000D03*
%TO.N,+3.3V*%
X73660000Y-120904000D03*
X76638583Y-139325601D03*
X68148200Y-130911600D03*
X75184000Y-103759000D03*
X72898000Y-122174000D03*
X174625000Y-117475000D03*
X176530000Y-109855000D03*
X178435000Y-109855000D03*
X175895000Y-118745000D03*
X173990000Y-113665000D03*
X65151000Y-153924000D03*
X43021001Y-137414000D03*
X188722000Y-98298000D03*
X74168000Y-122174000D03*
X173990000Y-108585000D03*
X175895000Y-113665000D03*
X46101000Y-149733000D03*
X178435000Y-117475000D03*
X177800000Y-111125000D03*
X179578000Y-102565200D03*
X176530000Y-114935000D03*
X76835000Y-101600000D03*
X175895000Y-111125000D03*
X224536000Y-73406000D03*
X174625000Y-114935000D03*
X176530000Y-112395000D03*
X52959000Y-154686000D03*
X73660000Y-123444000D03*
X72390000Y-120904000D03*
X177800000Y-116205000D03*
X173990000Y-111125000D03*
X199644000Y-94742000D03*
X74168000Y-119888000D03*
X55118000Y-67437000D03*
X202692000Y-72136000D03*
X72390000Y-123444000D03*
X59944000Y-95250000D03*
X175895000Y-116205000D03*
X178435000Y-114935000D03*
X65235557Y-67868109D03*
X72898000Y-119888000D03*
X176530000Y-117475000D03*
X173990000Y-116205000D03*
X66040000Y-76581000D03*
X174244000Y-94488000D03*
X60198000Y-154813000D03*
X69850000Y-138740400D03*
X43053000Y-142494000D03*
X56388000Y-153924000D03*
X68199000Y-149987000D03*
X77025500Y-129730500D03*
X61913647Y-154829710D03*
X174625000Y-112395000D03*
X173990000Y-118745000D03*
X174625000Y-107315000D03*
X98552000Y-94234000D03*
X57912000Y-128625600D03*
X214122000Y-73660000D03*
X177800000Y-118745000D03*
X43180000Y-148971000D03*
X74930000Y-123444000D03*
X174625000Y-109855000D03*
X68509299Y-144145000D03*
X177800000Y-108585000D03*
X178435000Y-107315000D03*
X45593000Y-128651000D03*
X96647000Y-96520000D03*
X52324000Y-128676400D03*
X215646000Y-71882000D03*
X74930000Y-120904000D03*
X77368400Y-139325600D03*
X178435000Y-112395000D03*
X175895000Y-108585000D03*
X176530000Y-107315000D03*
X177800000Y-113665000D03*
X55499000Y-73787000D03*
X33020000Y-118491000D03*
%TO.N,/STM32-Root/STM32H723ZGT6/PC2*%
X59361800Y-145721800D03*
%TO.N,/STM32-Root/STM32H723ZGT6/PF10*%
X84221501Y-71267501D03*
%TO.N,/STM32-Root/STM32H723ZGT6/PF8*%
X58039000Y-142494000D03*
%TO.N,/STM32-Root/STM32H723ZGT6/PF14*%
X59451850Y-108458000D03*
X53941515Y-92484150D03*
X75532908Y-126205908D03*
%TO.N,/STM32-Root/STM32H723ZGT6/PF15*%
X120269000Y-118900867D03*
X60213633Y-110236000D03*
X122682000Y-118999000D03*
X54480333Y-91945333D03*
X73914000Y-126746000D03*
%TO.N,/STM32-Root/STM32H723ZGT6/PG0*%
X73082400Y-140494000D03*
X103554442Y-140486042D03*
%TO.N,/STM32-Root/STM32H723ZGT6/PG1*%
X104343200Y-139801600D03*
X71678800Y-139909800D03*
%TO.N,/STM32-Root/STM32H723ZGT6/PA14*%
X42926000Y-131699000D03*
%TO.N,/STM32-Root/STM32H723ZGT6/PA13*%
X43624500Y-129476500D03*
%TO.N,/STM32-Root/STM32H723ZGT6/PA0*%
X95250000Y-146177000D03*
%TO.N,/STM32-Root/STM32H723ZGT6/PG2*%
X57302400Y-121513600D03*
X169062400Y-108204000D03*
X66598800Y-105664000D03*
%TO.N,/STM32-Root/STM32H723ZGT6/PC12*%
X47117000Y-134443800D03*
%TO.N,/STM32-Root/STM32H723ZGT6/PG11*%
X50038000Y-141478000D03*
%TO.N,/STM32-Root/STM32H723ZGT6/PG15*%
X48236333Y-144699723D03*
%TO.N,/STM32-Root/STM32H723ZGT6/PG10*%
X50546000Y-140716000D03*
%TO.N,/STM32-Root/STM32H723ZGT6/PG13*%
X49022000Y-143002000D03*
%TO.N,/STM32-Root/STM32H723ZGT6/PG9*%
X51054000Y-139954000D03*
%TO.N,/STM32-Root/STM32H723ZGT6/PD1*%
X56261000Y-99568000D03*
X46863000Y-135558200D03*
%TO.N,/STM32-Root/STM32H723ZGT6/PG3*%
X56718200Y-122631200D03*
X169621200Y-107543600D03*
X67665600Y-104648000D03*
%TO.N,/STM32-Root/STM32H723ZGT6/PA1*%
X96202500Y-146113500D03*
%TO.N,/STM32-Root/STM32H723ZGT6/PG12*%
X49530000Y-142240000D03*
%TO.N,/STM32-Root/STM32H723ZGT6/PD0*%
X50610200Y-132777800D03*
X51562000Y-88538808D03*
X56007000Y-103505000D03*
%TO.N,/STM32-Root/STM32H723ZGT6/PC11*%
X41910000Y-133889200D03*
X37575159Y-120666841D03*
X39403816Y-133824184D03*
X35306000Y-120701000D03*
%TO.N,/STM32-Root/STM32H723ZGT6/PC1*%
X162052000Y-130810000D03*
X59786301Y-150495000D03*
X133096000Y-148844000D03*
%TO.N,/STM32-Root/STM32H723ZGT6/PC10*%
X40609800Y-124455224D03*
X38491200Y-124460000D03*
X41275000Y-133096000D03*
X38491200Y-131953000D03*
%TO.N,/STM32-Root/STM32H723ZGT6/PD2*%
X49149000Y-136144000D03*
X36576000Y-119253000D03*
X34814841Y-119617159D03*
%TO.N,/STM32-Root/STM32H723ZGT6/PB12*%
X64427701Y-128143000D03*
X162444047Y-131463412D03*
%TO.N,/STM32-Root/STM32H723ZGT6/PG8*%
X55512000Y-135268000D03*
%TO.N,/STM32-Root/STM32H723ZGT6/PG14*%
X48514000Y-143968800D03*
%TO.N,/STM32-Root/STM32H723ZGT6/PB15*%
X61912500Y-85915500D03*
%TO.N,/STM32-Root/STM32H723ZGT6/PG5*%
X57417000Y-133363000D03*
%TO.N,/STM32-Root/STM32H723ZGT6/PE10*%
X74295000Y-131329700D03*
%TO.N,/STM32-Root/STM32H723ZGT6/PC9*%
X50370338Y-111808662D03*
%TO.N,/STM32-Root/STM32H723ZGT6/PE7*%
X64897000Y-139573000D03*
X89331800Y-132327400D03*
X76708000Y-138262200D03*
%TO.N,/STM32-Root/STM32H723ZGT6/PE9*%
X76454000Y-142494000D03*
X68511132Y-138939000D03*
X84582000Y-139325600D03*
%TO.N,/STM32-Root/STM32H723ZGT6/PG7*%
X56147000Y-134633000D03*
%TO.N,/STM32-Root/STM32H723ZGT6/PE8*%
X72072500Y-138262200D03*
X89408000Y-127762000D03*
X80772000Y-131064000D03*
%TO.N,/STM32-Root/STM32H723ZGT6/PB13*%
X52324000Y-114554000D03*
X54927500Y-117030500D03*
%TO.N,/STM32-Root/STM32H723ZGT6/PB6*%
X81661000Y-92456000D03*
X46355000Y-146000400D03*
%TO.N,/STM32-Root/STM32H723ZGT6/PA2*%
X111506000Y-133656800D03*
%TO.N,/STM32-Root/STM32H723ZGT6/PB5*%
X53340000Y-79121000D03*
X99060000Y-146304000D03*
X48260000Y-146174923D03*
X169418000Y-146304000D03*
X217170000Y-141859000D03*
X79502000Y-96266000D03*
X91353029Y-96179029D03*
%TO.N,/STM32-Root/STM32H723ZGT6/PA6*%
X70263092Y-146971092D03*
%TO.N,/STM32-Root/STM32H723ZGT6/PA7*%
X71628684Y-146431684D03*
%TO.N,/STM32-Root/STM32H723ZGT6/PG4*%
X59944000Y-86868000D03*
%TO.N,/STM32-Root/STM32H723ZGT6/PE11*%
X73710800Y-130182262D03*
%TO.N,/STM32-Root/STM32H723ZGT6/PB10*%
X162052000Y-129794000D03*
X73025000Y-133019800D03*
X100457000Y-132969000D03*
X90932000Y-133019800D03*
%TO.N,/STM32-Root/STM32H723ZGT6/PG6*%
X56896000Y-134077943D03*
%TO.N,/STM32-Root/STM32H723ZGT6/PA5*%
X68707000Y-147701000D03*
%TO.N,/BRUHbus/CAN1_L*%
X83693000Y-101981000D03*
X70209266Y-101832266D03*
%TO.N,/BRUHbus/CAN1_H*%
X71203532Y-100838000D03*
X83058000Y-99314000D03*
X87646841Y-89297841D03*
%TO.N,/BRUHbus/CAN2_L*%
X101727000Y-93853000D03*
X92837000Y-98171000D03*
X230378000Y-146430000D03*
%TO.N,Net-(J6-CAN_IND)*%
X221996000Y-148082000D03*
X224536000Y-151638000D03*
%TO.N,/BRUHbus/CAN2_H*%
X90424000Y-97934242D03*
X101727000Y-92837000D03*
%TO.N,/Connector-Root/BSPD_FAULT+*%
X173168329Y-105350329D03*
X89408000Y-120904000D03*
X201718703Y-68453000D03*
X156589000Y-115220408D03*
%TO.N,/Connector-Root/BSPD-FAULT*%
X112014000Y-122936000D03*
X103512873Y-122801127D03*
X143002000Y-68580000D03*
%TO.N,/Connector-Root/BMS-FAULT*%
X113157000Y-121589800D03*
%TO.N,/Connector-Root/BRAKE_LIGHT*%
X110109000Y-129159000D03*
X172681900Y-106591100D03*
X164401500Y-114871500D03*
%TO.N,/Connector-Root/IMD-FAULT*%
X110853389Y-122351800D03*
%TO.N,+12V*%
X214122000Y-156464000D03*
X215138000Y-161798000D03*
X215138000Y-163322000D03*
X198374000Y-68580000D03*
X116840000Y-102108000D03*
X232664000Y-109220000D03*
X214122000Y-164084000D03*
X215138000Y-157226000D03*
X43815000Y-90678000D03*
X115062000Y-86106000D03*
X214122000Y-157988000D03*
X214122000Y-161036000D03*
X137541000Y-85979000D03*
X79756000Y-129032000D03*
X43688000Y-74295000D03*
X43561000Y-71120000D03*
X214122000Y-154940000D03*
X215138000Y-164846000D03*
X214122000Y-162560000D03*
X215138000Y-160274000D03*
X43688000Y-95123000D03*
X117348000Y-99822000D03*
X215138000Y-158750000D03*
X214122000Y-159512000D03*
X215138000Y-155702000D03*
X189484000Y-67310000D03*
%TO.N,/Connector-Root/Vin+*%
X208280000Y-128270000D03*
X205740000Y-130810000D03*
X207010000Y-127000000D03*
X207010000Y-129540000D03*
X208280000Y-125730000D03*
X205740000Y-125730000D03*
X214630000Y-124460000D03*
X213360000Y-130810000D03*
X209550000Y-127000000D03*
X205740000Y-123190000D03*
X207010000Y-124460000D03*
X210820000Y-125730000D03*
X207010000Y-132080000D03*
X213360000Y-133350000D03*
X205740000Y-133350000D03*
X210820000Y-123190000D03*
X210820000Y-133350000D03*
X213360000Y-128270000D03*
X208280000Y-133350000D03*
X210820000Y-130810000D03*
X213360000Y-123190000D03*
X205740000Y-128270000D03*
X210820000Y-128270000D03*
X212090000Y-132080000D03*
X209550000Y-132080000D03*
X212090000Y-124460000D03*
X212090000Y-127000000D03*
X214630000Y-129540000D03*
X209550000Y-129540000D03*
X209550000Y-124460000D03*
X208280000Y-130810000D03*
X214630000Y-127000000D03*
X208280000Y-123190000D03*
X214630000Y-132080000D03*
X212090000Y-129540000D03*
X213360000Y-125730000D03*
%TD*%
D26*
%TO.N,/STM32-Root/STM32H723ZGT6/PC2*%
X110629600Y-169990972D02*
X110629600Y-171589600D01*
X72263000Y-158623000D02*
X99261628Y-158623000D01*
X99261628Y-158623000D02*
X110629600Y-169990972D01*
X59361800Y-145721800D02*
X72263000Y-158623000D01*
X110629600Y-171589600D02*
X111760000Y-172720000D01*
%TO.N,/STM32-Root/STM32H723ZGT6/PF8*%
X58039000Y-142494000D02*
X58102200Y-142494000D01*
X60592700Y-146317700D02*
X72263000Y-157988000D01*
X60592700Y-144984500D02*
X60592700Y-146317700D01*
X58102200Y-142494000D02*
X60592700Y-144984500D01*
X109601000Y-168021000D02*
X132461000Y-168021000D01*
X99568000Y-157988000D02*
X109601000Y-168021000D01*
X72263000Y-157988000D02*
X99568000Y-157988000D01*
X132461000Y-168021000D02*
X134620000Y-170180000D01*
%TO.N,/STM32-Root/STM32H723ZGT6/PD1*%
X64389000Y-145161000D02*
X54737000Y-135509000D01*
X46912200Y-135509000D02*
X46863000Y-135558200D01*
X137160000Y-172720000D02*
X135750400Y-171310400D01*
X135750400Y-169711772D02*
X111199628Y-145161000D01*
X54737000Y-135509000D02*
X46912200Y-135509000D01*
X111199628Y-145161000D02*
X64389000Y-145161000D01*
X135750400Y-171310400D02*
X135750400Y-169711772D01*
%TO.N,/STM32-Root/STM32H723ZGT6/PD0*%
X134635779Y-168021000D02*
X136599628Y-168021000D01*
X50610200Y-132777800D02*
X57659398Y-132777800D01*
X58002200Y-133605398D02*
X57659398Y-133948200D01*
X56732200Y-134663143D02*
X56732200Y-134875398D01*
X58002200Y-133120602D02*
X58002200Y-133605398D01*
X138569600Y-169990972D02*
X138569600Y-171589600D01*
X56732200Y-134875398D02*
X56389398Y-135218200D01*
X56097200Y-135510398D02*
X55754398Y-135853200D01*
X138569600Y-171589600D02*
X139700000Y-172720000D01*
X57659398Y-132777800D02*
X58002200Y-133120602D01*
X56097200Y-135218200D02*
X56097200Y-135510398D01*
X56389398Y-135218200D02*
X56097200Y-135218200D01*
X57659398Y-133948200D02*
X57481200Y-133948200D01*
X64557750Y-144753600D02*
X111368379Y-144753600D01*
X136599628Y-168021000D02*
X138569600Y-169990972D01*
X111368379Y-144753600D02*
X134635779Y-168021000D01*
X57138398Y-134663143D02*
X56732200Y-134663143D01*
X57481200Y-134320341D02*
X57138398Y-134663143D01*
X55754398Y-135853200D02*
X55657350Y-135853200D01*
X55657350Y-135853200D02*
X64557750Y-144753600D01*
X57481200Y-133948200D02*
X57481200Y-134320341D01*
%TO.N,/STM32-Root/STM32H723ZGT6/PE7*%
X75813400Y-139324600D02*
X68953130Y-139324600D01*
X120789600Y-110350400D02*
X121920000Y-109220000D01*
X119190972Y-110350400D02*
X120789600Y-110350400D01*
X94755449Y-129354153D02*
X95331602Y-128778000D01*
X95331602Y-128778000D02*
X101699828Y-128778000D01*
X68704730Y-139573000D02*
X64897000Y-139573000D01*
X76708000Y-138430000D02*
X75813400Y-139324600D01*
X94755449Y-131996102D02*
X94755449Y-129354153D01*
X101699828Y-128778000D02*
X118249600Y-112228228D01*
X89287600Y-132327400D02*
X89331800Y-132327400D01*
X68953130Y-139324600D02*
X68704730Y-139573000D01*
X89331800Y-132327400D02*
X94424151Y-132327400D01*
X76708000Y-138262200D02*
X76708000Y-138430000D01*
X118249600Y-111291772D02*
X119190972Y-110350400D01*
X118249600Y-112228228D02*
X118249600Y-111291772D01*
X94424151Y-132327400D02*
X94755449Y-131996102D01*
%TO.N,/STM32-Root/STM32H723ZGT6/PE9*%
X125590400Y-111570972D02*
X125590400Y-112228228D01*
X126531772Y-110629600D02*
X125590400Y-111570972D01*
X130670400Y-110629600D02*
X126531772Y-110629600D01*
X98493028Y-139325600D02*
X84582000Y-139325600D01*
X125590400Y-112228228D02*
X98493028Y-139325600D01*
X132080000Y-109220000D02*
X130670400Y-110629600D01*
%TO.N,/STM32-Root/STM32H723ZGT6/PE8*%
X79248000Y-131064000D02*
X80772000Y-131064000D01*
X72072500Y-138239500D02*
X79248000Y-131064000D01*
X111279172Y-110629600D02*
X110350400Y-111558372D01*
X110350400Y-112228228D02*
X94816628Y-127762000D01*
X116840000Y-109220000D02*
X115430400Y-110629600D01*
X115430400Y-110629600D02*
X111279172Y-110629600D01*
X94816628Y-127762000D02*
X89408000Y-127762000D01*
X110350400Y-111558372D02*
X110350400Y-112228228D01*
X72072500Y-138262200D02*
X72072500Y-138239500D01*
%TO.N,/STM32-Root/STM32H723ZGT6/PB13*%
X104140000Y-109220000D02*
X105410000Y-110490000D01*
X103505000Y-114554000D02*
X52324000Y-114554000D01*
X105410000Y-110490000D02*
X105410000Y-112649000D01*
X105410000Y-112649000D02*
X103505000Y-114554000D01*
%TO.N,/BRUHbus/CAN2_L*%
X110363000Y-85217000D02*
X101727000Y-93853000D01*
X92837000Y-98171000D02*
X91700000Y-97034000D01*
X231900000Y-147824000D02*
X229870000Y-145794000D01*
X229870000Y-145794000D02*
X229870000Y-107696000D01*
X229870000Y-107696000D02*
X207391000Y-85217000D01*
X91700000Y-97034000D02*
X35820000Y-97034000D01*
X207391000Y-85217000D02*
X110363000Y-85217000D01*
%TO.N,/BRUHbus/CAN2_H*%
X230277400Y-140081000D02*
X230277400Y-107468400D01*
X102166850Y-92837000D02*
X101727000Y-92837000D01*
X34054400Y-98064400D02*
X34040000Y-98050000D01*
X90424000Y-97934242D02*
X90107958Y-97618200D01*
X90107958Y-97618200D02*
X37415200Y-97618200D01*
X230277400Y-143405400D02*
X230277400Y-140081000D01*
X207618600Y-84809600D02*
X204724000Y-84809600D01*
X204724000Y-84809600D02*
X150622000Y-84809600D01*
X110194249Y-84809600D02*
X109503425Y-85500425D01*
X227965000Y-105156000D02*
X207618600Y-84809600D01*
X109503425Y-85500425D02*
X102166850Y-92837000D01*
X150622000Y-84809600D02*
X110194249Y-84809600D01*
X36969000Y-98064400D02*
X34054400Y-98064400D01*
X230277400Y-107468400D02*
X227965000Y-105156000D01*
X233680000Y-146808000D02*
X230277400Y-143405400D01*
X37415200Y-97618200D02*
X36969000Y-98064400D01*
%TD*%
M02*
