%TF.GenerationSoftware,KiCad,Pcbnew,9.0.3*%
%TF.CreationDate,2025-10-14T12:15:04-07:00*%
%TF.ProjectId,VCU_v1,5643555f-7631-42e6-9b69-6361645f7063,rev?*%
%TF.SameCoordinates,Original*%
%TF.FileFunction,Soldermask,Bot*%
%TF.FilePolarity,Negative*%
%FSLAX46Y46*%
G04 Gerber Fmt 4.6, Leading zero omitted, Abs format (unit mm)*
G04 Created by KiCad (PCBNEW 9.0.3) date 2025-10-14 12:15:04*
%MOMM*%
%LPD*%
G01*
G04 APERTURE LIST*
G04 Aperture macros list*
%AMRoundRect*
0 Rectangle with rounded corners*
0 $1 Rounding radius*
0 $2 $3 $4 $5 $6 $7 $8 $9 X,Y pos of 4 corners*
0 Add a 4 corners polygon primitive as box body*
4,1,4,$2,$3,$4,$5,$6,$7,$8,$9,$2,$3,0*
0 Add four circle primitives for the rounded corners*
1,1,$1+$1,$2,$3*
1,1,$1+$1,$4,$5*
1,1,$1+$1,$6,$7*
1,1,$1+$1,$8,$9*
0 Add four rect primitives between the rounded corners*
20,1,$1+$1,$2,$3,$4,$5,0*
20,1,$1+$1,$4,$5,$6,$7,0*
20,1,$1+$1,$6,$7,$8,$9,0*
20,1,$1+$1,$8,$9,$2,$3,0*%
G04 Aperture macros list end*
%ADD10C,3.600000*%
%ADD11C,5.700000*%
%ADD12C,3.250000*%
%ADD13R,1.500000X1.500000*%
%ADD14C,1.500000*%
%ADD15C,2.300000*%
%ADD16RoundRect,0.250000X0.750000X0.750000X-0.750000X0.750000X-0.750000X-0.750000X0.750000X-0.750000X0*%
%ADD17C,2.000000*%
%ADD18RoundRect,0.250000X-0.550000X-0.550000X0.550000X-0.550000X0.550000X0.550000X-0.550000X0.550000X0*%
%ADD19C,1.600000*%
%ADD20RoundRect,0.250000X-0.550000X0.550000X-0.550000X-0.550000X0.550000X-0.550000X0.550000X0.550000X0*%
%ADD21C,4.038600*%
%ADD22C,2.057400*%
%ADD23R,1.700000X1.700000*%
%ADD24C,1.700000*%
%ADD25RoundRect,0.250000X-0.750000X-0.750000X0.750000X-0.750000X0.750000X0.750000X-0.750000X0.750000X0*%
%ADD26RoundRect,0.250000X-0.750000X0.750000X-0.750000X-0.750000X0.750000X-0.750000X0.750000X0.750000X0*%
%ADD27RoundRect,0.250000X0.750000X-0.750000X0.750000X0.750000X-0.750000X0.750000X-0.750000X-0.750000X0*%
G04 APERTURE END LIST*
D10*
%TO.C,H1*%
X237490000Y-68580000D03*
D11*
X237490000Y-68580000D03*
%TD*%
D12*
%TO.C,J8*%
X31500000Y-100840000D03*
X31500000Y-88140000D03*
D13*
X34040000Y-98050000D03*
D14*
X35820000Y-97034000D03*
X34040000Y-96018000D03*
X35820000Y-95002000D03*
X34040000Y-93986000D03*
X35820000Y-92970000D03*
X34040000Y-91954000D03*
X35820000Y-90938000D03*
X40640000Y-101350000D03*
X40640000Y-99060000D03*
X40640000Y-89920000D03*
X40640000Y-87630000D03*
D15*
X34930000Y-102620000D03*
X34930000Y-86360000D03*
%TD*%
D12*
%TO.C,J7*%
X31496000Y-79498000D03*
X31496000Y-66798000D03*
D13*
X34036000Y-76708000D03*
D14*
X35816000Y-75692000D03*
X34036000Y-74676000D03*
X35816000Y-73660000D03*
X34036000Y-72644000D03*
X35816000Y-71628000D03*
X34036000Y-70612000D03*
X35816000Y-69596000D03*
X40636000Y-80008000D03*
X40636000Y-77718000D03*
X40636000Y-68578000D03*
X40636000Y-66288000D03*
D15*
X34926000Y-81278000D03*
X34926000Y-65018000D03*
%TD*%
D16*
%TO.C,C65*%
X133431677Y-76224001D03*
D17*
X128431677Y-76224001D03*
%TD*%
D18*
%TO.C,C11*%
X177602000Y-163660000D03*
D19*
X181102000Y-163660000D03*
%TD*%
D20*
%TO.C,C2*%
X200406000Y-153117349D03*
D19*
X200406000Y-156617349D03*
%TD*%
D21*
%TO.C,U6*%
X89950011Y-58166000D03*
X44450000Y-58166000D03*
D22*
X82950010Y-60626001D03*
X79450009Y-60626001D03*
X75950008Y-60626001D03*
X72450005Y-60626001D03*
X68950005Y-60626001D03*
X65450004Y-60626001D03*
X61950003Y-60626001D03*
X58450003Y-60626001D03*
X54950002Y-60626001D03*
X51450001Y-60626001D03*
X82950010Y-57125999D03*
X79450009Y-57125999D03*
X75950008Y-57125999D03*
X72450005Y-57125999D03*
X68950005Y-57125999D03*
X65450004Y-57125999D03*
X61950003Y-57125999D03*
X58450003Y-57125999D03*
X54950002Y-57125999D03*
X51450001Y-57125999D03*
%TD*%
D21*
%TO.C,U7*%
X161070011Y-58166000D03*
X115570000Y-58166000D03*
D22*
X154070010Y-60626001D03*
X150570009Y-60626001D03*
X147070008Y-60626001D03*
X143570005Y-60626001D03*
X140070005Y-60626001D03*
X136570004Y-60626001D03*
X133070003Y-60626001D03*
X129570003Y-60626001D03*
X126070002Y-60626001D03*
X122570001Y-60626001D03*
X154070010Y-57125999D03*
X150570009Y-57125999D03*
X147070008Y-57125999D03*
X143570005Y-57125999D03*
X140070005Y-57125999D03*
X136570004Y-57125999D03*
X133070003Y-57125999D03*
X129570003Y-57125999D03*
X126070002Y-57125999D03*
X122570001Y-57125999D03*
%TD*%
D23*
%TO.C,JP3*%
X237490000Y-136652000D03*
D24*
X237490000Y-134112000D03*
X237490000Y-131572000D03*
%TD*%
D25*
%TO.C,C66*%
X117843677Y-76224001D03*
D17*
X122843677Y-76224001D03*
%TD*%
D23*
%TO.C,JP1*%
X31750000Y-144018000D03*
D24*
X31750000Y-146558000D03*
X31750000Y-149098000D03*
%TD*%
D23*
%TO.C,J1*%
X27432000Y-106680000D03*
D24*
X29972000Y-106680000D03*
X32512000Y-106680000D03*
X35052000Y-106680000D03*
%TD*%
D26*
%TO.C,C53*%
X196957990Y-94673678D03*
D17*
X196957990Y-99673678D03*
%TD*%
D12*
%TO.C,J6*%
X236220000Y-144018000D03*
X236220000Y-156718000D03*
D13*
X233680000Y-146808000D03*
D14*
X231900000Y-147824000D03*
X233680000Y-148840000D03*
X231900000Y-149856000D03*
X233680000Y-150872000D03*
X231900000Y-151888000D03*
X233680000Y-152904000D03*
X231900000Y-153920000D03*
X227080000Y-143508000D03*
X227080000Y-145798000D03*
X227080000Y-154938000D03*
X227080000Y-157228000D03*
D15*
X232790000Y-142238000D03*
X232790000Y-158498000D03*
%TD*%
D23*
%TO.C,JP2*%
X95250000Y-87630000D03*
D24*
X92710000Y-87630000D03*
X90170000Y-87630000D03*
%TD*%
D27*
%TO.C,C76*%
X158603990Y-94339678D03*
D17*
X158603990Y-89339678D03*
%TD*%
D10*
%TO.C,H2*%
X29972000Y-57150000D03*
D11*
X29972000Y-57150000D03*
%TD*%
D23*
%TO.C,J3*%
X68580000Y-111760000D03*
D24*
X68580000Y-109220000D03*
X71120000Y-111760000D03*
X71120000Y-109220000D03*
X73660000Y-111760000D03*
X73660000Y-109220000D03*
X76200000Y-111760000D03*
X76200000Y-109220000D03*
X78740000Y-111760000D03*
X78740000Y-109220000D03*
X81280000Y-111760000D03*
X81280000Y-109220000D03*
X83820000Y-111760000D03*
X83820000Y-109220000D03*
X86360000Y-111760000D03*
X86360000Y-109220000D03*
X88900000Y-111760000D03*
X88900000Y-109220000D03*
X91440000Y-111760000D03*
X91440000Y-109220000D03*
X93980000Y-111760000D03*
X93980000Y-109220000D03*
X96520000Y-111760000D03*
X96520000Y-109220000D03*
X99060000Y-111760000D03*
X99060000Y-109220000D03*
X101600000Y-111760000D03*
X101600000Y-109220000D03*
X104140000Y-111760000D03*
X104140000Y-109220000D03*
X106680000Y-111760000D03*
X106680000Y-109220000D03*
X109220000Y-111760000D03*
X109220000Y-109220000D03*
X111760000Y-111760000D03*
X111760000Y-109220000D03*
X114300000Y-111760000D03*
X114300000Y-109220000D03*
X116840000Y-111760000D03*
X116840000Y-109220000D03*
X119380000Y-111760000D03*
X119380000Y-109220000D03*
X121920000Y-111760000D03*
X121920000Y-109220000D03*
X124460000Y-111760000D03*
X124460000Y-109220000D03*
X127000000Y-111760000D03*
X127000000Y-109220000D03*
X129540000Y-111760000D03*
X129540000Y-109220000D03*
X132080000Y-111760000D03*
X132080000Y-109220000D03*
X134620000Y-111760000D03*
X134620000Y-109220000D03*
X137160000Y-111760000D03*
X137160000Y-109220000D03*
X139700000Y-111760000D03*
X139700000Y-109220000D03*
X142240000Y-111760000D03*
X142240000Y-109220000D03*
X144780000Y-111760000D03*
X144780000Y-109220000D03*
X147320000Y-111760000D03*
X147320000Y-109220000D03*
X149860000Y-111760000D03*
X149860000Y-109220000D03*
X152400000Y-111760000D03*
X152400000Y-109220000D03*
X154940000Y-111760000D03*
X154940000Y-109220000D03*
%TD*%
D10*
%TO.C,H3*%
X237490000Y-171450000D03*
D11*
X237490000Y-171450000D03*
%TD*%
D26*
%TO.C,C61*%
X207625990Y-94673678D03*
D17*
X207625990Y-99673678D03*
%TD*%
D10*
%TO.C,H4*%
X29972000Y-171450000D03*
D11*
X29972000Y-171450000D03*
%TD*%
D27*
%TO.C,C13*%
X188976000Y-166200000D03*
D17*
X188976000Y-161200000D03*
%TD*%
D27*
%TO.C,C80*%
X169271990Y-94339678D03*
D17*
X169271990Y-89339678D03*
%TD*%
D21*
%TO.C,U8*%
X232190011Y-58166000D03*
X186690000Y-58166000D03*
D22*
X225190010Y-60626001D03*
X221690009Y-60626001D03*
X218190008Y-60626001D03*
X214690005Y-60626001D03*
X211190005Y-60626001D03*
X207690004Y-60626001D03*
X204190003Y-60626001D03*
X200690003Y-60626001D03*
X197190002Y-60626001D03*
X193690001Y-60626001D03*
X225190010Y-57125999D03*
X221690009Y-57125999D03*
X218190008Y-57125999D03*
X214690005Y-57125999D03*
X211190005Y-57125999D03*
X207690004Y-57125999D03*
X204190003Y-57125999D03*
X200690003Y-57125999D03*
X197190002Y-57125999D03*
X193690001Y-57125999D03*
%TD*%
D23*
%TO.C,J2*%
X68580000Y-172720000D03*
D24*
X68580000Y-170180000D03*
X71120000Y-172720000D03*
X71120000Y-170180000D03*
X73660000Y-172720000D03*
X73660000Y-170180000D03*
X76200000Y-172720000D03*
X76200000Y-170180000D03*
X78740000Y-172720000D03*
X78740000Y-170180000D03*
X81280000Y-172720000D03*
X81280000Y-170180000D03*
X83820000Y-172720000D03*
X83820000Y-170180000D03*
X86360000Y-172720000D03*
X86360000Y-170180000D03*
X88900000Y-172720000D03*
X88900000Y-170180000D03*
X91440000Y-172720000D03*
X91440000Y-170180000D03*
X93980000Y-172720000D03*
X93980000Y-170180000D03*
X96520000Y-172720000D03*
X96520000Y-170180000D03*
X99060000Y-172720000D03*
X99060000Y-170180000D03*
X101600000Y-172720000D03*
X101600000Y-170180000D03*
X104140000Y-172720000D03*
X104140000Y-170180000D03*
X106680000Y-172720000D03*
X106680000Y-170180000D03*
X109220000Y-172720000D03*
X109220000Y-170180000D03*
X111760000Y-172720000D03*
X111760000Y-170180000D03*
X114300000Y-172720000D03*
X114300000Y-170180000D03*
X116840000Y-172720000D03*
X116840000Y-170180000D03*
X119380000Y-172720000D03*
X119380000Y-170180000D03*
X121920000Y-172720000D03*
X121920000Y-170180000D03*
X124460000Y-172720000D03*
X124460000Y-170180000D03*
X127000000Y-172720000D03*
X127000000Y-170180000D03*
X129540000Y-172720000D03*
X129540000Y-170180000D03*
X132080000Y-172720000D03*
X132080000Y-170180000D03*
X134620000Y-172720000D03*
X134620000Y-170180000D03*
X137160000Y-172720000D03*
X137160000Y-170180000D03*
X139700000Y-172720000D03*
X139700000Y-170180000D03*
X142240000Y-172720000D03*
X142240000Y-170180000D03*
X144780000Y-172720000D03*
X144780000Y-170180000D03*
X147320000Y-172720000D03*
X147320000Y-170180000D03*
X149860000Y-172720000D03*
X149860000Y-170180000D03*
X152400000Y-172720000D03*
X152400000Y-170180000D03*
X154940000Y-172720000D03*
X154940000Y-170180000D03*
%TD*%
M02*
