%TF.GenerationSoftware,KiCad,Pcbnew,9.0.7*%
%TF.CreationDate,2026-02-10T17:00:28-08:00*%
%TF.ProjectId,VCU_v2,5643555f-7632-42e6-9b69-6361645f7063,rev?*%
%TF.SameCoordinates,Original*%
%TF.FileFunction,Soldermask,Bot*%
%TF.FilePolarity,Negative*%
%FSLAX46Y46*%
G04 Gerber Fmt 4.6, Leading zero omitted, Abs format (unit mm)*
G04 Created by KiCad (PCBNEW 9.0.7) date 2026-02-10 17:00:28*
%MOMM*%
%LPD*%
G01*
G04 APERTURE LIST*
G04 Aperture macros list*
%AMRoundRect*
0 Rectangle with rounded corners*
0 $1 Rounding radius*
0 $2 $3 $4 $5 $6 $7 $8 $9 X,Y pos of 4 corners*
0 Add a 4 corners polygon primitive as box body*
4,1,4,$2,$3,$4,$5,$6,$7,$8,$9,$2,$3,0*
0 Add four circle primitives for the rounded corners*
1,1,$1+$1,$2,$3*
1,1,$1+$1,$4,$5*
1,1,$1+$1,$6,$7*
1,1,$1+$1,$8,$9*
0 Add four rect primitives between the rounded corners*
20,1,$1+$1,$2,$3,$4,$5,0*
20,1,$1+$1,$4,$5,$6,$7,0*
20,1,$1+$1,$6,$7,$8,$9,0*
20,1,$1+$1,$8,$9,$2,$3,0*%
G04 Aperture macros list end*
%ADD10C,3.600000*%
%ADD11C,5.700000*%
%ADD12RoundRect,0.250000X0.750000X0.750000X-0.750000X0.750000X-0.750000X-0.750000X0.750000X-0.750000X0*%
%ADD13C,2.000000*%
%ADD14C,4.851400*%
%ADD15C,2.108200*%
%ADD16RoundRect,0.250000X-0.550000X-0.550000X0.550000X-0.550000X0.550000X0.550000X-0.550000X0.550000X0*%
%ADD17C,1.600000*%
%ADD18RoundRect,0.250000X-0.550000X0.550000X-0.550000X-0.550000X0.550000X-0.550000X0.550000X0.550000X0*%
%ADD19R,1.700000X1.700000*%
%ADD20C,1.700000*%
%ADD21C,1.574800*%
%ADD22RoundRect,0.250000X-0.750000X-0.750000X0.750000X-0.750000X0.750000X0.750000X-0.750000X0.750000X0*%
%ADD23RoundRect,0.250000X0.750000X-0.750000X0.750000X0.750000X-0.750000X0.750000X-0.750000X-0.750000X0*%
%ADD24RoundRect,0.250000X-0.750000X0.750000X-0.750000X-0.750000X0.750000X-0.750000X0.750000X0.750000X0*%
G04 APERTURE END LIST*
D10*
%TO.C,H1*%
X274320000Y-53340000D03*
D11*
X274320000Y-53340000D03*
%TD*%
D12*
%TO.C,C65*%
X171858881Y-63813713D03*
D13*
X166858881Y-63813713D03*
%TD*%
D14*
%TO.C,U19*%
X199277724Y-40846362D03*
X276087324Y-40846362D03*
D15*
X258129524Y-43767362D03*
X252287524Y-43767362D03*
X246445524Y-43767362D03*
X240603524Y-43767362D03*
X234761524Y-43767362D03*
X228919524Y-43767362D03*
X223077524Y-43767362D03*
X217235524Y-43767362D03*
X258129524Y-37925362D03*
X252287524Y-37925362D03*
X246445524Y-37925362D03*
X240603524Y-37925362D03*
X234761524Y-37925362D03*
X228919524Y-37925362D03*
X223077524Y-37925362D03*
X217235524Y-37925362D03*
%TD*%
D16*
%TO.C,C11*%
X233801877Y-94036020D03*
D17*
X237301877Y-94036020D03*
%TD*%
D18*
%TO.C,C2*%
X256605877Y-83493369D03*
D17*
X256605877Y-86993369D03*
%TD*%
D19*
%TO.C,JP3*%
X102362000Y-60960000D03*
D20*
X102362000Y-63500000D03*
X102362000Y-66040000D03*
%TD*%
D21*
%TO.C,J2*%
X246515476Y-108306700D03*
X243515477Y-108306700D03*
X240515478Y-108306700D03*
X246515476Y-105306701D03*
X243515477Y-105306701D03*
X240515478Y-105306701D03*
%TD*%
D22*
%TO.C,C66*%
X156270881Y-63813713D03*
D13*
X161270881Y-63813713D03*
%TD*%
D19*
%TO.C,JP4*%
X108705000Y-73031000D03*
D20*
X108705000Y-75571000D03*
X108705000Y-78111000D03*
%TD*%
D19*
%TO.C,JP1*%
X29437393Y-63644027D03*
D20*
X31977393Y-63644027D03*
X34517393Y-63644027D03*
%TD*%
D19*
%TO.C,J1*%
X29395343Y-68252197D03*
D20*
X31935343Y-68252197D03*
X34475343Y-68252197D03*
X37015343Y-68252197D03*
%TD*%
D23*
%TO.C,C53*%
X227315340Y-59742124D03*
D13*
X227315340Y-54742124D03*
%TD*%
D14*
%TO.C,U18*%
X114822724Y-40846362D03*
X191632324Y-40846362D03*
D15*
X173674524Y-43767362D03*
X167832524Y-43767362D03*
X161990524Y-43767362D03*
X156148524Y-43767362D03*
X150306524Y-43767362D03*
X144464524Y-43767362D03*
X138622524Y-43767362D03*
X132780524Y-43767362D03*
X173674524Y-37925362D03*
X167832524Y-37925362D03*
X161990524Y-37925362D03*
X156148524Y-37925362D03*
X150306524Y-37925362D03*
X144464524Y-37925362D03*
X138622524Y-37925362D03*
X132780524Y-37925362D03*
%TD*%
D12*
%TO.C,C76*%
X198012660Y-65352753D03*
D13*
X193012660Y-65352753D03*
%TD*%
D10*
%TO.C,H2*%
X31002724Y-53340000D03*
D11*
X31002724Y-53340000D03*
%TD*%
D10*
%TO.C,H3*%
X274320000Y-114300000D03*
D11*
X274320000Y-114300000D03*
%TD*%
D24*
%TO.C,C61*%
X227169966Y-65385949D03*
D13*
X227169966Y-70385949D03*
%TD*%
D14*
%TO.C,U17*%
X30393124Y-40846362D03*
X107202724Y-40846362D03*
D15*
X89244924Y-43767362D03*
X83402924Y-43767362D03*
X77560924Y-43767362D03*
X71718924Y-43767362D03*
X65876924Y-43767362D03*
X60034924Y-43767362D03*
X54192924Y-43767362D03*
X48350924Y-43767362D03*
X89244924Y-37925362D03*
X83402924Y-37925362D03*
X77560924Y-37925362D03*
X71718924Y-37925362D03*
X65876924Y-37925362D03*
X60034924Y-37925362D03*
X54192924Y-37925362D03*
X48350924Y-37925362D03*
%TD*%
D10*
%TO.C,H4*%
X31002724Y-114300000D03*
D11*
X31002724Y-114300000D03*
%TD*%
D23*
%TO.C,C13*%
X245175877Y-96576020D03*
D13*
X245175877Y-91576020D03*
%TD*%
D23*
%TO.C,C80*%
X201451446Y-57914787D03*
D13*
X201451446Y-52914787D03*
%TD*%
M02*
